P2
120 120
255
0 0 0 0 0 0 0 0 0 0 0 0 0 0 0 0 0 0 0 0 0 0 0 0 0 0 0 0 0 0 0 0 0 0 0 0 0 0 0 0 0 0 0 0 0 0 0 0 0 0 0 0 0 0 0 0 0 0 0 0 0 0 0 0 0 0 0 0 0 0 0 0 0 0 0 0 0 0 0 0 0 0 0 0 0 0 0 0 0 0 0 0 0 0 0 0 0 0 0 0 0 0 0 0 0 0 0 0 0 0 0 0 0 0 0 0 0 0 0 0
0 0 0 0 0 0 0 0 0 0 0 0 0 0 0 0 0 0 0 0 0 0 0 0 0 0 0 0 0 0 0 0 0 0 0 0 0 0 0 0 0 0 0 0 0 0 0 0 0 0 0 0 0 146 146 146 149 155 159 159 157 158 160 160 161 161 158 0 0 0 0 0 0 0 0 0 0 0 0 0 0 0 0 0 0 0 0 0 0 0 0 0 0 0 0 0 0 0 0 0 0 0 0 0 0 0 0 0 0 0 0 0 0 0 0 0 0 0 0 0
0 0 0 0 0 0 0 0 0 0 0 0 0 0 0 0 0 0 0 0 0 0 0 0 0 0 0 0 0 0 0 0 0 0 0 0 0 0 0 0 0 0 0 0 0 0 0 0 0 0 0 146 148 152 153 154 157 160 164 164 162 161 165 166 166 163 161 158 158 159 159 160 160 0 0 0 0 0 0 0 0 0 0 0 0 0 0 0 0 0 0 0 0 0 0 0 0 0 0 0 0 0 0 0 0 0 0 0 0 0 0 0 0 0 0 0 0 0 0 0
0 0 0 0 0 0 0 0 0 0 0 0 0 0 0 0 0 0 0 0 0 0 0 0 0 0 0 0 0 0 0 0 0 0 0 0 0 0 0 0 0 0 0 0 0 0 0 0 0 0 0 148 153 158 163 163 168 171 172 174 173 171 174 174 171 168 166 164 165 166 167 164 163 159 156 0 0 0 0 0 0 0 0 0 0 0 0 0 0 0 0 0 0 0 0 0 0 0 0 0 0 0 0 0 0 0 0 0 0 0 0 0 0 0 0 0 0 0 0 0
0 0 0 0 0 0 0 0 0 0 0 0 0 0 0 0 0 0 0 0 0 0 0 0 0 0 0 0 0 0 0 0 0 0 0 0 0 0 0 0 0 0 0 0 0 0 0 0 0 149 150 153 161 169 171 174 178 180 181 182 181 180 180 180 177 174 172 172 173 175 174 172 168 163 159 157 0 0 0 0 0 0 0 0 0 0 0 0 0 0 0 0 0 0 0 0 0 0 0 0 0 0 0 0 0 0 0 0 0 0 0 0 0 0 0 0 0 0 0 0
0 0 0 0 0 0 0 0 0 0 0 0 0 0 0 0 0 0 0 0 0 0 0 0 0 0 0 0 0 0 0 0 0 0 0 0 0 0 0 0 0 0 0 0 0 0 0 147 151 152 156 161 170 177 181 183 185 187 188 187 188 187 186 185 184 185 185 184 183 182 182 180 176 170 164 161 159 0 0 0 0 0 0 0 0 0 0 0 0 0 0 0 0 0 0 0 0 0 0 0 0 0 0 0 0 0 0 0 0 0 0 0 0 0 0 0 0 0 0 0
0 0 0 0 0 0 0 0 0 0 0 0 0 0 0 0 0 0 0 0 0 0 0 0 0 0 0 0 0 0 0 0 0 0 0 0 0 0 0 0 0 0 0 141 140 141 145 151 156 160 165 173 181 185 187 190 190 192 191 192 192 191 190 191 191 192 191 190 188 188 188 186 182 176 172 168 166 0 0 0 0 0 0 0 0 0 0 0 0 0 0 0 0 0 0 0 0 0 0 0 0 0 0 0 0 0 0 0 0 0 0 0 0 0 0 0 0 0 0 0
0 0 0 0 0 0 0 0 0 0 0 0 0 0 0 0 0 0 0 0 0 0 0 0 0 0 0 0 0 0 0 0 0 0 0 0 0 0 0 0 0 0 143 144 146 150 154 162 167 170 175 181 186 191 193 193 194 195 194 195 195 195 195 195 196 196 195 194 192 191 192 190 186 182 177 173 171 168 166 0 0 0 0 0 0 0 0 0 0 0 0 0 0 0 0 0 0 0 0 0 0 0 0 0 0 0 0 0 0 0 0 0 0 0 0 0 0 0 0 0
0 0 0 0 0 0 0 0 0 0 0 0 0 0 0 0 0 0 0 0 0 0 0 0 0 0 0 0 0 0 0 0 0 0 0 0 0 0 0 0 150 148 147 151 154 159 166 173 178 180 183 186 189 193 196 197 198 198 199 199 197 198 200 200 199 198 197 196 195 194 194 192 190 187 182 178 175 171 166 163 0 0 0 0 0 0 0 0 0 0 0 0 0 0 0 0 0 0 0 0 0 0 0 0 0 0 0 0 0 0 0 0 0 0 0 0 0 0 0 0
0 0 0 0 0 0 0 0 0 0 0 0 0 0 0 0 0 0 0 0 0 0 0 0 0 0 0 0 0 0 0 0 0 0 0 0 0 0 0 0 152 152 154 161 166 170 176 181 185 187 189 191 194 195 199 200 201 203 203 202 201 202 202 203 201 200 199 199 198 196 196 195 194 191 186 183 179 175 170 163 158 155 153 0 0 0 0 0 0 0 0 0 0 0 0 0 0 0 0 0 0 0 0 0 0 0 0 0 0 0 0 0 0 0 0 0 0 0 0 0
0 0 0 0 0 0 0 0 0 0 0 0 0 0 0 0 0 0 0 0 0 0 0 0 0 0 0 0 0 0 0 0 0 0 0 0 0 0 0 157 156 158 162 169 175 178 182 187 189 192 193 196 198 200 202 203 203 204 205 204 204 204 205 205 203 203 201 200 200 199 197 197 196 194 190 188 185 179 171 165 160 158 156 157 0 0 0 0 0 0 0 0 0 0 0 0 0 0 0 0 0 0 0 0 0 0 0 0 0 0 0 0 0 0 0 0 0 0 0 0
0 0 0 0 0 0 0 0 0 0 0 0 0 0 0 0 0 0 0 0 0 0 0 0 0 0 0 0 0 0 0 0 0 0 0 0 0 0 0 159 159 163 169 176 181 183 187 192 194 195 197 199 201 203 204 204 204 205 206 207 207 207 206 206 205 205 203 202 202 202 200 198 197 195 194 192 189 182 175 169 166 163 162 160 160 0 0 0 0 0 0 0 0 0 0 0 0 0 0 0 0 0 0 0 0 0 0 0 0 0 0 0 0 0 0 0 0 0 0 0
0 0 0 0 0 0 0 0 0 0 0 0 0 0 0 0 0 0 0 0 0 0 0 0 0 0 0 0 0 0 0 0 0 0 0 0 0 0 161 161 163 169 176 181 185 188 192 196 197 199 201 203 203 206 207 206 206 206 208 209 210 208 207 208 207 206 205 204 205 204 202 200 198 197 196 195 191 184 179 175 172 170 169 166 162 0 0 0 0 0 0 0 0 0 0 0 0 0 0 0 0 0 0 0 0 0 0 0 0 0 0 0 0 0 0 0 0 0 0 0
0 0 0 0 0 0 0 0 0 0 0 0 0 0 0 0 0 0 0 0 0 0 0 0 0 0 0 0 0 0 0 0 0 0 0 0 0 160 161 163 168 175 182 186 188 193 196 198 199 201 204 205 207 208 208 208 208 209 209 210 210 210 209 210 209 209 207 206 206 206 204 202 201 200 199 198 194 188 184 181 181 178 175 170 166 166 0 0 0 0 0 0 0 0 0 0 0 0 0 0 0 0 0 0 0 0 0 0 0 0 0 0 0 0 0 0 0 0 0 0
0 0 0 0 0 0 0 0 0 0 0 0 0 0 0 0 0 0 0 0 0 0 0 0 0 0 0 0 0 0 0 0 0 0 0 0 161 161 163 168 175 182 188 191 192 196 199 200 202 204 205 207 208 209 210 210 210 211 211 211 212 211 212 212 211 210 209 208 208 208 207 205 203 202 202 201 197 193 190 189 187 184 180 174 171 168 0 0 0 0 0 0 0 0 0 0 0 0 0 0 0 0 0 0 0 0 0 0 0 0 0 0 0 0 0 0 0 0 0 0
0 0 0 0 0 0 0 0 0 0 0 0 0 0 0 0 0 0 0 0 0 0 0 0 0 0 0 0 0 0 0 0 0 0 0 0 162 165 168 173 181 186 189 192 194 198 201 202 204 205 206 208 210 211 212 212 213 213 213 214 213 214 214 213 213 212 211 210 210 209 208 206 205 203 202 202 200 196 194 193 191 188 185 181 175 171 167 0 0 0 0 0 0 0 0 0 0 0 0 0 0 0 0 0 0 0 0 0 0 0 0 0 0 0 0 0 0 0 0 0
0 0 0 0 0 0 0 0 0 0 0 0 0 0 0 0 0 0 0 0 0 0 0 0 0 0 0 0 0 0 0 0 0 0 0 159 162 167 172 178 185 189 191 193 194 197 200 203 206 207 209 210 212 213 214 214 215 216 216 217 216 216 217 216 215 215 213 213 212 211 210 208 206 203 202 201 200 198 196 195 193 191 189 184 179 174 168 164 0 0 0 0 0 0 0 0 0 0 0 0 0 0 0 0 0 0 0 0 0 0 0 0 0 0 0 0 0 0 0 0
0 0 0 0 0 0 0 0 0 0 0 0 0 0 0 0 0 0 0 0 0 0 0 0 0 0 0 0 0 0 0 0 0 0 0 158 163 169 177 182 188 191 193 195 197 199 202 205 208 209 212 213 214 215 216 217 218 219 219 219 219 220 219 219 218 217 216 216 214 213 212 210 208 206 204 202 201 198 197 196 194 192 189 186 182 177 169 166 165 0 0 0 0 0 0 0 0 0 0 0 0 0 0 0 0 0 0 0 0 0 0 0 0 0 0 0 0 0 0 0
0 0 0 0 0 0 0 0 0 0 0 0 0 0 0 0 0 0 0 0 0 0 0 0 0 0 0 0 0 0 0 0 0 0 155 157 165 174 181 185 190 193 195 197 200 202 206 207 210 212 213 215 216 217 218 220 221 222 222 223 222 222 222 222 221 221 219 219 217 216 215 213 211 209 207 205 202 200 199 197 193 191 189 187 184 177 171 167 166 0 0 0 0 0 0 0 0 0 0 0 0 0 0 0 0 0 0 0 0 0 0 0 0 0 0 0 0 0 0 0
0 0 0 0 0 0 0 0 0 0 0 0 0 0 0 0 0 0 0 0 0 0 0 0 0 0 0 0 0 0 0 0 0 151 155 161 170 177 183 186 190 194 197 199 202 205 207 210 212 214 216 218 219 220 221 223 223 224 225 225 225 225 225 225 224 224 223 221 220 219 218 216 214 211 210 207 204 202 200 198 194 191 190 189 186 180 174 169 166 163 0 0 0 0 0 0 0 0 0 0 0 0 0 0 0 0 0 0 0 0 0 0 0 0 0 0 0 0 0 0
0 0 0 0 0 0 0 0 0 0 0 0 0 0 0 0 0 0 0 0 0 0 0 0 0 0 0 0 0 0 0 0 0 153 159 167 175 180 185 189 193 196 198 202 205 207 209 213 214 216 219 220 222 222 224 225 226 226 227 227 228 228 228 227 227 226 225 224 223 222 220 218 216 214 213 210 207 204 202 199 197 194 193 192 189 183 177 171 168 165 0 0 0 0 0 0 0 0 0 0 0 0 0 0 0 0 0 0 0 0 0 0 0 0 0 0 0 0 0 0
0 0 0 0 0 0 0 0 0 0 0 0 0 0 0 0 0 0 0 0 0 0 0 0 0 0 0 0 0 0 0 0 154 159 167 174 179 184 188 192 195 198 203 205 207 209 212 215 217 219 221 222 224 225 226 227 228 228 229 230 230 230 230 230 229 228 227 226 225 224 223 221 219 218 216 213 210 207 205 202 200 197 195 194 191 184 179 175 171 168 166 0 0 0 0 0 0 0 0 0 0 0 0 0 0 0 0 0 0 0 0 0 0 0 0 0 0 0 0 0
0 0 0 0 0 0 0 0 0 0 0 0 0 0 0 0 0 0 0 0 0 0 0 0 0 0 0 0 0 0 0 0 156 165 173 179 182 186 190 194 198 201 204 207 209 212 215 218 219 222 223 224 226 227 228 229 230 231 231 232 232 232 232 231 231 230 230 228 227 227 226 224 222 220 218 215 212 211 208 204 202 200 197 196 194 188 183 178 175 172 168 0 0 0 0 0 0 0 0 0 0 0 0 0 0 0 0 0 0 0 0 0 0 0 0 0 0 0 0 0
0 0 0 0 0 0 0 0 0 0 0 0 0 0 0 0 0 0 0 0 0 0 0 0 0 0 0 0 0 0 0 155 159 169 175 181 185 188 192 197 201 203 207 209 212 214 217 220 222 224 225 227 229 230 231 231 232 232 233 233 233 233 233 233 232 232 231 230 229 228 228 226 225 222 220 217 216 213 210 207 204 202 199 198 195 191 187 182 177 174 169 164 0 0 0 0 0 0 0 0 0 0 0 0 0 0 0 0 0 0 0 0 0 0 0 0 0 0 0 0
0 0 0 0 0 0 0 0 0 0 0 0 0 0 0 0 0 0 0 0 0 0 0 0 0 0 0 0 0 0 0 158 164 172 177 182 186 190 195 199 202 205 209 211 214 217 220 222 224 226 227 229 230 231 232 233 233 234 235 235 235 235 235 234 234 233 233 232 232 231 229 228 226 224 222 220 218 215 212 210 206 204 201 198 196 192 188 184 179 174 168 165 0 0 0 0 0 0 0 0 0 0 0 0 0 0 0 0 0 0 0 0 0 0 0 0 0 0 0 0
0 0 0 0 0 0 0 0 0 0 0 0 0 0 0 0 0 0 0 0 0 0 0 0 0 0 0 0 0 0 0 159 166 174 179 183 187 191 197 201 204 207 210 213 216 219 222 224 226 228 229 230 231 233 233 234 235 235 236 236 236 236 236 235 235 235 234 234 233 232 231 230 228 226 224 222 219 217 214 211 207 205 202 199 196 193 190 185 180 175 170 166 165 0 0 0 0 0 0 0 0 0 0 0 0 0 0 0 0 0 0 0 0 0 0 0 0 0 0 0
0 0 0 0 0 0 0 0 0 0 0 0 0 0 0 0 0 0 0 0 0 0 0 0 0 0 0 0 0 0 0 160 168 178 183 186 189 193 198 202 205 209 212 215 218 221 223 225 228 229 231 232 233 234 235 235 236 236 236 237 237 237 237 236 236 236 235 235 234 233 231 230 230 228 226 223 221 218 216 213 210 207 204 200 198 195 192 186 182 177 172 167 164 0 0 0 0 0 0 0 0 0 0 0 0 0 0 0 0 0 0 0 0 0 0 0 0 0 0 0
0 0 0 0 0 0 0 0 0 0 0 0 0 0 0 0 0 0 0 0 0 0 0 0 0 0 0 0 0 0 159 163 170 182 186 189 192 195 199 203 207 211 214 217 220 222 225 226 229 230 232 233 234 235 236 236 237 237 238 238 238 238 238 237 237 237 236 236 235 234 233 232 230 228 227 225 222 220 218 216 212 209 205 202 199 196 193 188 184 179 174 168 163 159 0 0 0 0 0 0 0 0 0 0 0 0 0 0 0 0 0 0 0 0 0 0 0 0 0 0
0 0 0 0 0 0 0 0 0 0 0 0 0 0 0 0 0 0 0 0 0 0 0 0 0 0 0 0 0 0 159 166 175 184 188 191 193 197 201 205 209 212 215 218 221 223 226 228 230 231 233 234 235 236 236 237 238 238 238 238 239 238 238 238 238 237 237 237 236 235 234 233 232 230 228 226 224 221 219 217 213 211 207 204 200 197 193 189 185 182 176 170 164 160 0 0 0 0 0 0 0 0 0 0 0 0 0 0 0 0 0 0 0 0 0 0 0 0 0 0
0 0 0 0 0 0 0 0 0 0 0 0 0 0 0 0 0 0 0 0 0 0 0 0 0 0 0 0 0 157 159 169 178 186 189 192 195 199 202 206 210 213 217 219 222 224 227 229 231 233 234 235 236 237 237 238 238 239 239 239 239 239 239 239 238 238 238 237 236 236 235 234 233 231 230 228 225 223 221 218 215 212 208 205 201 198 195 192 187 184 180 173 168 164 0 0 0 0 0 0 0 0 0 0 0 0 0 0 0 0 0 0 0 0 0 0 0 0 0 0
0 0 0 0 0 0 0 0 0 0 0 0 0 0 0 0 0 0 0 0 0 0 0 0 0 0 0 0 0 156 158 167 180 187 189 192 196 201 204 207 211 214 218 221 223 226 228 230 232 233 235 236 237 237 238 239 239 239 239 240 240 240 240 239 239 239 238 238 237 236 235 234 234 232 231 229 226 224 222 219 216 213 210 206 203 200 196 192 190 186 182 176 171 165 0 0 0 0 0 0 0 0 0 0 0 0 0 0 0 0 0 0 0 0 0 0 0 0 0 0
0 0 0 0 0 0 0 0 0 0 0 0 0 0 0 0 0 0 0 0 0 0 0 0 0 0 0 0 0 155 158 166 181 187 189 192 196 201 205 208 212 216 219 222 224 226 228 230 232 234 235 237 237 238 238 239 240 240 240 240 240 240 240 240 240 239 239 238 238 237 236 235 234 233 231 229 227 225 223 220 217 214 210 207 204 201 198 194 190 186 181 177 170 165 0 0 0 0 0 0 0 0 0 0 0 0 0 0 0 0 0 0 0 0 0 0 0 0 0 0
0 0 0 0 0 0 0 0 0 0 0 0 0 0 0 0 0 0 0 0 0 0 0 0 0 0 0 0 151 152 154 163 178 185 190 193 197 202 206 209 214 217 220 223 225 227 229 231 233 234 236 237 238 238 239 239 240 240 240 240 240 240 240 240 240 240 239 239 238 238 237 236 235 234 232 230 228 226 223 221 218 215 212 208 206 202 198 194 190 186 181 176 169 164 0 0 0 0 0 0 0 0 0 0 0 0 0 0 0 0 0 0 0 0 0 0 0 0 0 0
0 0 0 0 0 0 0 0 0 0 0 0 0 0 0 0 0 0 0 0 0 0 0 0 0 0 0 0 149 149 153 164 176 185 190 195 199 203 207 211 215 218 221 223 226 228 230 232 234 235 236 237 238 239 239 240 240 241 241 241 241 241 241 240 240 240 240 239 239 238 237 237 236 234 233 231 229 227 224 222 220 216 213 210 206 203 198 195 191 187 182 174 167 162 161 0 0 0 0 0 0 0 0 0 0 0 0 0 0 0 0 0 0 0 0 0 0 0 0 0
0 0 0 0 0 0 0 0 0 0 0 0 0 0 0 0 0 0 0 0 0 0 0 0 0 0 0 0 148 151 156 164 176 185 190 195 200 204 208 212 216 219 222 224 226 229 231 232 234 235 237 238 239 239 240 240 241 241 241 241 241 241 241 241 241 241 240 240 239 239 238 237 236 235 233 232 230 228 225 223 221 218 214 211 208 203 199 195 191 187 181 174 167 162 158 0 0 0 0 0 0 0 0 0 0 0 0 0 0 0 0 0 0 0 0 0 0 0 0 0
0 0 0 0 0 0 0 0 0 0 0 0 0 0 0 0 0 0 0 0 0 0 0 0 0 0 0 0 150 154 158 165 178 185 191 196 201 205 209 213 216 220 223 225 227 229 231 233 234 236 237 238 239 240 240 241 241 241 241 241 241 241 241 241 241 241 240 240 240 239 239 238 237 236 234 233 231 229 227 224 222 219 215 212 209 205 200 196 192 187 182 175 167 161 157 0 0 0 0 0 0 0 0 0 0 0 0 0 0 0 0 0 0 0 0 0 0 0 0 0
0 0 0 0 0 0 0 0 0 0 0 0 0 0 0 0 0 0 0 0 0 0 0 0 0 0 0 0 153 158 164 170 179 186 192 197 201 205 210 214 217 220 223 225 227 230 232 234 235 237 238 239 239 240 241 241 241 241 242 242 242 242 241 241 241 241 241 241 240 240 239 239 238 236 235 233 232 230 228 225 223 220 216 213 209 206 201 196 191 187 181 175 167 161 157 0 0 0 0 0 0 0 0 0 0 0 0 0 0 0 0 0 0 0 0 0 0 0 0 0
0 0 0 0 0 0 0 0 0 0 0 0 0 0 0 0 0 0 0 0 0 0 0 0 0 0 0 0 155 161 168 173 179 186 193 197 201 205 211 215 218 222 224 227 229 231 233 234 236 237 239 239 240 240 241 241 241 242 242 242 242 242 242 242 241 241 241 241 240 240 239 239 238 237 235 234 233 231 229 227 224 221 218 214 211 207 201 196 191 187 183 175 169 163 156 153 0 0 0 0 0 0 0 0 0 0 0 0 0 0 0 0 0 0 0 0 0 0 0 0
0 0 0 0 0 0 0 0 0 0 0 0 0 0 0 0 0 0 0 0 0 0 0 0 0 0 0 152 158 166 172 175 180 186 192 197 202 207 212 215 219 223 225 227 230 232 233 235 236 238 239 240 240 240 241 241 241 242 242 242 242 242 242 242 242 241 241 241 240 240 240 239 238 237 236 234 233 232 230 228 225 222 220 216 212 208 201 195 191 187 184 177 170 163 156 153 0 0 0 0 0 0 0 0 0 0 0 0 0 0 0 0 0 0 0 0 0 0 0 0
0 0 0 0 0 0 0 0 0 0 0 0 0 0 0 0 0 0 0 0 0 0 0 0 0 0 0 150 161 169 173 176 181 187 193 198 202 208 212 217 219 224 226 228 231 232 234 236 237 238 239 240 240 241 241 241 241 242 242 242 242 242 242 242 241 241 241 241 240 240 240 239 238 237 236 235 233 232 230 228 226 224 221 217 214 209 203 196 192 188 184 177 170 163 157 154 0 0 0 0 0 0 0 0 0 0 0 0 0 0 0 0 0 0 0 0 0 0 0 0
0 0 0 0 0 0 0 0 0 0 0 0 0 0 0 0 0 0 0 0 0 0 0 0 0 0 0 148 161 169 174 177 182 187 193 197 203 208 213 218 222 224 227 230 231 233 235 236 237 238 239 240 240 241 241 241 241 241 241 241 241 242 242 241 241 241 240 240 240 240 239 239 238 236 235 234 233 232 231 228 227 224 222 219 215 212 204 197 191 186 182 176 170 163 157 154 0 0 0 0 0 0 0 0 0 0 0 0 0 0 0 0 0 0 0 0 0 0 0 0
0 0 0 0 0 0 0 0 0 0 0 0 0 0 0 0 0 0 0 0 0 0 0 0 0 0 134 141 155 169 174 177 182 188 193 198 203 209 215 220 223 226 229 230 232 233 235 235 236 238 239 239 240 241 241 241 241 241 241 241 241 241 241 241 241 240 240 240 240 239 239 238 237 236 235 234 232 231 230 229 227 225 223 220 217 213 206 199 191 185 180 176 171 165 160 157 0 0 0 0 0 0 0 0 0 0 0 0 0 0 0 0 0 0 0 0 0 0 0 0
0 0 0 0 0 0 0 0 0 0 0 0 0 0 0 0 0 0 0 0 0 0 0 0 0 0 127 132 149 164 173 177 182 187 193 199 205 211 216 221 224 227 228 231 232 233 234 235 236 237 238 239 239 240 240 240 240 241 241 241 241 241 241 240 240 240 239 239 239 238 238 237 236 235 233 232 231 230 229 228 226 225 223 220 217 213 208 200 192 186 181 177 172 166 162 159 0 0 0 0 0 0 0 0 0 0 0 0 0 0 0 0 0 0 0 0 0 0 0 0
0 0 0 0 0 0 0 0 0 0 0 0 0 0 0 0 0 0 0 0 0 0 0 0 0 0 122 127 140 159 168 175 181 187 191 199 205 213 217 222 224 227 229 230 231 232 234 234 235 236 237 238 238 239 239 240 240 240 240 241 241 241 240 239 239 239 239 238 237 237 236 235 234 234 232 231 230 229 228 227 226 224 223 220 216 213 208 201 193 187 182 178 172 167 162 159 0 0 0 0 0 0 0 0 0 0 0 0 0 0 0 0 0 0 0 0 0 0 0 0
0 0 0 0 0 0 0 0 0 0 0 0 0 0 0 0 0 0 0 0 0 0 0 0 0 0 117 122 137 151 163 171 180 185 192 199 206 213 218 222 224 226 228 229 230 232 233 233 234 235 235 236 237 237 238 239 239 239 240 240 240 240 240 240 239 239 238 237 236 235 235 233 233 232 231 230 229 228 227 226 225 223 222 220 217 213 209 201 194 187 182 177 172 167 162 157 0 0 0 0 0 0 0 0 0 0 0 0 0 0 0 0 0 0 0 0 0 0 0 0
0 0 0 0 0 0 0 0 0 0 0 0 0 0 0 0 0 0 0 0 0 0 0 0 0 0 113 119 130 147 160 171 180 185 192 200 207 213 218 221 224 226 228 229 229 231 231 232 232 233 234 234 235 235 236 237 238 238 239 240 240 240 240 239 239 238 237 236 235 234 233 232 232 231 230 230 229 228 227 225 224 222 220 218 216 213 208 203 195 187 182 178 173 167 162 158 0 0 0 0 0 0 0 0 0 0 0 0 0 0 0 0 0 0 0 0 0 0 0 0
0 0 0 0 0 0 0 0 0 0 0 0 0 0 0 0 0 0 0 0 0 0 0 0 0 0 110 114 128 145 160 173 180 185 192 200 207 213 217 220 223 225 227 228 229 230 231 231 232 232 232 233 233 234 235 236 236 237 238 239 239 239 239 239 238 237 236 234 233 233 232 231 231 230 230 230 229 228 228 225 223 221 219 217 215 212 208 203 195 188 183 178 173 167 162 158 0 0 0 0 0 0 0 0 0 0 0 0 0 0 0 0 0 0 0 0 0 0 0 0
0 0 0 0 0 0 0 0 0 0 0 0 0 0 0 0 0 0 0 0 0 0 0 0 0 0 0 113 126 143 160 173 179 185 192 201 206 212 216 219 222 224 226 227 228 230 231 231 231 231 231 231 232 232 233 235 235 236 237 238 239 239 239 238 237 236 235 233 232 231 231 230 230 229 229 228 228 228 227 226 223 220 218 216 214 211 207 202 195 188 183 178 173 167 161 157 0 0 0 0 0 0 0 0 0 0 0 0 0 0 0 0 0 0 0 0 0 0 0 0
0 0 0 0 0 0 0 0 0 0 0 0 0 0 0 0 0 0 0 0 0 0 0 0 0 0 0 117 126 143 158 172 178 184 193 201 207 211 215 218 221 223 225 226 228 228 229 229 229 229 230 230 230 231 232 233 234 236 237 238 239 239 238 238 237 235 234 232 231 230 229 229 228 227 227 227 227 226 225 224 221 219 217 215 213 210 207 202 196 189 183 178 173 166 160 156 155 0 0 0 0 0 0 0 0 0 0 0 0 0 0 0 0 0 0 0 0 0 0 0
0 0 0 0 0 0 0 0 0 0 0 0 0 0 0 0 0 0 0 0 0 0 0 0 0 0 0 125 131 145 158 171 178 185 193 201 206 210 213 217 220 222 225 226 226 227 227 227 228 227 228 229 229 229 230 232 233 235 236 237 239 239 238 238 236 235 233 232 230 229 228 228 227 226 226 226 226 226 224 222 220 218 216 214 212 209 205 202 195 190 183 177 172 166 159 155 152 148 0 0 0 0 0 0 0 0 0 0 0 0 0 0 0 0 0 0 0 0 0 0
0 0 0 0 0 0 0 0 0 0 0 0 0 0 0 0 0 0 0 0 0 0 0 0 0 0 0 130 134 144 156 172 180 186 193 201 206 209 212 215 218 222 224 224 224 226 227 227 227 227 227 228 228 228 228 230 232 234 236 238 239 239 239 238 237 234 232 230 229 228 227 227 227 226 226 226 226 226 224 222 220 219 215 213 211 209 206 202 196 189 181 176 170 164 158 152 148 145 0 0 0 0 0 0 0 0 0 0 0 0 0 0 0 0 0 0 0 0 0 0
0 0 0 0 0 0 0 0 0 0 0 0 0 0 0 0 0 0 0 0 0 0 0 0 0 0 0 133 138 145 154 169 179 186 193 201 205 209 211 214 216 220 223 223 224 226 227 227 227 227 227 228 227 227 228 229 231 233 236 238 239 240 240 239 237 235 232 230 228 227 227 227 227 227 227 227 226 225 224 223 222 219 216 213 211 209 206 201 195 188 180 172 167 161 156 149 145 142 139 0 0 0 0 0 0 0 0 0 0 0 0 0 0 0 0 0 0 0 0 0
0 0 0 0 0 0 0 0 0 0 0 0 0 0 0 0 0 0 0 0 0 0 0 0 0 0 0 136 141 148 155 166 177 184 193 200 205 208 211 213 215 219 222 223 225 226 227 228 228 228 228 228 228 228 228 229 231 233 236 239 240 241 241 240 239 236 233 230 229 228 227 227 227 228 228 228 227 226 225 224 221 218 216 214 212 210 206 202 194 186 177 169 163 158 153 148 143 139 136 0 0 0 0 0 0 0 0 0 0 0 0 0 0 0 0 0 0 0 0 0
0 0 0 0 0 0 0 0 0 0 0 0 0 0 0 0 0 0 0 0 0 0 0 0 0 0 0 138 141 146 151 162 174 180 190 200 206 208 211 214 216 218 220 223 225 227 228 228 229 229 229 229 228 228 229 230 231 234 237 240 241 242 242 241 240 236 233 231 229 228 228 228 228 228 228 227 227 226 224 223 220 218 216 214 212 210 207 203 194 185 174 165 159 154 149 147 142 138 134 0 0 0 0 0 0 0 0 0 0 0 0 0 0 0 0 0 0 0 0 0
0 0 0 0 0 0 0 0 0 0 0 0 0 0 0 0 0 0 0 0 0 0 0 0 0 0 0 137 139 141 147 159 167 173 184 199 205 209 211 214 216 218 220 222 224 225 227 228 228 228 229 229 229 229 229 231 233 236 239 241 243 244 244 243 242 239 235 232 230 229 228 228 227 227 227 226 225 224 223 222 220 218 217 215 213 211 208 203 193 182 172 163 157 152 147 143 141 137 134 0 0 0 0 0 0 0 0 0 0 0 0 0 0 0 0 0 0 0 0 0
0 0 0 0 0 0 0 0 0 0 0 0 0 0 0 0 0 0 0 0 0 0 0 0 0 0 135 135 136 138 146 154 161 165 179 196 206 210 212 215 216 219 220 222 223 225 226 227 227 228 228 229 229 230 231 233 235 237 241 243 244 245 245 244 243 241 238 235 232 230 229 228 228 227 226 226 225 224 223 222 221 219 217 216 214 212 209 202 192 180 172 163 155 150 146 141 139 136 133 0 0 0 0 0 0 0 0 0 0 0 0 0 0 0 0 0 0 0 0 0
0 0 0 0 0 0 0 0 0 0 0 0 0 0 0 0 0 0 0 0 0 0 0 0 0 0 135 135 135 138 144 150 155 161 173 193 207 210 213 216 218 219 221 223 224 225 226 227 227 228 228 229 230 231 233 234 237 239 243 245 246 246 246 246 245 242 240 237 235 232 231 230 229 228 227 226 225 224 223 223 222 220 218 217 215 213 208 201 193 181 171 161 154 149 144 140 137 135 133 0 0 0 0 0 0 0 0 0 0 0 0 0 0 0 0 0 0 0 0 0
0 0 0 0 0 0 0 0 0 0 0 0 0 0 0 0 0 0 0 0 0 0 0 0 0 0 134 135 135 138 142 146 151 157 170 186 206 211 214 217 219 220 223 224 224 226 227 227 228 229 230 231 231 232 234 236 238 241 244 245 246 247 247 247 246 244 242 239 236 234 232 231 230 229 228 227 226 226 225 224 223 221 220 218 216 213 208 200 191 181 169 161 154 149 144 140 136 134 132 132 0 0 0 0 0 0 0 0 0 0 0 0 0 0 0 0 0 0 0 0
0 0 0 0 0 0 0 0 0 0 0 0 0 0 0 0 0 0 0 0 0 0 0 0 0 0 133 135 137 138 142 144 149 154 163 187 205 212 216 218 220 222 223 225 226 227 228 229 230 230 231 232 233 234 236 237 240 242 245 247 248 248 248 247 246 245 242 240 237 235 233 233 232 231 230 229 228 227 227 226 224 223 221 219 217 214 208 199 189 179 170 161 154 150 144 140 136 133 132 0 0 0 0 0 0 0 0 0 0 0 0 0 0 0 0 0 0 0 0 0
0 0 0 0 0 0 0 0 0 0 0 0 0 0 0 0 0 0 0 0 0 0 0 0 0 0 134 134 136 139 142 144 145 151 158 187 207 213 217 219 222 224 225 227 228 229 230 230 231 232 233 233 234 235 236 238 241 244 247 248 250 250 250 249 248 246 243 240 237 236 234 233 232 231 231 230 229 228 228 227 226 224 222 220 218 215 209 200 190 178 167 160 154 150 144 139 136 133 132 0 0 0 0 0 0 0 0 0 0 0 0 0 0 0 0 0 0 0 0 0
0 0 0 0 0 0 0 0 0 0 0 0 0 0 0 0 0 0 0 0 0 0 0 0 0 135 135 135 137 140 141 141 142 147 158 186 208 214 217 220 223 225 226 228 229 230 230 231 232 232 233 234 234 235 237 239 241 245 249 251 251 252 251 251 249 247 244 241 238 236 235 234 233 232 231 231 230 229 228 227 226 224 223 221 219 216 210 200 188 177 168 160 153 150 146 140 136 133 131 130 0 0 0 0 0 0 0 0 0 0 0 0 0 0 0 0 0 0 0 0
0 0 0 0 0 0 0 0 0 0 0 0 0 0 0 0 0 0 0 0 0 0 0 0 0 136 135 135 138 139 140 140 140 148 158 185 210 215 218 221 224 226 227 228 230 231 231 232 232 233 233 234 235 236 237 239 243 247 250 252 253 253 253 252 251 249 245 241 238 235 234 234 233 232 232 231 230 230 229 228 226 225 223 222 220 216 210 199 190 179 168 160 154 151 148 142 138 135 132 0 0 0 0 0 0 0 0 0 0 0 0 0 0 0 0 0 0 0 0 0
0 0 0 0 0 0 0 0 0 0 0 0 0 0 0 0 0 0 0 0 0 0 0 0 136 136 135 136 138 139 139 139 140 146 156 188 209 215 219 222 224 226 228 229 230 231 232 232 233 233 233 234 234 236 238 240 244 248 251 253 254 254 254 253 252 250 246 243 240 236 234 233 232 232 232 231 231 230 229 228 227 225 224 222 219 215 209 202 190 180 169 160 155 151 147 142 139 137 134 0 0 0 0 0 0 0 0 0 0 0 0 0 0 0 0 0 0 0 0 0
0 0 0 0 0 0 0 0 0 0 0 0 0 0 0 0 0 0 0 0 0 0 0 131 135 136 135 136 138 140 140 140 141 148 156 189 210 215 219 222 224 227 228 229 230 231 232 232 233 233 233 234 234 236 240 243 246 249 252 253 254 254 254 253 252 250 248 245 241 238 234 233 232 232 231 231 231 230 229 228 227 226 224 222 219 216 211 201 193 182 171 163 156 151 146 143 141 137 135 0 0 0 0 0 0 0 0 0 0 0 0 0 0 0 0 0 0 0 0 0
0 0 0 0 0 0 0 0 0 0 0 0 0 0 0 0 0 0 0 0 0 0 0 129 134 136 136 136 140 142 142 141 143 148 155 179 210 215 219 222 225 227 228 229 230 231 232 232 232 233 233 233 234 237 243 245 247 249 252 253 254 255 254 253 252 251 248 246 243 238 234 232 232 231 231 231 230 230 229 228 226 225 224 221 219 216 211 202 192 182 171 164 159 153 149 146 143 139 136 0 0 0 0 0 0 0 0 0 0 0 0 0 0 0 0 0 0 0 0 0
0 0 0 0 0 0 0 0 0 0 0 0 0 0 0 0 0 0 0 0 0 118 124 129 133 136 137 137 140 143 144 143 145 150 161 185 208 215 219 222 224 226 228 229 230 231 231 232 232 232 232 233 234 237 243 246 248 250 251 252 254 254 254 253 251 250 248 246 243 238 233 232 231 231 231 230 230 230 229 228 226 225 224 222 219 216 209 199 191 182 171 163 158 154 151 148 145 141 138 0 0 0 0 0 0 0 0 0 0 0 0 0 0 0 0 0 0 0 0 0
0 0 0 0 0 0 0 0 0 0 0 0 0 0 0 0 0 0 0 0 103 112 119 126 132 136 138 139 142 145 149 149 149 155 165 191 207 214 218 221 224 226 227 228 230 230 231 231 232 232 232 232 233 236 241 244 246 247 249 251 253 253 252 251 249 248 246 245 242 236 233 231 231 230 230 230 230 229 228 227 226 225 223 221 218 214 209 200 189 179 170 163 159 155 152 149 145 142 140 0 0 0 0 0 0 0 0 0 0 0 0 0 0 0 0 0 0 0 0 0
0 0 0 0 0 0 0 0 0 0 0 0 0 0 0 0 0 0 85 89 96 104 113 122 132 136 138 140 142 146 151 153 155 158 167 189 205 213 218 221 224 226 227 228 229 230 231 231 231 231 232 232 233 234 238 240 241 243 246 248 250 251 249 246 245 243 242 240 238 235 233 231 230 230 229 229 229 229 228 227 225 224 222 219 217 214 207 197 186 178 170 163 159 154 151 149 145 142 139 0 0 0 0 0 0 0 0 0 0 0 0 0 0 0 0 0 0 0 0 0
0 0 0 0 0 0 0 0 0 0 0 0 0 0 0 0 74 80 81 83 90 96 106 118 129 135 138 140 142 146 151 154 156 159 167 182 202 212 217 221 223 225 226 227 229 229 230 230 231 231 231 232 233 234 235 237 237 239 242 244 246 247 245 243 240 239 238 236 235 233 232 231 230 229 228 228 228 228 227 226 225 223 222 219 216 212 204 195 185 174 167 161 158 154 150 147 144 142 139 0 0 0 0 0 0 0 0 0 0 0 0 0 0 0 0 0 0 0 0 0
0 0 0 0 0 0 0 0 0 0 0 0 0 0 0 65 70 75 77 79 83 88 98 112 126 134 139 141 143 147 151 154 156 158 164 175 195 210 215 219 222 224 226 227 228 229 229 230 230 230 231 232 233 234 235 236 237 239 240 241 243 243 242 241 240 239 238 236 234 233 232 231 230 229 228 228 227 227 226 225 224 222 220 218 215 209 201 193 183 173 164 159 156 154 151 147 144 141 139 0 0 0 0 0 0 0 0 0 0 0 0 0 0 0 0 0 0 0 0 0
0 0 0 0 0 0 0 0 0 0 0 0 0 56 60 64 67 71 75 77 80 82 89 103 120 131 139 141 144 147 151 153 156 158 161 169 188 208 214 218 221 223 224 226 227 228 229 229 230 230 231 232 233 235 236 237 239 240 241 241 241 242 241 241 240 239 238 237 235 234 232 231 229 228 228 227 227 226 226 224 223 222 220 218 214 209 199 189 179 171 163 157 155 153 150 147 144 141 137 134 0 0 0 0 0 0 0 0 0 0 0 0 0 0 0 0 0 0 0 0
0 0 0 0 0 0 0 0 0 0 0 0 48 51 58 61 68 71 73 75 77 78 83 99 114 129 138 142 145 147 150 153 155 158 160 165 184 205 212 216 219 221 224 225 226 227 228 228 229 230 231 232 234 236 237 238 240 241 241 242 242 242 242 242 241 241 239 238 237 235 233 231 230 228 227 227 226 225 225 223 222 220 218 216 212 205 198 187 180 169 161 157 154 151 149 145 142 138 133 128 121 0 0 0 0 0 0 0 0 0 0 0 0 0 0 0 0 0 0 0
0 0 0 0 0 0 0 0 0 0 0 0 44 49 55 60 67 71 73 74 75 75 79 94 112 127 136 142 145 148 150 152 155 157 159 162 176 199 209 214 218 221 222 224 225 226 227 228 229 230 231 232 234 237 238 239 240 242 242 243 243 243 243 243 242 242 241 239 238 236 234 232 230 228 227 226 225 224 223 222 221 219 217 214 212 205 194 185 178 168 161 157 154 151 147 143 139 134 128 121 114 107 0 0 0 0 0 0 0 0 0 0 0 0 0 0 0 0 0 0
0 0 0 0 0 0 0 0 0 0 0 36 40 46 52 57 64 69 71 72 72 72 77 88 103 119 131 138 144 147 150 151 154 156 158 160 168 189 205 213 217 219 221 223 224 225 226 226 228 229 230 232 235 237 239 240 241 242 243 243 243 243 243 243 242 241 241 239 238 236 235 233 230 228 227 226 224 223 222 220 220 217 215 213 210 203 195 185 177 167 161 157 153 149 144 139 134 129 122 115 107 99 93 0 0 0 0 0 0 0 0 0 0 0 0 0 0 0 0 0
0 0 0 0 0 0 0 0 0 0 0 35 37 42 47 52 60 64 65 66 67 70 75 84 95 109 123 132 140 145 148 150 153 154 156 159 163 178 198 211 215 217 220 221 223 224 225 226 227 228 230 233 235 237 239 239 240 242 242 243 243 243 243 242 242 241 240 239 238 236 234 233 230 228 226 225 224 223 222 220 218 216 214 212 208 201 194 186 177 168 162 157 153 147 142 136 129 123 116 109 101 92 85 79 0 0 0 0 0 0 0 0 0 0 0 0 0 0 0 0
0 0 0 0 0 0 0 0 0 0 0 29 32 36 42 48 54 57 57 59 61 64 70 78 84 93 110 122 132 139 145 148 151 153 157 160 162 172 192 209 213 216 218 220 222 223 224 225 226 227 229 232 234 236 237 237 238 238 240 241 241 241 240 240 239 239 238 237 236 235 233 231 229 226 225 223 222 222 220 219 217 216 213 211 207 202 193 185 177 168 163 158 153 146 140 133 125 118 110 102 94 87 80 75 0 0 0 0 0 0 0 0 0 0 0 0 0 0 0 0
0 0 0 0 0 0 0 0 0 0 0 24 26 30 36 42 46 48 50 52 53 57 63 68 72 77 91 106 121 132 140 144 147 152 156 160 163 169 191 207 211 214 217 219 220 222 223 224 224 225 226 228 231 233 234 234 235 236 236 237 238 237 238 237 236 235 233 232 231 230 229 228 226 224 222 222 221 220 219 218 216 214 213 209 205 200 192 184 176 168 164 160 151 145 137 128 121 112 103 95 89 83 76 72 69 0 0 0 0 0 0 0 0 0 0 0 0 0 0 0
0 0 0 0 0 0 0 0 0 0 0 18 21 25 30 37 41 43 44 45 47 50 53 56 59 63 75 89 108 125 133 136 141 147 153 158 160 164 182 203 211 213 215 217 219 220 221 222 223 223 223 224 226 229 231 230 230 230 232 234 235 235 234 234 233 231 228 228 227 226 224 224 222 221 220 220 220 219 218 217 215 214 211 208 203 197 191 182 174 169 163 158 150 144 135 126 117 108 100 92 85 80 75 71 68 0 0 0 0 0 0 0 0 0 0 0 0 0 0 0
0 0 0 0 0 0 0 0 0 0 0 13 16 21 27 34 37 38 39 40 40 41 44 46 47 48 58 72 93 112 123 128 133 140 148 154 156 159 175 196 208 212 214 216 217 219 220 221 221 222 222 222 225 227 230 230 230 230 231 232 232 232 232 232 231 229 227 228 227 226 224 223 221 220 219 219 219 218 217 216 214 213 210 207 203 197 188 179 173 166 162 157 150 141 132 122 113 105 96 88 82 77 73 69 67 0 0 0 0 0 0 0 0 0 0 0 0 0 0 0
0 0 0 0 0 0 0 0 0 0 0 9 12 18 24 29 32 33 32 33 31 32 35 35 35 38 44 55 75 96 112 120 126 137 146 152 154 156 167 190 204 210 213 215 216 218 220 220 221 221 222 223 226 229 230 233 233 233 234 234 234 234 233 233 232 232 232 232 231 229 227 225 223 221 219 218 218 217 216 215 213 211 209 206 201 194 186 178 170 163 158 153 147 139 129 119 110 101 93 86 80 75 71 68 65 0 0 0 0 0 0 0 0 0 0 0 0 0 0 0
0 0 0 0 0 0 0 0 0 0 0 7 11 15 22 25 27 27 26 25 24 24 23 26 28 32 37 47 60 80 100 112 122 131 142 150 153 154 162 187 203 209 211 213 215 217 218 219 220 221 222 224 227 230 232 234 235 237 237 237 237 236 236 235 235 235 235 235 234 232 230 227 224 221 219 218 217 216 215 213 212 210 208 204 201 194 183 174 166 159 155 149 142 135 126 115 106 97 90 83 77 73 70 65 62 59 0 0 0 0 0 0 0 0 0 0 0 0 0 0
0 0 0 0 0 0 0 0 0 0 0 8 11 16 20 23 23 22 19 18 15 13 14 17 23 30 34 40 46 60 82 101 113 125 139 147 151 154 161 180 200 206 209 211 214 216 217 218 219 221 222 224 227 229 233 235 236 238 238 238 238 238 237 237 237 237 237 236 235 233 230 227 223 221 219 217 216 215 214 212 210 208 205 203 198 192 183 171 161 155 152 0 0 0 120 113 105 97 89 81 76 71 68 63 59 55 0 0 0 0 0 0 0 0 0 0 0 0 0 0
0 0 0 0 0 0 0 0 0 0 0 11 13 16 19 20 20 19 15 12 9 6 7 11 21 28 32 36 41 45 61 80 100 117 133 144 150 155 161 177 199 204 207 210 212 215 216 217 218 220 221 223 225 227 231 234 236 237 238 238 238 238 238 238 238 237 237 236 234 232 229 227 224 221 218 217 215 214 213 211 209 207 204 200 196 188 181 170 160 153 0 0 0 0 0 0 0 98 88 80 73 69 65 60 56 53 0 0 0 0 0 0 0 0 0 0 0 0 0 0
0 0 0 0 0 0 0 0 0 0 0 13 15 17 18 19 19 16 11 7 5 4 5 10 21 27 30 33 36 39 46 62 83 104 123 136 144 153 161 173 193 201 205 208 211 213 215 216 218 219 221 222 224 226 229 231 234 235 236 237 238 237 237 237 237 237 235 234 232 230 228 225 222 220 218 216 215 213 212 210 207 204 202 199 193 187 180 174 0 0 0 0 0 0 0 0 0 0 0 0 71 67 63 59 55 0 0 0 0 0 0 0 0 0 0 0 0 0 0 0
0 0 0 0 0 0 0 0 0 0 0 15 15 16 17 18 16 13 9 5 3 3 3 9 18 27 30 32 33 35 39 47 65 87 106 122 137 147 166 176 191 199 204 206 209 212 213 215 217 218 220 222 223 225 227 229 230 232 233 234 236 235 235 235 235 234 233 231 229 227 225 223 221 219 217 215 213 212 211 208 205 202 199 195 192 0 0 0 0 0 0 0 0 0 0 0 0 0 0 0 0 0 0 0 0 0 0 0 0 0 0 0 0 0 0 0 0 0 0 0
0 0 0 0 0 0 0 0 0 0 0 20 19 18 17 16 15 12 8 5 3 2 3 8 19 27 31 32 32 33 36 41 51 69 85 102 120 133 180 180 188 195 200 204 207 210 212 213 215 217 219 221 222 223 226 227 228 229 229 231 232 233 233 231 231 230 230 228 226 225 223 222 220 218 216 214 213 211 209 206 203 200 197 193 191 0 0 0 0 0 0 0 0 0 0 0 0 0 0 0 0 0 0 0 0 0 0 0 0 0 0 0 0 0 0 0 0 0 0 0
0 0 0 0 0 0 0 0 0 0 0 0 22 21 17 14 14 10 6 4 2 1 2 8 17 25 30 32 33 34 35 37 42 52 66 82 101 118 0 0 186 189 195 201 205 207 211 212 214 216 220 220 221 223 225 226 227 228 229 229 230 230 230 230 229 228 227 226 225 224 223 221 219 217 215 214 212 209 208 205 202 198 194 191 0 0 0 0 0 0 0 0 0 0 0 0 0 0 0 0 0 0 0 0 0 0 0 0 0 0 0 0 0 0 0 0 0 0 0 0
0 0 0 0 0 0 0 0 0 0 0 0 0 0 17 14 12 9 5 3 1 2 4 9 16 23 28 32 33 34 35 35 37 42 50 64 82 0 0 0 181 183 191 197 202 205 209 211 213 215 217 220 221 222 224 225 226 227 228 229 229 229 229 229 228 228 227 226 225 223 222 221 219 217 214 212 210 208 205 202 199 194 191 189 0 0 0 0 0 0 0 0 0 0 0 0 0 0 0 0 0 0 0 0 0 0 0 0 0 0 0 0 0 0 0 0 0 0 0 0
0 0 0 0 0 0 0 0 0 0 0 0 0 0 0 0 0 0 0 0 0 0 0 0 18 21 28 30 32 32 34 34 35 37 42 49 65 0 0 0 0 177 185 192 197 202 206 209 212 214 217 219 221 222 223 225 226 227 228 228 229 229 229 229 228 227 227 226 225 223 222 220 218 216 214 211 208 205 202 199 195 191 187 184 0 0 0 0 0 0 0 0 0 0 0 0 0 0 0 0 0 0 0 0 0 0 0 0 0 0 0 0 0 0 0 0 0 0 0 0
0 0 0 0 0 0 0 0 0 0 0 0 0 0 0 0 0 0 0 0 0 0 0 0 0 0 0 30 30 31 32 32 32 34 36 42 51 0 0 0 0 169 174 184 192 198 205 207 209 212 215 218 220 222 223 225 226 226 227 228 228 228 228 228 228 227 226 226 225 223 222 220 218 215 212 210 206 202 198 195 192 187 183 181 0 0 0 0 0 0 0 0 0 0 0 0 0 0 0 0 0 0 0 0 0 0 0 0 0 0 0 0 0 0 0 0 0 0 0 0
0 0 0 0 0 0 0 0 0 0 0 0 0 0 0 0 0 0 0 0 0 0 0 0 0 0 0 0 0 31 31 30 29 30 32 36 42 0 0 0 0 160 166 173 185 193 199 203 208 210 214 218 220 221 222 224 225 226 227 227 228 228 228 228 227 227 226 226 224 223 221 219 217 214 211 207 204 199 194 191 187 183 179 175 0 0 0 0 0 0 0 0 0 0 0 0 0 0 0 0 0 0 0 0 0 0 0 0 0 0 0 0 0 0 0 0 0 0 0 0
0 0 0 0 0 0 0 0 0 0 0 0 0 0 0 0 0 0 0 0 0 0 0 0 0 0 0 0 0 0 0 28 27 28 0 0 0 0 0 0 0 152 155 160 171 183 190 198 203 208 212 216 218 220 222 223 225 226 226 227 227 227 227 227 227 226 226 225 224 222 221 219 216 211 208 204 200 194 189 184 180 174 170 167 165 0 0 0 0 0 0 0 0 0 0 0 0 0 0 0 0 0 0 0 0 0 0 0 0 0 0 0 0 0 0 0 0 0 0 0
0 0 0 0 0 0 0 0 0 0 0 0 0 0 0 0 0 0 0 0 0 0 0 0 0 0 0 0 0 0 0 0 0 0 0 0 0 0 0 0 0 147 148 152 157 167 177 188 196 202 208 213 217 220 222 223 224 225 226 226 226 226 226 226 226 225 225 224 223 222 220 217 213 210 204 199 193 188 181 175 171 166 161 159 159 0 0 0 0 0 0 0 0 0 0 0 0 0 0 0 0 0 0 0 0 0 0 0 0 0 0 0 0 0 0 0 0 0 0 0
0 0 0 0 0 0 0 0 0 0 0 0 0 0 0 0 0 0 0 0 0 0 0 0 0 0 0 0 0 0 0 0 0 0 0 0 0 0 0 0 0 143 145 148 151 157 163 172 182 191 201 207 213 218 220 222 223 224 225 225 225 225 225 225 225 224 224 223 222 220 218 215 210 205 199 193 188 181 174 169 164 160 156 153 154 154 0 0 0 0 0 0 0 0 0 0 0 0 0 0 0 0 0 0 0 0 0 0 0 0 0 0 0 0 0 0 0 0 0 0
0 0 0 0 0 0 0 0 0 0 0 0 0 0 0 0 0 0 0 0 0 0 0 0 0 0 0 0 0 0 0 0 0 0 0 0 0 0 0 0 0 139 142 146 149 153 156 162 168 177 186 197 206 213 218 220 221 222 223 223 222 222 222 222 223 222 222 221 220 218 215 210 205 199 192 185 180 174 168 163 159 156 153 150 148 145 0 0 0 0 0 0 0 0 0 0 0 0 0 0 0 0 0 0 0 0 0 0 0 0 0 0 0 0 0 0 0 0 0 0
0 0 0 0 0 0 0 0 0 0 0 0 0 0 0 0 0 0 0 0 0 0 0 0 0 0 0 0 0 0 0 0 0 0 0 0 0 0 0 0 0 135 139 144 148 151 154 157 161 166 172 182 193 202 210 215 218 219 219 219 218 218 218 218 218 218 219 218 216 213 209 205 198 191 184 177 171 167 163 159 156 153 150 148 145 141 138 0 0 0 0 0 0 0 0 0 0 0 0 0 0 0 0 0 0 0 0 0 0 0 0 0 0 0 0 0 0 0 0 0
0 0 0 0 0 0 0 0 0 0 0 0 0 0 0 0 0 0 0 0 0 0 0 0 0 0 0 0 0 0 0 0 0 0 0 0 0 0 0 0 0 129 137 143 148 150 152 154 157 160 165 170 176 186 197 206 211 214 213 213 212 211 211 211 213 213 213 211 209 206 202 196 190 183 175 170 166 162 159 157 155 153 150 147 144 140 136 132 0 0 0 0 0 0 0 0 0 0 0 0 0 0 0 0 0 0 0 0 0 0 0 0 0 0 0 0 0 0 0 0
0 0 0 0 0 0 0 0 0 0 0 0 0 0 0 0 0 0 0 0 0 0 0 0 0 0 0 0 0 0 0 0 0 0 0 0 0 0 0 0 0 124 133 142 147 150 152 154 155 157 161 162 167 174 183 192 199 203 205 206 205 204 202 204 205 204 204 203 201 198 193 187 181 175 169 165 162 159 157 155 153 151 149 146 142 138 134 129 125 0 0 0 0 0 0 0 0 0 0 0 0 0 0 0 0 0 0 0 0 0 0 0 0 0 0 0 0 0 0 0
0 0 0 0 0 0 0 0 0 0 0 0 0 0 0 0 0 0 0 0 0 0 0 0 0 0 0 0 0 0 0 0 0 0 0 0 0 0 0 0 116 120 131 141 146 149 151 153 155 156 157 160 162 166 173 180 184 190 194 196 197 197 195 195 195 195 193 192 190 187 184 179 174 168 164 161 159 157 156 154 152 150 148 145 141 137 133 128 121 116 0 0 0 0 0 0 0 0 0 0 0 0 0 0 0 0 0 0 0 0 0 0 0 0 0 0 0 0 0 0
0 0 0 0 0 0 0 0 0 0 0 0 0 0 0 0 0 0 0 0 0 0 0 0 0 0 0 0 0 0 0 0 0 0 0 0 0 0 0 109 113 119 128 138 144 148 150 152 153 155 157 159 161 163 167 172 176 179 181 181 184 185 185 182 183 183 181 182 180 179 174 171 168 164 162 159 158 157 155 153 151 150 148 145 142 138 134 127 120 113 0 0 0 0 0 0 0 0 0 0 0 0 0 0 0 0 0 0 0 0 0 0 0 0 0 0 0 0 0 0
0 0 0 0 0 0 0 0 0 0 0 0 0 0 0 0 0 0 0 0 0 0 0 0 0 0 0 0 0 0 0 0 0 0 0 0 0 0 0 108 113 120 129 136 142 147 149 152 153 154 156 158 159 160 163 167 170 172 173 174 173 173 172 173 173 172 171 173 172 171 169 167 164 162 160 159 157 156 154 152 151 149 147 144 141 137 133 127 121 115 110 108 0 0 0 0 0 0 0 0 0 0 0 0 0 0 0 0 0 0 0 0 0 0 0 0 0 0 0 0
0 0 0 0 0 0 0 0 0 0 0 0 0 0 0 0 0 0 0 0 0 0 0 0 0 0 0 0 0 0 0 0 0 0 0 0 0 0 110 110 112 118 128 136 142 146 149 151 153 154 155 157 159 160 161 163 165 167 168 168 168 168 168 169 168 168 168 167 168 167 165 164 162 160 159 158 156 155 154 151 150 148 146 143 139 134 131 127 118 113 109 108 0 0 0 0 0 0 0 0 0 0 0 0 0 0 0 0 0 0 0 0 0 0 0 0 0 0 0 0
0 0 0 0 0 0 0 0 0 0 0 0 0 0 0 0 0 0 0 0 0 0 0 0 0 0 0 0 0 0 0 0 0 0 0 0 0 113 113 112 112 117 128 136 142 146 149 150 152 153 155 157 158 159 161 163 164 165 165 166 167 167 167 167 167 167 167 166 166 165 163 162 161 159 158 157 155 154 152 151 149 147 146 143 139 134 130 125 118 113 110 108 109 0 0 0 0 0 0 0 0 0 0 0 0 0 0 0 0 0 0 0 0 0 0 0 0 0 0 0
0 0 0 0 0 0 0 0 0 0 0 0 0 0 0 0 0 0 0 0 0 0 0 0 0 0 0 0 0 0 0 0 0 0 0 0 115 116 116 114 114 118 129 135 141 145 148 150 151 152 154 156 158 158 160 162 163 164 165 166 166 166 167 167 167 166 166 165 165 164 163 162 160 158 157 155 154 152 151 150 148 147 145 143 138 133 129 125 118 113 111 110 111 113 0 0 0 0 0 0 0 0 0 0 0 0 0 0 0 0 0 0 0 0 0 0 0 0 0 0
0 0 0 0 0 0 0 0 0 0 0 0 0 0 0 0 0 0 0 0 0 0 0 0 0 0 0 0 0 0 0 0 0 0 0 117 119 120 118 116 116 120 127 131 140 145 147 149 151 152 154 155 157 158 159 161 162 163 164 165 165 166 166 166 166 166 166 165 164 162 161 160 159 157 156 155 154 152 150 149 148 146 144 141 138 132 127 124 117 115 114 113 114 115 116 0 0 0 0 0 0 0 0 0 0 0 0 0 0 0 0 0 0 0 0 0 0 0 0 0
0 0 0 0 0 0 0 0 0 0 0 0 0 0 0 0 0 0 0 0 0 0 0 0 0 0 0 0 0 0 0 0 0 0 116 119 122 122 120 118 118 119 124 131 140 145 147 148 150 151 153 154 156 157 158 160 161 163 164 164 165 166 166 166 166 165 165 164 163 162 161 159 158 157 156 154 152 151 150 148 146 145 143 140 136 132 126 122 118 116 116 116 117 117 117 0 0 0 0 0 0 0 0 0 0 0 0 0 0 0 0 0 0 0 0 0 0 0 0 0
0 0 0 0 0 0 0 0 0 0 0 0 0 0 0 0 0 0 0 0 0 0 0 0 0 0 0 0 0 0 0 0 0 0 116 122 125 124 122 121 120 122 124 132 140 144 146 148 150 151 152 154 155 156 157 159 160 162 163 164 164 165 165 165 165 165 164 163 163 161 160 159 157 156 155 153 151 150 149 148 147 144 143 141 137 132 126 121 118 118 118 119 120 120 119 118 0 0 0 0 0 0 0 0 0 0 0 0 0 0 0 0 0 0 0 0 0 0 0 0
0 0 0 0 0 0 0 0 0 0 0 0 0 0 0 0 0 0 0 0 0 0 0 0 0 0 0 0 0 0 0 0 0 113 119 126 127 126 123 122 122 123 125 132 140 144 145 148 149 150 151 153 154 156 157 158 159 161 162 163 163 164 164 165 164 164 163 162 161 160 159 157 156 154 154 152 151 150 149 147 146 144 142 140 137 133 127 122 120 119 120 120 122 123 122 119 116 0 0 0 0 0 0 0 0 0 0 0 0 0 0 0 0 0 0 0 0 0 0 0
0 0 0 0 0 0 0 0 0 0 0 0 0 0 0 0 0 0 0 0 0 0 0 0 0 0 0 0 0 0 0 0 113 116 122 129 130 128 124 123 123 124 128 135 140 143 145 147 148 150 151 152 153 155 156 157 158 160 160 161 162 163 163 163 163 162 162 162 160 159 158 156 155 154 152 151 151 150 148 147 145 144 141 139 136 132 127 123 121 120 122 123 124 126 124 121 116 113 0 0 0 0 0 0 0 0 0 0 0 0 0 0 0 0 0 0 0 0 0 0
0 0 0 0 0 0 0 0 0 0 0 0 0 0 0 0 0 0 0 0 0 0 0 0 0 0 0 0 0 0 0 109 114 119 126 131 132 129 126 124 123 124 128 135 140 142 144 146 148 149 151 152 153 154 155 156 157 158 159 160 161 161 162 162 162 161 161 160 159 158 157 156 155 153 152 151 150 148 147 146 145 143 141 138 135 132 127 123 121 121 122 125 127 128 127 123 119 114 109 0 0 0 0 0 0 0 0 0 0 0 0 0 0 0 0 0 0 0 0 0
0 0 0 0 0 0 0 0 0 0 0 0 0 0 0 0 0 0 0 0 0 0 0 0 0 0 0 0 0 0 106 110 117 122 129 134 134 132 127 124 123 123 129 135 139 141 144 145 148 149 150 151 152 153 154 155 156 157 158 159 160 160 160 161 160 160 159 159 158 157 156 154 153 153 151 150 149 148 147 145 144 142 140 137 135 132 129 125 122 122 124 127 130 131 129 126 122 117 110 104 100 0 0 0 0 0 0 0 0 0 0 0 0 0 0 0 0 0 0 0
0 0 0 0 0 0 0 0 0 0 0 0 0 0 0 0 0 0 0 0 0 0 0 0 0 0 0 0 0 101 105 114 121 126 131 135 136 133 128 123 122 125 130 134 137 141 143 145 147 148 149 151 152 153 154 155 156 156 158 158 159 159 160 159 159 159 159 158 157 156 155 153 153 152 151 150 148 147 146 145 143 141 139 137 135 132 129 126 123 124 126 129 132 133 132 129 124 118 112 107 101 96 0 0 0 0 0 0 0 0 0 0 0 0 0 0 0 0 0 0
0 0 0 0 0 0 0 0 0 0 0 0 0 0 0 0 0 0 0 0 0 0 0 0 0 0 0 0 92 98 108 115 121 128 133 137 138 134 128 122 122 125 130 134 136 140 142 144 146 147 149 150 152 153 153 154 154 156 157 157 158 158 159 159 158 158 158 157 156 155 154 153 152 151 150 149 148 146 145 144 142 140 139 136 134 132 130 127 124 125 127 131 135 135 134 130 127 121 115 109 104 100 94 89 88 0 0 0 0 0 0 0 0 0 0 0 0 0 0 0
0 0 0 0 0 0 0 0 0 0 0 0 0 0 0 0 0 0 0 0 0 0 0 0 0 0 90 92 95 101 110 118 123 129 136 139 140 136 129 124 122 125 130 133 137 139 141 143 145 147 148 149 151 152 152 154 154 155 156 157 157 158 158 158 158 157 157 157 156 155 154 153 152 150 149 148 147 146 144 143 141 140 138 135 133 131 129 127 126 127 129 133 136 136 135 132 128 124 119 113 108 105 99 94 92 90 90 0 0 0 0 0 0 0 0 0 0 0 0 0
0 0 0 0 0 0 0 0 0 0 0 0 0 0 0 0 0 0 0 0 0 0 0 0 90 93 95 100 103 109 115 120 124 131 137 141 141 136 130 125 123 126 130 134 137 139 140 143 144 146 148 149 150 152 152 153 154 155 0 0 0 0 0 0 0 0 0 0 0 0 153 152 151 150 149 148 146 145 144 143 141 139 138 136 133 131 128 127 127 128 131 135 137 137 136 134 130 125 121 116 114 109 103 101 97 96 95 95 93 92 0 0 0 0 0 0 0 0 0 0
0 0 0 0 0 0 0 0 0 0 0 0 0 0 0 0 0 0 0 0 0 0 0 87 94 99 101 105 109 115 120 123 126 132 137 0 0 136 131 126 125 126 131 134 137 0 0 0 0 0 0 0 0 0 0 0 0 0 0 0 0 0 0 0 0 0 0 0 0 0 0 0 0 0 0 0 0 0 0 0 0 0 0 0 0 130 128 127 127 128 130 0 0 0 0 0 129 126 123 119 115 111 107 103 102 100 100 99 98 94 90 0 0 0 0 0 0 0 0 0
0 0 0 0 0 0 0 0 0 0 0 0 0 0 0 0 0 0 0 0 0 0 70 87 100 104 106 108 112 119 121 0 0 0 0 0 0 0 0 0 0 0 0 0 0 0 0 0 0 0 0 0 0 0 0 0 0 0 0 0 0 0 0 0 0 0 0 0 0 0 0 0 0 0 0 0 0 0 0 0 0 0 0 0 0 0 0 0 0 0 0 0 0 0 0 0 0 0 0 0 0 0 108 104 102 103 102 101 101 97 92 83 78 0 0 0 0 0 0 0
0 0 0 0 0 0 0 0 0 0 0 0 0 0 0 0 0 0 0 0 0 0 70 87 101 0 0 0 0 0 0 0 0 0 0 0 0 0 0 0 0 0 0 0 0 0 0 0 0 0 0 0 0 0 0 0 0 0 0 0 0 0 0 0 0 0 0 0 0 0 0 0 0 0 0 0 0 0 0 0 0 0 0 0 0 0 0 0 0 0 0 0 0 0 0 0 0 0 0 0 0 0 0 0 0 0 0 0 0 0 0 84 76 70 0 0 0 0 0 0
0 0 0 0 0 0 0 0 0 0 0 0 0 0 0 0 0 0 0 0 0 54 64 81 0 0 0 0 0 0 0 0 0 0 0 0 0 0 0 0 0 0 0 0 0 0 0 0 0 0 0 0 0 0 0 0 0 0 0 0 0 0 0 0 0 0 0 0 0 0 0 0 0 0 0 0 0 0 0 0 0 0 0 0 0 0 0 0 0 0 0 0 0 0 0 0 0 0 0 0 0 0 0 0 0 0 0 0 0 0 0 0 0 0 0 0 0 0 0 0
0 0 0 0 0 0 0 0 0 0 0 0 0 0 0 0 0 0 0 0 45 53 59 0 0 0 0 0 0 0 0 0 0 0 0 0 0 0 0 0 0 0 0 0 0 0 0 0 0 0 0 0 0 0 0 0 0 0 0 0 0 0 0 0 0 0 0 0 0 0 0 0 0 0 0 0 0 0 0 0 0 0 0 0 0 0 0 0 0 0 0 0 0 0 0 0 0 0 0 0 0 0 0 0 0 0 0 0 0 0 0 0 0 0 0 0 0 0 0 0
