P2
120 120
255
0 0 0 0 0 0 0 0 0 0 0 0 0 0 0 0 0 0 0 0 0 0 0 0 0 0 0 0 0 0 0 0 0 0 0 0 0 0 0 0 0 0 0 0 0 0 0 0 0 0 0 0 0 0 0 0 0 0 0 0 0 0 0 0 0 0 0 0 0 0 0 0 0 0 0 0 0 0 0 0 0 0 0 0 0 0 0 0 0 0 0 0 0 0 0 0 0 0 0 0 0 0 0 0 0 0 0 0 0 0 0 0 0 0 0 0 0 0 0 0
0 0 0 0 0 0 0 0 0 0 0 0 0 0 0 0 0 0 0 0 0 0 0 0 0 0 0 0 0 0 0 0 0 0 0 0 0 0 0 0 0 0 0 0 0 0 0 0 0 0 0 140 141 140 142 149 155 0 0 152 0 0 0 0 0 0 0 0 0 0 0 0 0 0 0 0 0 0 0 0 0 0 0 0 0 0 0 0 0 0 0 0 0 0 0 0 0 0 0 0 0 0 0 0 0 0 0 0 0 0 0 0 0 0 0 0 0 0 0 0
0 0 0 0 0 0 0 0 0 0 0 0 0 0 0 0 0 0 0 0 0 0 0 0 0 0 0 0 0 0 0 0 0 0 0 0 0 0 0 0 0 0 0 0 0 0 0 0 0 0 141 145 147 148 151 154 157 157 156 154 154 155 157 160 158 156 153 152 152 153 153 0 0 0 0 0 0 0 0 0 0 0 0 0 0 0 0 0 0 0 0 0 0 0 0 0 0 0 0 0 0 0 0 0 0 0 0 0 0 0 0 0 0 0 0 0 0 0 0 0
0 0 0 0 0 0 0 0 0 0 0 0 0 0 0 0 0 0 0 0 0 0 0 0 0 0 0 0 0 0 0 0 0 0 0 0 0 0 0 0 0 0 0 0 0 0 0 0 0 142 146 151 155 157 159 163 164 163 162 161 162 164 167 164 162 160 158 158 158 156 157 157 153 0 0 0 0 0 0 0 0 0 0 0 0 0 0 0 0 0 0 0 0 0 0 0 0 0 0 0 0 0 0 0 0 0 0 0 0 0 0 0 0 0 0 0 0 0 0 0
0 0 0 0 0 0 0 0 0 0 0 0 0 0 0 0 0 0 0 0 0 0 0 0 0 0 0 0 0 0 0 0 0 0 0 0 0 0 0 0 0 0 0 0 0 0 0 0 145 146 152 158 163 165 167 170 172 172 171 170 171 172 172 170 167 166 167 166 164 164 163 160 156 152 0 0 0 0 0 0 0 0 0 0 0 0 0 0 0 0 0 0 0 0 0 0 0 0 0 0 0 0 0 0 0 0 0 0 0 0 0 0 0 0 0 0 0 0 0 0
0 0 0 0 0 0 0 0 0 0 0 0 0 0 0 0 0 0 0 0 0 0 0 0 0 0 0 0 0 0 0 0 0 0 0 0 0 0 0 0 0 0 0 0 0 144 147 147 148 152 159 167 171 172 175 178 178 179 178 178 177 178 177 176 176 174 174 173 172 171 169 165 162 158 157 0 0 0 0 0 0 0 0 0 0 0 0 0 0 0 0 0 0 0 0 0 0 0 0 0 0 0 0 0 0 0 0 0 0 0 0 0 0 0 0 0 0 0 0 0
0 0 0 0 0 0 0 0 0 0 0 0 0 0 0 0 0 0 0 0 0 0 0 0 0 0 0 0 0 0 0 0 0 0 0 0 0 0 0 0 0 137 136 136 140 146 151 152 154 160 170 175 179 181 182 183 184 184 185 184 184 183 183 184 184 183 181 179 177 177 176 172 168 164 162 161 0 0 0 0 0 0 0 0 0 0 0 0 0 0 0 0 0 0 0 0 0 0 0 0 0 0 0 0 0 0 0 0 0 0 0 0 0 0 0 0 0 0 0 0
0 0 0 0 0 0 0 0 0 0 0 0 0 0 0 0 0 0 0 0 0 0 0 0 0 0 0 0 0 0 0 0 0 0 0 0 0 0 0 0 138 140 141 143 147 153 158 160 163 170 177 182 185 186 187 188 188 188 189 189 188 188 188 189 188 188 186 184 184 183 182 178 174 170 167 164 0 0 0 0 0 0 0 0 0 0 0 0 0 0 0 0 0 0 0 0 0 0 0 0 0 0 0 0 0 0 0 0 0 0 0 0 0 0 0 0 0 0 0 0
0 0 0 0 0 0 0 0 0 0 0 0 0 0 0 0 0 0 0 0 0 0 0 0 0 0 0 0 0 0 0 0 0 0 0 0 0 0 0 140 142 143 147 152 158 163 167 169 173 178 183 186 188 189 191 191 190 191 193 193 192 192 191 192 192 191 189 188 188 188 186 182 179 175 172 169 167 164 0 0 0 0 0 0 0 0 0 0 0 0 0 0 0 0 0 0 0 0 0 0 0 0 0 0 0 0 0 0 0 0 0 0 0 0 0 0 0 0 0 0
0 0 0 0 0 0 0 0 0 0 0 0 0 0 0 0 0 0 0 0 0 0 0 0 0 0 0 0 0 0 0 0 0 0 0 0 0 0 142 143 147 152 156 161 167 172 176 177 179 182 185 188 191 193 194 194 194 194 195 196 196 196 195 194 193 192 192 190 190 190 189 187 183 179 176 173 170 166 161 156 151 0 0 0 0 0 0 0 0 0 0 0 0 0 0 0 0 0 0 0 0 0 0 0 0 0 0 0 0 0 0 0 0 0 0 0 0 0 0 0
0 0 0 0 0 0 0 0 0 0 0 0 0 0 0 0 0 0 0 0 0 0 0 0 0 0 0 0 0 0 0 0 0 0 0 0 0 145 145 148 153 161 166 169 173 179 182 183 185 187 188 191 194 196 197 197 196 197 198 198 198 198 197 196 195 195 194 193 192 191 190 189 186 182 180 178 173 168 162 156 152 151 150 0 0 0 0 0 0 0 0 0 0 0 0 0 0 0 0 0 0 0 0 0 0 0 0 0 0 0 0 0 0 0 0 0 0 0 0 0
0 0 0 0 0 0 0 0 0 0 0 0 0 0 0 0 0 0 0 0 0 0 0 0 0 0 0 0 0 0 0 0 0 0 0 0 152 149 147 151 162 169 173 176 179 184 186 188 190 192 193 195 197 199 199 199 200 200 200 200 201 201 199 199 196 196 196 195 194 193 192 191 189 186 185 182 177 171 164 159 157 155 154 155 0 0 0 0 0 0 0 0 0 0 0 0 0 0 0 0 0 0 0 0 0 0 0 0 0 0 0 0 0 0 0 0 0 0 0 0
0 0 0 0 0 0 0 0 0 0 0 0 0 0 0 0 0 0 0 0 0 0 0 0 0 0 0 0 0 0 0 0 0 0 0 0 154 152 152 158 168 174 178 181 185 188 190 192 193 196 197 198 200 200 200 202 202 202 203 203 203 204 202 200 199 198 198 197 196 195 193 192 191 190 189 186 180 173 168 165 163 161 159 158 0 0 0 0 0 0 0 0 0 0 0 0 0 0 0 0 0 0 0 0 0 0 0 0 0 0 0 0 0 0 0 0 0 0 0 0
0 0 0 0 0 0 0 0 0 0 0 0 0 0 0 0 0 0 0 0 0 0 0 0 0 0 0 0 0 0 0 0 0 0 0 0 156 156 159 166 173 180 183 186 189 192 194 196 197 199 200 201 202 202 202 203 204 204 205 204 205 205 204 203 202 201 200 200 200 198 196 194 193 193 192 188 182 176 173 172 168 166 164 162 160 0 0 0 0 0 0 0 0 0 0 0 0 0 0 0 0 0 0 0 0 0 0 0 0 0 0 0 0 0 0 0 0 0 0 0
0 0 0 0 0 0 0 0 0 0 0 0 0 0 0 0 0 0 0 0 0 0 0 0 0 0 0 0 0 0 0 0 0 0 157 157 158 162 167 174 180 184 187 190 193 195 197 199 200 202 203 204 205 204 204 205 205 206 206 206 206 206 206 205 204 204 203 203 203 201 198 197 196 196 194 189 185 181 179 176 173 170 168 165 164 0 0 0 0 0 0 0 0 0 0 0 0 0 0 0 0 0 0 0 0 0 0 0 0 0 0 0 0 0 0 0 0 0 0 0
0 0 0 0 0 0 0 0 0 0 0 0 0 0 0 0 0 0 0 0 0 0 0 0 0 0 0 0 0 0 0 0 0 0 158 159 163 168 174 180 185 187 189 194 196 197 198 200 202 203 205 206 207 207 206 207 207 208 207 208 209 208 207 207 206 205 205 204 204 202 200 199 198 198 196 193 189 186 183 181 178 175 171 168 165 163 0 0 0 0 0 0 0 0 0 0 0 0 0 0 0 0 0 0 0 0 0 0 0 0 0 0 0 0 0 0 0 0 0 0
0 0 0 0 0 0 0 0 0 0 0 0 0 0 0 0 0 0 0 0 0 0 0 0 0 0 0 0 0 0 0 0 0 157 160 163 167 172 180 185 187 189 192 196 198 199 200 201 204 205 207 207 208 209 209 209 209 209 210 210 210 210 209 208 208 207 206 205 205 204 202 201 199 199 197 195 192 190 188 186 183 180 177 173 168 165 162 0 0 0 0 0 0 0 0 0 0 0 0 0 0 0 0 0 0 0 0 0 0 0 0 0 0 0 0 0 0 0 0 0
0 0 0 0 0 0 0 0 0 0 0 0 0 0 0 0 0 0 0 0 0 0 0 0 0 0 0 0 0 0 0 0 0 156 162 167 171 175 181 187 189 190 192 195 198 200 202 204 205 206 209 209 210 211 211 212 212 212 212 212 213 212 211 211 210 209 208 207 206 205 204 202 201 199 198 196 194 192 191 189 186 184 181 176 171 167 164 0 0 0 0 0 0 0 0 0 0 0 0 0 0 0 0 0 0 0 0 0 0 0 0 0 0 0 0 0 0 0 0 0
0 0 0 0 0 0 0 0 0 0 0 0 0 0 0 0 0 0 0 0 0 0 0 0 0 0 0 0 0 0 0 0 153 156 164 172 175 179 183 187 190 192 194 197 199 202 204 206 208 208 210 211 212 213 214 214 214 214 215 215 215 215 214 213 212 211 210 209 209 208 206 205 202 200 198 196 194 194 193 190 188 186 182 179 175 170 166 165 0 0 0 0 0 0 0 0 0 0 0 0 0 0 0 0 0 0 0 0 0 0 0 0 0 0 0 0 0 0 0 0
0 0 0 0 0 0 0 0 0 0 0 0 0 0 0 0 0 0 0 0 0 0 0 0 0 0 0 0 0 0 0 149 153 157 168 175 180 182 186 189 192 194 197 199 202 204 207 208 210 212 212 213 214 216 217 217 217 217 218 217 218 217 216 216 215 214 213 213 211 210 208 206 204 202 200 198 197 195 194 191 188 186 184 181 177 171 168 164 0 0 0 0 0 0 0 0 0 0 0 0 0 0 0 0 0 0 0 0 0 0 0 0 0 0 0 0 0 0 0 0
0 0 0 0 0 0 0 0 0 0 0 0 0 0 0 0 0 0 0 0 0 0 0 0 0 0 0 0 0 0 0 150 155 162 171 177 181 184 188 190 193 196 199 202 204 206 208 210 212 214 215 216 217 218 219 220 220 220 220 221 221 220 220 219 218 217 216 215 214 212 211 209 207 205 202 200 198 196 194 191 190 188 186 183 177 172 167 164 162 0 0 0 0 0 0 0 0 0 0 0 0 0 0 0 0 0 0 0 0 0 0 0 0 0 0 0 0 0 0 0
0 0 0 0 0 0 0 0 0 0 0 0 0 0 0 0 0 0 0 0 0 0 0 0 0 0 0 0 0 0 149 153 161 168 175 179 183 186 190 193 197 199 201 204 207 209 210 213 215 216 217 218 220 221 222 222 223 223 224 223 223 223 223 222 221 220 219 218 216 215 213 211 210 208 205 203 200 198 196 194 193 190 189 185 179 174 169 166 163 162 0 0 0 0 0 0 0 0 0 0 0 0 0 0 0 0 0 0 0 0 0 0 0 0 0 0 0 0 0 0
0 0 0 0 0 0 0 0 0 0 0 0 0 0 0 0 0 0 0 0 0 0 0 0 0 0 0 0 0 0 153 161 169 174 179 183 186 190 193 197 199 201 204 206 209 212 213 215 217 219 220 221 222 223 224 225 225 225 226 226 225 225 225 225 224 223 222 221 219 217 216 214 212 210 208 205 202 200 198 197 194 193 191 187 183 177 174 169 166 163 0 0 0 0 0 0 0 0 0 0 0 0 0 0 0 0 0 0 0 0 0 0 0 0 0 0 0 0 0 0
0 0 0 0 0 0 0 0 0 0 0 0 0 0 0 0 0 0 0 0 0 0 0 0 0 0 0 0 0 153 158 167 174 179 181 185 189 192 196 199 202 204 206 209 212 214 216 218 219 221 222 224 224 225 226 226 227 227 227 228 227 227 227 227 226 225 223 222 222 220 219 217 215 213 211 208 206 203 201 198 196 195 193 191 185 181 177 173 169 166 165 0 0 0 0 0 0 0 0 0 0 0 0 0 0 0 0 0 0 0 0 0 0 0 0 0 0 0 0 0
0 0 0 0 0 0 0 0 0 0 0 0 0 0 0 0 0 0 0 0 0 0 0 0 0 0 0 0 155 156 162 170 177 180 183 187 191 195 198 201 204 206 209 212 214 216 219 220 222 223 225 226 227 228 228 229 229 229 230 230 230 229 229 228 227 227 226 225 224 223 221 220 218 216 213 211 209 206 203 201 199 197 195 192 187 183 180 175 172 169 167 0 0 0 0 0 0 0 0 0 0 0 0 0 0 0 0 0 0 0 0 0 0 0 0 0 0 0 0 0
0 0 0 0 0 0 0 0 0 0 0 0 0 0 0 0 0 0 0 0 0 0 0 0 0 0 0 0 156 159 165 172 177 180 185 189 193 197 200 203 206 209 211 214 216 219 221 223 224 225 226 228 228 229 230 230 231 231 231 231 231 231 230 230 229 228 228 227 226 225 223 221 219 217 215 213 210 208 205 203 200 198 195 192 188 184 180 177 174 170 167 165 0 0 0 0 0 0 0 0 0 0 0 0 0 0 0 0 0 0 0 0 0 0 0 0 0 0 0 0
0 0 0 0 0 0 0 0 0 0 0 0 0 0 0 0 0 0 0 0 0 0 0 0 0 0 0 0 0 159 167 175 179 184 186 190 195 199 202 205 208 211 213 216 219 221 222 224 225 227 228 229 230 230 231 231 232 232 232 232 232 232 232 231 230 230 229 229 228 226 225 223 222 219 217 215 213 210 207 205 202 199 197 193 190 187 183 180 176 172 168 164 0 0 0 0 0 0 0 0 0 0 0 0 0 0 0 0 0 0 0 0 0 0 0 0 0 0 0 0
0 0 0 0 0 0 0 0 0 0 0 0 0 0 0 0 0 0 0 0 0 0 0 0 0 0 0 0 158 162 172 178 182 185 188 192 196 200 204 207 209 212 215 218 220 222 224 226 227 229 230 231 231 232 232 233 233 233 234 234 234 233 233 232 232 231 231 230 229 228 226 225 223 221 219 217 215 212 209 207 204 201 198 195 193 190 186 182 177 172 168 164 160 0 0 0 0 0 0 0 0 0 0 0 0 0 0 0 0 0 0 0 0 0 0 0 0 0 0 0
0 0 0 0 0 0 0 0 0 0 0 0 0 0 0 0 0 0 0 0 0 0 0 0 0 0 0 0 159 163 175 181 184 187 190 193 198 202 205 209 211 214 217 220 222 224 226 227 229 230 231 232 232 233 233 234 234 234 235 235 235 234 234 234 233 232 232 231 230 230 228 227 225 223 221 219 217 214 211 208 205 202 200 196 194 191 187 183 179 173 168 164 161 0 0 0 0 0 0 0 0 0 0 0 0 0 0 0 0 0 0 0 0 0 0 0 0 0 0 0
0 0 0 0 0 0 0 0 0 0 0 0 0 0 0 0 0 0 0 0 0 0 0 0 0 0 0 158 160 167 176 182 185 187 191 195 200 203 207 210 213 216 218 221 223 225 227 228 230 231 232 233 233 234 234 235 235 235 236 236 235 235 235 235 234 233 233 232 231 230 229 228 226 224 222 219 217 215 213 210 207 204 201 198 196 191 188 185 182 176 170 166 164 0 0 0 0 0 0 0 0 0 0 0 0 0 0 0 0 0 0 0 0 0 0 0 0 0 0 0
0 0 0 0 0 0 0 0 0 0 0 0 0 0 0 0 0 0 0 0 0 0 0 0 0 0 0 157 160 169 179 183 187 190 193 198 201 205 208 212 215 217 220 221 224 226 228 230 231 232 233 234 234 235 235 236 236 236 236 236 236 236 236 235 235 234 234 233 232 231 230 229 227 225 223 221 218 216 214 211 209 205 203 199 195 192 190 187 184 179 174 170 167 0 0 0 0 0 0 0 0 0 0 0 0 0 0 0 0 0 0 0 0 0 0 0 0 0 0 0
0 0 0 0 0 0 0 0 0 0 0 0 0 0 0 0 0 0 0 0 0 0 0 0 0 0 0 155 159 172 181 185 188 192 196 199 202 206 210 213 216 219 221 224 226 227 229 230 232 233 234 234 235 236 236 236 237 237 237 237 237 237 236 236 236 235 234 234 233 232 231 230 228 226 224 223 220 218 215 212 209 206 203 200 196 193 190 188 185 181 176 172 168 0 0 0 0 0 0 0 0 0 0 0 0 0 0 0 0 0 0 0 0 0 0 0 0 0 0 0
0 0 0 0 0 0 0 0 0 0 0 0 0 0 0 0 0 0 0 0 0 0 0 0 0 0 152 154 161 172 182 186 188 192 196 200 204 207 211 214 217 220 223 225 227 228 230 231 233 234 234 235 236 236 237 237 237 237 238 238 237 237 237 236 236 236 235 235 234 233 231 230 229 227 226 224 222 219 217 214 211 208 204 202 198 195 191 189 186 182 177 170 167 164 0 0 0 0 0 0 0 0 0 0 0 0 0 0 0 0 0 0 0 0 0 0 0 0 0 0
0 0 0 0 0 0 0 0 0 0 0 0 0 0 0 0 0 0 0 0 0 0 0 0 0 0 148 153 160 173 181 185 189 193 197 201 205 209 213 216 219 221 223 225 227 229 230 232 234 234 235 236 236 237 237 238 238 238 238 238 238 238 237 237 237 236 236 235 234 233 232 231 230 229 227 225 223 221 218 215 212 209 206 203 200 196 192 189 186 181 174 170 164 161 0 0 0 0 0 0 0 0 0 0 0 0 0 0 0 0 0 0 0 0 0 0 0 0 0 0
0 0 0 0 0 0 0 0 0 0 0 0 0 0 0 0 0 0 0 0 0 0 0 0 0 0 147 151 159 172 180 185 190 194 198 202 206 210 214 217 220 222 224 225 228 230 231 233 234 235 235 236 237 237 238 238 238 238 238 238 238 238 238 238 237 237 237 236 235 234 233 232 231 229 228 226 224 222 219 216 214 211 208 204 200 197 193 190 186 179 173 168 163 161 0 0 0 0 0 0 0 0 0 0 0 0 0 0 0 0 0 0 0 0 0 0 0 0 0 0
0 0 0 0 0 0 0 0 0 0 0 0 0 0 0 0 0 0 0 0 0 0 0 0 0 0 146 151 159 169 181 186 191 196 200 204 207 211 215 218 220 223 224 227 229 230 232 233 235 235 236 237 237 238 238 238 239 239 239 239 239 239 238 238 238 237 237 236 236 235 234 233 232 230 229 227 225 222 220 218 215 212 208 205 202 198 193 190 186 180 174 168 162 158 0 0 0 0 0 0 0 0 0 0 0 0 0 0 0 0 0 0 0 0 0 0 0 0 0 0
0 0 0 0 0 0 0 0 0 0 0 0 0 0 0 0 0 0 0 0 0 0 0 0 0 147 148 154 162 170 180 186 191 197 201 205 208 212 215 218 221 223 226 228 230 231 233 234 235 236 237 237 238 238 239 239 239 239 239 239 239 239 239 239 238 238 237 237 236 235 235 234 233 231 229 227 225 223 221 219 216 213 209 206 202 198 194 189 186 180 174 168 161 157 154 0 0 0 0 0 0 0 0 0 0 0 0 0 0 0 0 0 0 0 0 0 0 0 0 0
0 0 0 0 0 0 0 0 0 0 0 0 0 0 0 0 0 0 0 0 0 0 0 0 0 148 151 158 164 173 180 187 192 197 202 205 209 213 216 219 222 224 226 228 230 232 233 235 236 237 237 238 238 239 239 239 239 239 240 239 239 239 239 239 239 238 238 237 237 236 235 234 233 231 230 228 226 224 221 219 216 213 211 207 203 199 195 190 185 180 174 167 162 157 154 0 0 0 0 0 0 0 0 0 0 0 0 0 0 0 0 0 0 0 0 0 0 0 0 0
0 0 0 0 0 0 0 0 0 0 0 0 0 0 0 0 0 0 0 0 0 0 0 0 0 148 153 162 168 174 181 188 194 198 202 206 210 214 217 220 223 225 227 229 231 232 234 235 236 237 238 238 239 239 240 240 240 240 240 240 240 239 239 239 239 239 238 238 237 237 236 235 233 232 231 229 227 225 223 220 217 215 211 208 204 199 194 190 185 181 175 167 162 156 152 0 0 0 0 0 0 0 0 0 0 0 0 0 0 0 0 0 0 0 0 0 0 0 0 0
0 0 0 0 0 0 0 0 0 0 0 0 0 0 0 0 0 0 0 0 0 0 0 0 0 150 157 166 170 175 181 188 194 198 202 208 211 215 218 221 223 225 228 230 231 233 235 236 237 237 238 239 239 239 240 240 240 240 240 240 240 240 240 239 239 239 239 238 238 237 236 235 234 233 232 230 228 227 224 222 219 216 213 209 205 200 194 190 186 181 176 170 163 157 152 0 0 0 0 0 0 0 0 0 0 0 0 0 0 0 0 0 0 0 0 0 0 0 0 0
0 0 0 0 0 0 0 0 0 0 0 0 0 0 0 0 0 0 0 0 0 0 0 0 146 150 161 169 172 176 182 189 194 198 204 208 213 216 219 222 225 227 229 231 232 233 235 237 237 238 238 239 239 240 240 240 240 240 240 240 240 240 240 240 239 239 239 238 238 237 237 236 235 234 232 231 229 228 226 224 221 218 215 210 206 201 195 190 185 181 177 172 164 157 153 0 0 0 0 0 0 0 0 0 0 0 0 0 0 0 0 0 0 0 0 0 0 0 0 0
0 0 0 0 0 0 0 0 0 0 0 0 0 0 0 0 0 0 0 0 0 0 0 0 136 144 162 169 173 176 183 189 194 199 204 210 214 217 220 223 226 228 230 232 233 234 236 237 237 238 239 239 239 240 240 240 240 240 240 240 240 240 240 240 239 239 239 238 238 237 237 236 235 234 233 231 230 228 227 225 222 219 216 212 208 201 195 190 186 181 176 170 166 159 154 0 0 0 0 0 0 0 0 0 0 0 0 0 0 0 0 0 0 0 0 0 0 0 0 0
0 0 0 0 0 0 0 0 0 0 0 0 0 0 0 0 0 0 0 0 0 0 0 0 121 134 155 167 173 178 183 189 193 199 205 210 215 218 222 224 227 229 231 232 233 235 236 237 238 238 239 239 239 240 240 240 240 240 240 240 240 240 240 239 239 239 239 238 238 237 237 236 234 234 232 231 230 228 227 225 223 221 217 214 209 203 197 190 185 181 176 171 166 162 157 0 0 0 0 0 0 0 0 0 0 0 0 0 0 0 0 0 0 0 0 0 0 0 0 0
0 0 0 0 0 0 0 0 0 0 0 0 0 0 0 0 0 0 0 0 0 0 0 0 112 123 146 166 172 177 182 188 194 200 206 212 217 220 223 226 228 230 231 232 233 235 236 237 237 238 238 239 239 239 240 240 240 240 240 240 240 240 239 239 239 238 238 238 237 236 236 235 234 233 232 231 229 228 226 225 223 221 218 215 211 204 199 192 185 180 176 171 166 162 160 0 0 0 0 0 0 0 0 0 0 0 0 0 0 0 0 0 0 0 0 0 0 0 0 0
0 0 0 0 0 0 0 0 0 0 0 0 0 0 0 0 0 0 0 0 0 0 0 0 107 118 141 159 168 176 183 188 194 201 208 213 218 221 224 226 228 230 231 232 233 234 235 236 237 237 238 239 239 239 239 239 239 240 240 239 239 0 0 0 238 238 237 237 236 235 235 234 233 232 231 230 229 227 226 224 223 221 218 215 211 206 200 191 184 180 176 171 167 163 160 0 0 0 0 0 0 0 0 0 0 0 0 0 0 0 0 0 0 0 0 0 0 0 0 0
0 0 0 0 0 0 0 0 0 0 0 0 0 0 0 0 0 0 0 0 0 0 0 0 105 117 137 152 161 176 182 187 193 202 209 215 219 222 224 226 228 230 230 231 232 233 234 235 236 236 237 237 238 238 238 239 239 239 239 239 239 239 239 238 238 237 236 236 235 234 233 232 231 230 230 229 228 227 225 224 222 220 218 215 212 206 200 192 186 180 176 172 168 165 161 0 0 0 0 0 0 0 0 0 0 0 0 0 0 0 0 0 0 0 0 0 0 0 0 0
0 0 0 0 0 0 0 0 0 0 0 0 0 0 0 0 0 0 0 0 0 0 0 0 105 113 133 146 162 176 182 187 196 203 209 215 219 222 224 226 227 229 230 230 231 232 232 233 234 235 235 236 237 237 237 238 238 239 239 239 239 238 238 237 237 236 236 235 234 232 232 231 230 229 228 228 227 226 225 223 221 220 218 215 211 207 201 193 186 181 178 173 169 164 160 0 0 0 0 0 0 0 0 0 0 0 0 0 0 0 0 0 0 0 0 0 0 0 0 0
0 0 0 0 0 0 0 0 0 0 0 0 0 0 0 0 0 0 0 0 0 0 0 0 106 113 130 148 163 176 181 187 195 203 210 214 219 221 223 225 226 228 229 229 230 231 231 232 232 233 233 234 235 236 236 237 238 238 239 238 238 238 237 237 236 235 234 233 232 231 231 230 229 229 228 228 226 225 224 222 221 219 218 214 211 207 201 193 187 181 177 173 169 163 160 158 0 0 0 0 0 0 0 0 0 0 0 0 0 0 0 0 0 0 0 0 0 0 0 0
0 0 0 0 0 0 0 0 0 0 0 0 0 0 0 0 0 0 0 0 0 0 0 0 110 117 130 148 165 175 181 188 196 204 209 214 217 220 222 224 226 227 228 229 230 230 230 231 231 232 232 233 234 235 235 236 237 238 238 238 238 237 236 236 235 234 233 232 231 230 230 229 229 229 228 228 227 226 224 221 220 218 216 214 210 207 200 194 188 182 178 173 168 162 159 156 0 0 0 0 0 0 0 0 0 0 0 0 0 0 0 0 0 0 0 0 0 0 0 0
0 0 0 0 0 0 0 0 0 0 0 0 0 0 0 0 0 0 0 0 0 0 0 0 0 122 135 145 165 174 180 189 197 203 209 213 216 219 222 223 225 227 228 229 229 230 230 230 230 230 231 232 233 234 235 235 236 237 238 238 237 237 236 235 234 233 232 0 230 229 228 228 228 228 227 227 227 226 223 220 219 217 215 212 210 206 201 193 187 182 177 173 168 162 158 156 0 0 0 0 0 0 0 0 0 0 0 0 0 0 0 0 0 0 0 0 0 0 0 0
0 0 0 0 0 0 0 0 0 0 0 0 0 0 0 0 0 0 0 0 0 0 0 0 0 129 137 149 163 172 181 189 197 203 207 212 215 217 220 223 225 226 227 228 228 228 228 229 229 229 229 230 231 232 233 234 236 0 237 238 237 237 236 234 233 232 231 230 229 228 227 226 226 226 226 225 225 223 221 219 217 215 213 211 209 205 200 194 186 180 176 172 167 161 156 152 149 0 0 0 0 0 0 0 0 0 0 0 0 0 0 0 0 0 0 0 0 0 0 0
0 0 0 0 0 0 0 0 0 0 0 0 0 0 0 0 0 0 0 0 0 0 0 0 0 135 141 148 162 172 181 189 197 203 207 211 214 217 219 222 223 225 225 226 227 227 227 227 227 227 228 228 230 231 232 234 235 236 238 238 238 237 236 234 232 231 230 229 227 227 226 225 225 225 225 225 224 222 220 218 217 214 212 210 208 205 200 192 186 178 174 170 166 159 154 149 145 142 0 0 0 0 0 0 0 0 0 0 0 0 0 0 0 0 0 0 0 0 0 0
0 0 0 0 0 0 0 0 0 0 0 0 0 0 0 0 0 0 0 0 0 0 0 0 137 137 143 149 160 171 180 190 198 203 207 210 213 215 218 221 221 222 223 225 226 226 226 226 226 227 226 227 228 229 231 233 235 237 238 238 238 237 236 234 232 230 229 227 226 226 226 225 225 225 225 225 224 222 221 219 218 215 212 210 208 205 199 191 183 177 172 167 162 157 150 146 142 139 137 0 0 0 0 0 0 0 0 0 0 0 0 0 0 0 0 0 0 0 0 0
0 0 0 0 0 0 0 0 0 0 0 0 0 0 0 0 0 0 0 0 0 0 0 0 137 139 144 151 159 170 181 190 198 203 206 209 212 214 218 220 221 222 224 225 226 226 226 226 226 227 226 226 227 229 230 233 235 237 238 239 239 238 237 234 232 230 228 226 226 226 226 226 226 226 226 225 225 223 222 220 217 214 212 210 208 204 197 189 182 175 169 164 159 153 148 144 139 136 133 0 0 0 0 0 0 0 0 0 0 0 0 0 0 0 0 0 0 0 0 0
0 0 0 0 0 0 0 0 0 0 0 0 0 0 0 0 0 0 0 0 0 0 0 0 137 138 142 147 156 170 180 190 199 203 207 209 211 213 216 219 222 224 225 226 227 227 227 227 227 227 227 227 227 228 230 233 235 237 239 240 240 239 237 235 233 230 228 227 226 226 226 227 227 227 227 226 225 224 223 220 218 215 213 210 208 204 197 189 183 172 166 159 154 150 145 141 137 133 131 0 0 0 0 0 0 0 0 0 0 0 0 0 0 0 0 0 0 0 0 0
0 0 0 0 0 0 0 0 0 0 0 0 0 0 0 0 0 0 0 0 0 0 0 0 137 137 138 143 154 165 177 187 199 204 207 209 212 214 216 218 221 223 225 226 227 228 228 228 228 228 228 228 228 229 232 234 237 239 241 241 241 240 239 237 234 230 229 228 227 227 0 227 227 227 226 226 224 223 221 219 217 215 213 211 209 206 197 188 180 173 164 158 152 148 142 138 135 133 132 0 0 0 0 0 0 0 0 0 0 0 0 0 0 0 0 0 0 0 0 0
0 0 0 0 0 0 0 0 0 0 0 0 0 0 0 0 0 0 0 0 0 0 0 134 135 135 136 140 150 157 170 183 195 204 207 210 212 215 217 218 220 222 224 226 227 227 227 228 228 228 228 228 229 231 233 235 238 241 242 242 242 242 241 239 235 232 230 229 228 227 227 226 226 226 225 225 223 222 221 219 217 215 213 212 210 206 199 188 179 170 163 156 151 147 142 137 134 132 131 0 0 0 0 0 0 0 0 0 0 0 0 0 0 0 0 0 0 0 0 0
0 0 0 0 0 0 0 0 0 0 0 0 0 0 0 0 0 0 0 0 0 0 0 133 134 134 135 139 145 151 163 173 188 203 207 210 213 215 218 219 220 222 224 225 226 226 227 227 228 228 228 229 230 232 234 236 239 242 243 244 244 243 242 240 238 234 232 230 229 228 227 226 226 225 225 224 223 222 221 220 218 216 215 213 210 206 198 187 179 173 163 156 152 147 142 137 134 132 131 0 0 0 0 0 0 0 0 0 0 0 0 0 0 0 0 0 0 0 0 0
0 0 0 0 0 0 0 0 0 0 0 0 0 0 0 0 0 0 0 0 0 0 0 131 133 134 136 139 144 149 157 166 185 202 208 211 214 216 218 220 221 222 224 224 225 226 227 227 228 229 229 230 232 234 237 239 242 244 245 245 245 245 243 242 239 236 233 232 231 229 228 227 227 226 225 225 224 223 221 220 219 217 216 214 211 204 198 190 182 170 161 156 151 146 142 137 135 132 132 0 0 0 0 0 0 0 0 0 0 0 0 0 0 0 0 0 0 0 0 0
0 0 0 0 0 0 0 0 0 0 0 0 0 0 0 0 0 0 0 0 0 0 0 132 133 135 138 141 143 147 153 163 178 200 209 212 215 217 219 221 222 224 225 225 226 227 228 229 229 230 231 232 234 235 237 240 243 245 246 247 246 245 244 243 240 237 235 233 232 231 229 229 228 227 227 226 225 224 223 222 221 219 218 215 212 204 196 189 181 171 163 157 150 146 141 137 135 134 132 0 0 0 0 0 0 0 0 0 0 0 0 0 0 0 0 0 0 0 0 0
0 0 0 0 0 0 0 0 0 0 0 0 0 0 0 0 0 0 0 0 0 0 0 133 133 135 138 140 142 143 150 159 177 201 210 213 217 219 221 222 224 225 226 227 227 228 229 230 231 231 232 234 235 237 239 241 244 246 247 248 247 247 246 244 242 239 236 234 233 232 231 230 229 228 228 227 227 225 224 223 222 221 219 216 212 205 198 189 181 172 164 157 151 146 141 137 135 133 131 0 0 0 0 0 0 0 0 0 0 0 0 0 0 0 0 0 0 0 0 0
0 0 0 0 0 0 0 0 0 0 0 0 0 0 0 0 0 0 0 0 0 0 133 133 134 135 138 139 139 140 147 157 176 204 211 214 218 221 223 224 225 227 228 228 229 230 231 231 232 232 233 235 236 238 240 243 246 247 249 249 249 248 247 246 243 240 238 235 234 233 232 231 231 230 229 228 227 226 225 224 223 222 220 217 212 206 199 191 178 169 163 155 151 147 142 138 136 134 132 0 0 0 0 0 0 0 0 0 0 0 0 0 0 0 0 0 0 0 0 0
0 0 0 0 0 0 0 0 0 0 0 0 0 0 0 0 0 0 0 0 0 0 135 135 135 137 139 139 138 138 144 154 175 203 212 216 219 222 224 225 227 228 229 230 230 231 232 232 233 233 234 235 236 238 241 244 247 249 250 251 250 250 249 247 244 241 239 236 234 233 233 232 232 231 230 229 228 227 226 225 224 222 220 217 214 207 200 189 178 169 161 155 151 148 143 139 137 135 133 0 0 0 0 0 0 0 0 0 0 0 0 0 0 0 0 0 0 0 0 0
0 0 0 0 0 0 0 0 0 0 0 0 0 0 0 0 0 0 0 0 0 132 135 136 136 138 139 139 139 139 143 152 170 200 213 217 220 222 224 226 228 229 230 230 231 232 232 233 233 234 234 235 237 239 242 246 249 251 252 252 252 251 250 248 245 242 239 236 235 234 233 232 232 231 231 230 229 228 227 226 224 222 221 218 215 208 200 189 180 171 161 154 151 148 144 140 138 136 135 0 0 0 0 0 0 0 0 0 0 0 0 0 0 0 0 0 0 0 0 0
0 0 0 0 0 0 0 0 0 0 0 0 0 0 0 0 0 0 0 0 125 130 133 135 136 138 140 140 139 141 144 151 166 200 213 217 220 223 225 227 228 230 230 231 232 232 233 233 233 234 235 236 237 240 244 248 251 253 253 254 253 253 251 249 246 243 240 237 235 233 233 232 232 231 231 230 229 228 228 226 224 223 221 219 215 209 201 191 180 172 164 157 152 147 144 142 139 136 135 0 0 0 0 0 0 0 0 0 0 0 0 0 0 0 0 0 0 0 0 0
0 0 0 0 0 0 0 0 0 0 0 0 0 0 0 0 0 0 0 123 126 129 134 136 136 138 141 141 141 141 144 149 169 201 213 218 221 223 226 227 229 230 231 231 232 232 233 233 234 234 234 235 239 242 246 249 252 253 254 254 254 253 252 250 247 245 241 238 235 233 233 232 232 231 231 230 229 229 228 226 225 223 221 219 215 210 202 193 184 173 167 160 154 150 147 144 140 137 135 0 0 0 0 0 0 0 0 0 0 0 0 0 0 0 0 0 0 0 0 0
0 0 0 0 0 0 0 0 0 0 0 0 0 0 0 0 0 107 114 120 125 129 133 136 137 139 142 144 145 144 146 152 170 202 214 218 221 223 226 227 229 230 231 231 232 232 233 233 233 233 234 237 241 245 247 249 252 253 254 254 254 253 252 250 248 246 243 239 235 233 232 232 232 231 231 230 229 229 227 226 225 223 221 219 215 210 202 194 183 174 167 161 156 152 149 146 142 139 0 0 0 0 0 0 0 0 0 0 0 0 0 0 0 0 0 0 0 0 0 0
0 0 0 0 0 0 0 0 0 0 0 0 0 0 0 0 92 99 108 116 123 129 134 137 139 140 142 146 149 150 151 158 175 204 212 217 221 224 225 228 229 230 230 231 232 232 232 233 233 233 234 238 244 246 248 250 252 253 254 254 254 253 251 250 248 246 244 239 234 232 231 231 231 231 230 230 229 228 227 226 225 223 221 219 215 210 202 193 182 173 166 161 156 152 149 146 144 142 0 0 0 0 0 0 0 0 0 0 0 0 0 0 0 0 0 0 0 0 0 0
0 0 0 0 0 0 0 0 0 0 0 0 0 71 77 81 84 92 100 109 118 126 133 137 139 140 143 148 152 155 157 161 181 201 212 218 222 224 226 227 229 229 230 231 231 232 0 232 232 232 233 238 243 246 248 249 251 252 254 254 253 252 250 249 247 246 243 239 234 232 231 230 230 230 230 229 229 228 227 226 224 222 220 218 214 208 200 190 180 171 166 160 156 152 150 147 144 141 0 0 0 0 0 0 0 0 0 0 0 0 0 0 0 0 0 0 0 0 0 0
0 0 0 0 0 0 0 0 0 0 0 0 63 67 72 77 80 85 93 101 112 121 130 136 139 141 144 149 154 155 157 163 179 198 212 217 221 223 224 226 228 229 0 230 231 232 232 232 0 0 234 237 241 242 244 246 248 250 252 252 251 249 247 246 244 243 241 238 234 232 230 230 230 230 229 229 228 228 227 226 224 222 220 217 213 206 197 188 178 170 163 159 155 153 149 146 143 141 0 0 0 0 0 0 0 0 0 0 0 0 0 0 0 0 0 0 0 0 0 0
0 0 0 0 0 0 0 0 0 0 56 58 61 65 70 74 77 80 86 93 103 115 127 135 140 141 145 150 153 155 157 162 171 194 210 216 220 222 224 226 228 229 230 230 231 231 231 231 232 232 0 235 236 238 239 242 244 245 248 249 247 245 243 241 240 239 237 234 233 231 230 230 229 229 229 228 228 227 226 225 223 221 219 217 211 204 194 185 176 167 162 158 156 153 149 147 144 141 138 0 0 0 0 0 0 0 0 0 0 0 0 0 0 0 0 0 0 0 0 0
0 0 0 0 0 0 0 0 0 46 51 56 60 65 70 73 74 76 79 83 94 110 123 136 140 143 146 150 153 155 157 161 166 183 207 214 219 222 224 225 227 228 229 229 230 231 231 231 231 232 233 235 236 237 238 240 241 242 244 245 244 242 240 239 238 237 235 234 233 231 230 229 229 228 228 227 227 226 225 224 222 220 218 215 210 201 192 183 174 166 161 157 155 151 149 146 143 139 135 130 0 0 0 0 0 0 0 0 0 0 0 0 0 0 0 0 0 0 0 0
0 0 0 0 0 0 0 0 0 43 48 53 58 63 70 72 73 73 75 79 89 106 122 134 142 144 146 149 152 154 156 158 162 177 202 214 217 221 223 224 226 227 228 229 229 230 230 231 231 232 234 235 236 237 239 240 241 241 242 242 242 241 240 239 238 237 236 235 233 232 230 0 0 0 228 227 226 225 224 223 221 219 217 213 207 199 190 182 172 165 159 155 153 150 148 145 141 136 131 125 118 0 0 0 0 0 0 0 0 0 0 0 0 0 0 0 0 0 0 0
0 0 0 0 0 0 0 0 0 38 44 49 54 59 65 68 70 71 73 76 87 103 118 132 142 146 147 149 152 154 157 158 160 172 195 211 216 219 221 223 225 227 227 228 229 229 230 230 231 233 234 236 237 238 239 241 241 242 242 242 242 242 241 240 239 238 237 235 233 232 231 230 229 228 227 227 226 224 223 222 221 218 216 211 205 195 186 178 169 163 158 154 151 148 146 143 138 131 124 117 110 102 0 0 0 0 0 0 0 0 0 0 0 0 0 0 0 0 0 0
0 0 0 0 0 0 0 0 30 33 38 43 49 54 59 63 66 68 69 73 85 99 113 128 138 143 146 149 151 154 156 157 159 166 188 207 214 218 220 222 224 226 227 227 228 229 229 230 232 233 235 236 238 239 241 242 242 243 243 243 243 243 242 241 241 239 239 237 235 232 231 230 228 228 226 225 224 223 222 220 220 217 215 211 205 194 184 176 168 162 158 155 150 146 142 138 133 126 117 109 101 94 88 83 0 0 0 0 0 0 0 0 0 0 0 0 0 0 0 0
0 0 0 0 0 0 0 0 25 28 33 37 43 50 54 56 60 62 64 69 77 89 100 114 128 138 144 147 150 152 154 155 158 163 179 199 212 216 218 221 222 224 225 226 227 228 229 229 231 233 236 238 239 241 242 243 243 244 244 244 244 243 243 242 242 241 240 238 236 234 231 229 228 227 226 225 223 222 221 220 218 216 214 210 204 195 186 178 168 161 159 155 150 144 139 133 127 120 111 102 95 88 82 78 0 0 0 0 0 0 0 0 0 0 0 0 0 0 0 0
0 0 0 0 0 0 0 0 19 22 27 31 37 44 47 47 52 54 56 59 66 75 84 95 110 126 137 142 146 148 151 155 158 162 171 191 208 214 217 219 221 223 224 225 226 227 228 229 231 234 237 238 239 241 242 242 243 243 244 244 243 243 243 242 241 240 239 238 236 233 231 229 227 226 225 224 223 221 220 218 216 214 212 210 205 196 187 177 169 163 160 154 149 143 136 130 124 116 107 98 90 84 79 74 71 0 0 0 0 0 0 0 0 0 0 0 0 0 0 0
0 0 0 0 0 0 0 0 13 15 20 25 31 34 39 42 44 46 48 49 53 59 62 69 86 108 125 136 140 144 150 154 159 163 166 181 203 212 215 217 220 221 223 224 225 226 227 228 230 233 236 237 238 239 240 242 242 242 242 242 242 242 241 241 240 239 237 236 235 233 231 229 226 225 224 223 221 220 219 217 216 213 211 208 204 196 188 180 171 165 161 154 148 141 135 128 119 112 104 97 91 82 76 72 69 0 0 0 0 0 0 0 0 0 0 0 0 0 0 0
0 0 0 0 0 0 0 0 8 10 16 21 25 29 33 35 36 37 36 39 39 41 42 46 61 85 109 125 131 136 144 152 158 162 163 174 197 211 214 217 219 220 221 223 224 225 226 227 228 231 233 234 236 237 237 238 239 240 240 240 240 240 239 238 236 235 234 233 231 230 228 226 224 223 223 222 221 220 218 217 215 213 210 207 202 197 190 182 173 166 161 156 146 140 131 123 116 108 100 93 87 81 76 72 68 0 0 0 0 0 0 0 0 0 0 0 0 0 0 0
0 0 0 0 0 0 0 0 6 8 12 17 20 24 26 27 29 28 26 27 27 30 33 36 44 62 83 105 116 125 136 145 153 157 158 167 189 209 213 215 217 219 221 222 223 224 224 224 225 227 229 231 233 233 232 234 234 236 237 237 237 236 236 235 232 231 230 228 227 226 224 222 222 221 221 221 220 219 217 216 214 212 209 205 202 196 189 180 173 168 161 154 145 137 128 119 111 103 95 89 83 78 74 71 66 63 0 0 0 0 0 0 0 0 0 0 0 0 0 0
0 0 0 0 0 0 0 0 5 7 10 13 16 17 20 20 20 19 18 16 19 25 29 30 36 48 64 86 102 117 128 139 148 154 156 160 186 207 211 214 216 218 220 221 221 222 222 222 222 224 226 228 230 230 229 230 232 233 234 234 233 234 233 231 229 228 227 226 225 223 222 221 220 220 220 219 219 218 216 215 213 211 208 204 200 193 186 178 171 165 159 152 142 135 126 116 108 99 91 86 81 76 73 70 66 63 0 0 0 0 0 0 0 0 0 0 0 0 0 0
0 0 0 0 0 0 0 0 7 8 10 12 13 13 14 14 12 11 10 9 12 18 25 29 33 40 49 67 94 112 123 134 144 151 154 157 179 203 209 212 215 217 219 219 220 221 222 222 223 225 227 229 231 232 230 232 234 234 234 233 233 233 232 231 230 230 230 230 228 225 224 222 221 220 219 219 218 217 215 214 211 209 206 202 198 190 182 175 168 162 158 150 142 133 124 115 106 97 89 84 79 74 70 67 62 62 0 0 0 0 0 0 0 0 0 0 0 0 0 0
0 0 0 0 0 0 0 0 8 9 10 11 12 12 11 10 8 6 4 4 6 14 22 28 31 35 41 50 77 100 115 129 140 148 153 156 174 201 207 210 213 215 217 218 219 221 221 222 223 226 229 231 232 234 235 236 237 237 236 236 236 235 235 234 234 235 234 233 230 228 225 223 221 219 219 218 217 216 214 212 210 207 203 202 196 189 180 172 166 0 0 0 0 0 120 115 105 96 89 82 77 72 67 63 60 0 0 0 0 0 0 0 0 0 0 0 0 0 0 0
0 0 0 0 0 0 0 0 9 11 11 11 11 11 10 8 6 4 2 2 4 10 20 27 31 34 36 42 52 76 98 118 134 144 152 159 170 198 205 209 212 214 216 217 219 220 221 222 223 226 228 231 234 236 237 238 238 239 238 238 238 237 238 238 237 237 236 234 232 229 226 223 220 219 218 217 215 214 213 211 209 205 202 199 194 186 180 171 0 0 0 0 0 0 0 0 0 0 0 82 74 68 63 58 55 0 0 0 0 0 0 0 0 0 0 0 0 0 0 0
0 0 0 0 0 0 0 0 0 12 12 12 11 11 10 7 5 3 1 1 2 7 16 26 30 33 35 37 41 55 77 98 119 137 148 160 173 195 203 207 209 212 214 216 217 219 220 221 223 225 228 230 233 236 238 238 239 239 239 239 239 239 239 238 238 237 236 234 232 229 225 222 220 219 217 216 214 213 212 210 207 203 200 197 191 186 0 0 0 0 0 0 0 0 0 0 0 0 0 0 0 0 0 0 0 0 0 0 0 0 0 0 0 0 0 0 0 0 0 0
0 0 0 0 0 0 0 0 0 15 15 14 12 11 10 6 4 2 1 1 2 7 17 27 31 33 33 35 37 47 57 76 96 117 138 162 177 193 200 205 208 210 213 215 216 218 219 221 223 224 226 228 231 234 236 238 239 239 239 239 239 239 239 238 238 237 235 233 229 227 225 223 220 218 217 216 213 212 210 208 205 201 199 194 190 0 0 0 0 0 0 0 0 0 0 0 0 0 0 0 0 0 0 0 0 0 0 0 0 0 0 0 0 0 0 0 0 0 0 0
0 0 0 0 0 0 0 0 0 18 18 16 12 10 9 6 4 2 2 1 2 7 17 25 31 33 34 34 36 39 45 56 72 91 116 0 182 189 197 203 206 209 212 213 215 217 219 220 221 223 225 227 229 231 234 235 237 238 238 238 238 238 238 237 236 235 233 230 228 225 223 221 219 218 216 215 213 211 209 206 203 199 196 193 0 0 0 0 0 0 0 0 0 0 0 0 0 0 0 0 0 0 0 0 0 0 0 0 0 0 0 0 0 0 0 0 0 0 0 0
0 0 0 0 0 0 0 0 0 0 0 0 0 0 0 0 0 0 0 0 0 10 17 24 30 33 34 34 35 36 39 45 51 66 89 0 0 187 193 199 204 207 210 212 214 216 217 219 221 222 225 227 228 229 230 232 233 235 235 235 236 234 234 234 232 231 230 228 226 224 222 220 219 217 215 214 212 210 207 205 201 198 194 191 0 0 0 0 0 0 0 0 0 0 0 0 0 0 0 0 0 0 0 0 0 0 0 0 0 0 0 0 0 0 0 0 0 0 0 0
0 0 0 0 0 0 0 0 0 0 0 0 0 0 0 0 0 0 0 0 0 0 0 0 29 31 33 34 34 35 37 39 42 48 66 0 0 184 188 195 200 204 207 210 212 215 217 219 220 222 224 225 227 228 228 230 231 231 232 232 232 232 231 230 230 228 227 226 225 223 221 220 218 216 214 212 210 208 205 202 198 195 192 0 0 0 0 0 0 0 0 0 0 0 0 0 0 0 0 0 0 0 0 0 0 0 0 0 0 0 0 0 0 0 0 0 0 0 0 0
0 0 0 0 0 0 0 0 0 0 0 0 0 0 0 0 0 0 0 0 0 0 0 0 0 30 31 31 33 33 34 35 35 38 49 0 0 0 183 188 197 202 205 208 211 213 215 217 219 221 223 225 226 227 228 229 230 230 231 231 231 231 230 229 228 228 227 226 224 223 221 219 217 215 213 211 209 205 202 199 195 191 189 0 0 0 0 0 0 0 0 0 0 0 0 0 0 0 0 0 0 0 0 0 0 0 0 0 0 0 0 0 0 0 0 0 0 0 0 0
0 0 0 0 0 0 0 0 0 0 0 0 0 0 0 0 0 0 0 0 0 0 0 0 0 0 0 0 30 30 31 32 32 34 37 0 0 0 175 179 188 197 201 206 209 212 214 217 218 221 222 224 226 227 228 229 230 230 230 230 230 230 230 229 228 227 226 225 0 222 220 218 216 214 212 209 206 203 199 196 191 187 185 0 0 0 0 0 0 0 0 0 0 0 0 0 0 0 0 0 0 0 0 0 0 0 0 0 0 0 0 0 0 0 0 0 0 0 0 0
0 0 0 0 0 0 0 0 0 0 0 0 0 0 0 0 0 0 0 0 0 0 0 0 0 0 0 0 0 0 0 0 0 0 0 0 0 0 167 168 177 188 197 202 207 210 213 215 218 220 222 224 226 227 227 229 229 230 230 230 230 230 230 229 228 227 0 225 224 222 220 218 216 213 210 206 203 200 196 193 188 183 181 0 0 0 0 0 0 0 0 0 0 0 0 0 0 0 0 0 0 0 0 0 0 0 0 0 0 0 0 0 0 0 0 0 0 0 0 0
0 0 0 0 0 0 0 0 0 0 0 0 0 0 0 0 0 0 0 0 0 0 0 0 0 0 0 0 0 0 0 0 0 0 0 0 0 0 0 159 163 176 189 197 202 207 210 214 217 220 222 224 225 226 227 228 229 230 230 230 230 230 229 229 228 227 226 225 223 221 220 217 214 211 208 204 199 195 191 187 183 178 175 0 0 0 0 0 0 0 0 0 0 0 0 0 0 0 0 0 0 0 0 0 0 0 0 0 0 0 0 0 0 0 0 0 0 0 0 0
0 0 0 0 0 0 0 0 0 0 0 0 0 0 0 0 0 0 0 0 0 0 0 0 0 0 0 0 0 0 0 0 0 0 0 0 0 0 0 154 156 159 173 185 194 201 207 212 217 219 221 223 225 226 227 228 228 229 229 229 229 229 229 228 228 227 226 224 223 221 219 216 213 209 205 200 195 189 185 182 177 173 168 166 0 0 0 0 0 0 0 0 0 0 0 0 0 0 0 0 0 0 0 0 0 0 0 0 0 0 0 0 0 0 0 0 0 0 0 0
0 0 0 0 0 0 0 0 0 0 0 0 0 0 0 0 0 0 0 0 0 0 0 0 0 0 0 0 0 0 0 0 0 0 0 0 0 0 0 149 150 152 158 166 178 190 199 206 213 217 220 222 224 225 226 227 228 228 228 229 228 228 228 228 227 226 225 224 222 221 218 215 210 205 200 194 188 181 176 172 167 164 162 159 155 0 0 0 0 0 0 0 0 0 0 0 0 0 0 0 0 0 0 0 0 0 0 0 0 0 0 0 0 0 0 0 0 0 0 0
0 0 0 0 0 0 0 0 0 0 0 0 0 0 0 0 0 0 0 0 0 0 0 0 0 0 0 0 0 0 0 0 0 0 0 0 0 0 0 145 146 149 152 157 163 171 183 193 205 213 218 221 223 225 225 226 227 227 227 228 228 227 227 227 226 225 224 224 221 220 216 211 205 198 193 186 180 172 168 164 160 157 154 152 149 0 0 0 0 0 0 0 0 0 0 0 0 0 0 0 0 0 0 0 0 0 0 0 0 0 0 0 0 0 0 0 0 0 0 0
0 0 0 0 0 0 0 0 0 0 0 0 0 0 0 0 0 0 0 0 0 0 0 0 0 0 0 0 0 0 0 0 0 0 0 0 0 0 0 139 142 146 151 154 157 161 168 177 188 202 210 217 221 223 224 225 226 226 226 225 225 226 226 226 225 224 223 221 219 215 211 206 198 191 184 178 172 166 162 159 156 154 151 149 145 144 0 0 0 0 0 0 0 0 0 0 0 0 0 0 0 0 0 0 0 0 0 0 0 0 0 0 0 0 0 0 0 0 0 0
0 0 0 0 0 0 0 0 0 0 0 0 0 0 0 0 0 0 0 0 0 0 0 0 0 0 0 0 0 0 0 0 0 0 0 0 0 0 0 133 140 146 150 153 155 157 160 165 173 182 196 208 217 220 222 222 223 223 223 222 221 223 222 223 222 221 219 217 215 210 205 197 190 182 176 171 166 162 159 157 155 152 150 146 143 140 136 0 0 0 0 0 0 0 0 0 0 0 0 0 0 0 0 0 0 0 0 0 0 0 0 0 0 0 0 0 0 0 0 0
0 0 0 0 0 0 0 0 0 0 0 0 0 0 0 0 0 0 0 0 0 0 0 0 0 0 0 0 0 0 0 0 0 0 0 0 0 0 0 127 139 145 149 152 154 156 158 161 165 169 176 189 205 212 217 217 217 218 217 216 215 215 216 217 217 215 214 212 208 202 196 188 181 174 168 165 162 159 158 156 153 151 149 146 143 138 132 128 0 0 0 0 0 0 0 0 0 0 0 0 0 0 0 0 0 0 0 0 0 0 0 0 0 0 0 0 0 0 0 0
0 0 0 0 0 0 0 0 0 0 0 0 0 0 0 0 0 0 0 0 0 0 0 0 0 0 0 0 0 0 0 0 0 0 0 0 0 0 116 124 136 144 148 151 153 155 157 159 160 163 166 174 185 197 203 206 208 209 210 208 206 207 208 208 208 208 205 204 199 194 187 180 173 168 164 161 160 158 156 155 152 151 148 144 141 137 131 123 117 0 0 0 0 0 0 0 0 0 0 0 0 0 0 0 0 0 0 0 0 0 0 0 0 0 0 0 0 0 0 0
0 0 0 0 0 0 0 0 0 0 0 0 0 0 0 0 0 0 0 0 0 0 0 0 0 0 0 0 0 0 0 0 0 0 0 0 0 113 115 122 135 142 146 150 152 155 156 157 159 161 163 167 173 180 186 191 197 199 200 199 198 198 197 197 196 198 195 191 187 182 177 172 167 164 162 160 159 157 156 154 153 150 147 144 140 136 130 123 117 113 0 0 0 0 0 0 0 0 0 0 0 0 0 0 0 0 0 0 0 0 0 0 0 0 0 0 0 0 0 0
0 0 0 0 0 0 0 0 0 0 0 0 0 0 0 0 0 0 0 0 0 0 0 0 0 0 0 0 0 0 0 0 0 0 0 0 0 111 115 121 134 140 146 150 152 154 156 157 159 160 161 164 168 172 176 181 183 183 187 187 186 186 183 185 183 183 182 180 178 174 170 167 164 162 161 159 158 156 155 153 151 150 147 144 140 135 131 122 116 112 109 0 0 0 0 0 0 0 0 0 0 0 0 0 0 0 0 0 0 0 0 0 0 0 0 0 0 0 0 0
0 0 0 0 0 0 0 0 0 0 0 0 0 0 0 0 0 0 0 0 0 0 0 0 0 0 0 0 0 0 0 0 0 0 0 0 112 112 114 120 133 140 145 149 151 153 155 157 158 159 161 162 165 167 170 172 173 175 174 173 174 175 174 174 173 174 174 172 171 169 166 164 162 162 160 158 157 155 154 152 150 148 146 143 138 134 129 123 116 112 109 0 0 0 0 0 0 0 0 0 0 0 0 0 0 0 0 0 0 0 0 0 0 0 0 0 0 0 0 0
0 0 0 0 0 0 0 0 0 0 0 0 0 0 0 0 0 0 0 0 0 0 0 0 0 0 0 0 0 0 0 0 0 0 115 115 114 114 114 120 132 138 145 148 150 152 154 155 157 159 161 162 163 165 167 168 170 171 170 170 171 171 171 170 170 170 170 169 168 165 165 163 162 161 159 157 156 155 153 152 150 148 146 142 137 133 129 122 115 112 111 110 112 0 0 0 0 0 0 0 0 0 0 0 0 0 0 0 0 0 0 0 0 0 0 0 0 0 0 0
0 0 0 0 0 0 0 0 0 0 0 0 0 0 0 0 0 0 0 0 0 0 0 0 0 0 0 0 0 0 0 0 0 118 118 118 118 116 116 121 132 139 144 148 150 152 154 155 156 158 160 161 162 164 165 166 168 168 169 169 169 170 169 169 169 168 168 167 166 165 164 163 161 159 158 157 156 154 153 151 149 147 145 141 136 132 129 121 116 114 113 113 114 0 0 0 0 0 0 0 0 0 0 0 0 0 0 0 0 0 0 0 0 0 0 0 0 0 0 0
0 0 0 0 0 0 0 0 0 0 0 0 0 0 0 0 0 0 0 0 0 0 0 0 0 0 0 0 0 0 0 0 118 120 121 121 120 118 118 121 130 137 144 148 150 152 153 155 156 158 159 160 162 163 164 166 167 168 168 169 169 169 169 168 168 168 167 166 165 164 163 161 160 158 157 156 154 153 151 150 149 147 145 141 137 131 127 122 117 116 116 116 117 117 0 0 0 0 0 0 0 0 0 0 0 0 0 0 0 0 0 0 0 0 0 0 0 0 0 0
0 0 0 0 0 0 0 0 0 0 0 0 0 0 0 0 0 0 0 0 0 0 0 0 0 0 0 0 0 0 0 0 118 122 124 123 121 120 120 122 125 134 144 147 149 151 153 154 155 157 159 160 161 163 164 165 167 167 168 168 168 168 168 168 168 167 167 165 165 164 162 160 159 158 156 155 154 152 151 149 148 146 144 140 136 131 127 122 118 118 118 119 120 119 119 0 0 0 0 0 0 0 0 0 0 0 0 0 0 0 0 0 0 0 0 0 0 0 0 0
0 0 0 0 0 0 0 0 0 0 0 0 0 0 0 0 0 0 0 0 0 0 0 0 0 0 0 0 0 0 0 115 121 126 127 125 123 122 121 122 124 134 143 147 149 151 153 154 155 157 158 159 161 162 163 165 166 166 167 167 167 168 168 167 167 166 166 165 164 163 162 160 159 157 156 154 153 152 150 149 147 145 143 140 135 130 126 123 120 119 120 121 122 122 120 0 0 0 0 0 0 0 0 0 0 0 0 0 0 0 0 0 0 0 0 0 0 0 0 0
0 0 0 0 0 0 0 0 0 0 0 0 0 0 0 0 0 0 0 0 0 0 0 0 0 0 0 0 0 0 0 116 123 129 129 127 124 123 123 123 128 134 143 147 149 151 152 153 155 156 157 159 160 161 163 164 165 166 166 167 0 167 0 167 166 166 165 164 163 162 160 159 158 156 155 153 152 151 150 148 147 145 142 139 136 131 126 123 121 121 121 123 124 124 122 119 0 0 0 0 0 0 0 0 0 0 0 0 0 0 0 0 0 0 0 0 0 0 0 0
0 0 0 0 0 0 0 0 0 0 0 0 0 0 0 0 0 0 0 0 0 0 0 0 0 0 0 0 0 0 117 121 127 131 132 128 126 124 124 124 130 139 143 146 149 150 152 153 154 155 156 158 159 160 162 163 164 165 166 166 167 166 166 166 165 165 164 163 162 161 160 158 157 155 155 153 152 151 149 147 146 144 142 139 137 131 127 124 123 123 123 125 127 126 124 121 117 0 0 0 0 0 0 0 0 0 0 0 0 0 0 0 0 0 0 0 0 0 0 0
0 0 0 0 0 0 0 0 0 0 0 0 0 0 0 0 0 0 0 0 0 0 0 0 0 0 0 0 112 115 119 123 130 134 133 130 127 125 124 125 132 138 143 146 148 149 151 153 154 155 156 157 158 159 160 162 163 164 165 165 166 166 165 165 164 164 163 162 161 160 158 157 156 154 154 152 151 150 149 147 145 144 142 139 136 132 128 125 124 124 126 128 129 129 126 124 119 114 110 0 0 0 0 0 0 0 0 0 0 0 0 0 0 0 0 0 0 0 0 0
0 0 0 0 0 0 0 0 0 0 0 0 0 0 0 0 0 0 0 0 0 0 0 0 0 0 0 0 112 117 122 128 133 136 135 132 128 126 125 127 133 138 142 145 148 149 151 152 153 154 155 157 158 158 159 160 161 163 163 164 164 165 164 164 163 163 162 161 160 159 158 157 155 154 153 152 151 149 149 147 145 143 141 139 136 133 129 126 125 126 127 130 132 131 129 126 122 117 111 106 102 0 0 0 0 0 0 0 0 0 0 0 0 0 0 0 0 0 0 0
0 0 0 0 0 0 0 0 0 0 0 0 0 0 0 0 0 0 0 0 0 0 0 0 0 0 98 105 113 119 124 131 136 137 137 133 129 126 125 129 134 137 141 144 147 149 150 151 152 153 155 156 157 158 159 160 161 162 162 162 163 163 163 163 162 161 161 160 159 158 157 156 155 153 152 151 151 149 147 146 144 142 140 138 136 133 129 127 126 127 130 132 134 134 132 128 124 120 114 109 103 98 95 0 0 0 0 0 0 0 0 0 0 0 0 0 0 0 0 0
0 0 0 0 0 0 0 0 0 0 0 0 0 0 0 0 0 0 0 0 0 0 0 0 0 94 97 104 113 121 126 133 138 140 139 134 129 125 125 128 133 137 141 143 146 148 149 151 152 153 154 155 156 157 158 159 160 161 161 162 162 162 162 162 161 160 160 159 158 157 156 155 154 152 151 151 149 148 147 145 143 142 140 138 135 133 130 127 127 128 131 135 136 136 134 131 127 121 116 110 106 102 96 93 0 0 0 0 0 0 0 0 0 0 0 0 0 0 0 0
0 0 0 0 0 0 0 0 0 0 0 0 0 0 0 0 0 0 0 0 0 0 0 93 96 99 102 108 115 123 128 134 139 142 141 135 129 125 125 129 134 137 141 143 145 147 148 150 152 152 154 155 156 156 157 158 159 160 161 161 161 161 161 161 161 160 159 158 157 156 155 154 153 152 151 150 148 147 146 144 143 141 139 137 135 133 130 128 128 130 133 137 138 138 135 132 128 123 117 113 110 106 101 97 94 94 93 0 0 0 0 0 0 0 0 0 0 0 0 0
0 0 0 0 0 0 0 0 0 0 0 0 0 0 0 0 0 0 0 0 0 92 95 98 101 105 109 115 120 125 130 135 141 143 142 136 131 127 126 129 134 137 139 142 144 146 148 149 151 152 153 154 155 156 157 158 159 160 160 161 161 161 161 161 160 159 159 158 157 156 155 154 153 152 151 149 148 147 145 143 142 140 139 137 135 132 130 129 129 131 135 139 139 139 138 134 130 125 121 117 114 109 105 103 101 99 97 95 96 95 0 0 0 0 0 0 0 0 0 0
0 0 0 0 0 0 0 0 0 0 0 0 0 0 0 0 0 0 0 0 87 94 102 104 106 110 115 120 124 127 132 137 142 144 142 137 131 127 127 130 135 137 139 141 144 145 148 150 151 152 153 0 0 0 0 0 0 0 0 0 0 0 0 0 0 0 0 0 0 0 0 0 0 0 0 0 148 147 145 143 142 140 138 136 134 132 130 128 130 133 137 140 140 140 138 135 132 127 124 120 117 113 109 106 104 104 102 102 101 98 94 90 0 0 0 0 0 0 0 0
0 0 0 0 0 0 0 0 0 0 0 0 0 0 0 0 0 0 0 0 84 102 106 108 110 113 118 123 126 129 0 0 0 0 0 0 0 128 128 0 0 0 0 0 0 0 0 0 0 0 0 0 0 0 0 0 0 0 0 0 0 0 0 0 0 0 0 0 0 0 0 0 0 0 0 0 0 0 0 0 0 0 0 0 0 0 0 0 0 0 0 0 0 0 0 0 0 0 0 0 116 114 111 107 106 106 105 104 103 100 94 89 85 75 0 0 0 0 0 0
0 0 0 0 0 0 0 0 0 0 0 0 0 0 0 0 0 0 0 65 83 103 0 0 0 0 0 0 0 0 0 0 0 0 0 0 0 0 0 0 0 0 0 0 0 0 0 0 0 0 0 0 0 0 0 0 0 0 0 0 0 0 0 0 0 0 0 0 0 0 0 0 0 0 0 0 0 0 0 0 0 0 0 0 0 0 0 0 0 0 0 0 0 0 0 0 0 0 0 0 0 0 0 0 0 0 0 0 0 0 0 87 80 70 65 0 0 0 0 0
0 0 0 0 0 0 0 0 0 0 0 0 0 0 0 0 0 0 52 62 0 0 0 0 0 0 0 0 0 0 0 0 0 0 0 0 0 0 0 0 0 0 0 0 0 0 0 0 0 0 0 0 0 0 0 0 0 0 0 0 0 0 0 0 0 0 0 0 0 0 0 0 0 0 0 0 0 0 0 0 0 0 0 0 0 0 0 0 0 0 0 0 0 0 0 0 0 0 0 0 0 0 0 0 0 0 0 0 0 0 0 0 0 0 0 0 0 0 0 0
