P2
120 120
255
0 0 0 0 0 0 0 0 0 0 0 0 0 0 0 0 0 0 0 0 0 0 0 0 0 0 0 0 0 0 0 0 0 0 0 0 0 0 0 0 0 0 0 0 0 0 0 0 0 0 0 0 0 0 0 0 0 0 0 0 0 0 0 0 0 0 0 0 0 0 0 0 0 0 0 0 0 0 0 0 0 0 0 0 0 0 0 0 0 0 0 0 0 0 0 0 0 0 0 0 0 0 0 0 0 0 0 0 0 0 0 0 0 0 0 0 0 0 0 0
0 0 0 0 0 0 0 0 0 0 0 0 0 0 0 0 0 0 0 0 0 0 0 0 0 0 0 0 0 0 0 0 0 0 0 0 0 0 0 0 0 0 0 0 0 0 0 0 0 0 0 0 0 142 143 143 147 153 156 155 0 0 0 0 0 0 0 0 0 0 0 0 0 0 0 0 0 0 0 0 0 0 0 0 0 0 0 0 0 0 0 0 0 0 0 0 0 0 0 0 0 0 0 0 0 0 0 0 0 0 0 0 0 0 0 0 0 0 0 0
0 0 0 0 0 0 0 0 0 0 0 0 0 0 0 0 0 0 0 0 0 0 0 0 0 0 0 0 0 0 0 0 0 0 0 0 0 0 0 0 0 0 0 0 0 0 0 0 0 0 0 0 143 147 151 151 153 156 158 157 157 157 158 159 160 160 158 156 155 155 154 153 153 0 0 0 0 0 0 0 0 0 0 0 0 0 0 0 0 0 0 0 0 0 0 0 0 0 0 0 0 0 0 0 0 0 0 0 0 0 0 0 0 0 0 0 0 0 0 0
0 0 0 0 0 0 0 0 0 0 0 0 0 0 0 0 0 0 0 0 0 0 0 0 0 0 0 0 0 0 0 0 0 0 0 0 0 0 0 0 0 0 0 0 0 0 0 0 0 0 0 142 148 154 158 159 161 164 165 164 164 163 166 167 166 163 162 160 159 161 159 158 157 156 153 0 0 0 0 0 0 0 0 0 0 0 0 0 0 0 0 0 0 0 0 0 0 0 0 0 0 0 0 0 0 0 0 0 0 0 0 0 0 0 0 0 0 0 0 0
0 0 0 0 0 0 0 0 0 0 0 0 0 0 0 0 0 0 0 0 0 0 0 0 0 0 0 0 0 0 0 0 0 0 0 0 0 0 0 0 0 0 0 0 0 0 0 0 0 0 145 148 155 163 167 169 170 173 175 174 172 173 173 175 172 169 167 167 169 168 167 165 163 160 155 155 0 0 0 0 0 0 0 0 0 0 0 0 0 0 0 0 0 0 0 0 0 0 0 0 0 0 0 0 0 0 0 0 0 0 0 0 0 0 0 0 0 0 0 0
0 0 0 0 0 0 0 0 0 0 0 0 0 0 0 0 0 0 0 0 0 0 0 0 0 0 0 0 0 0 0 0 0 0 0 0 0 0 0 0 0 0 0 0 0 0 0 0 149 149 151 155 166 173 175 177 178 180 180 181 180 179 179 179 178 177 175 176 176 175 175 173 170 165 161 160 0 0 0 0 0 0 0 0 0 0 0 0 0 0 0 0 0 0 0 0 0 0 0 0 0 0 0 0 0 0 0 0 0 0 0 0 0 0 0 0 0 0 0 0
0 0 0 0 0 0 0 0 0 0 0 0 0 0 0 0 0 0 0 0 0 0 0 0 0 0 0 0 0 0 0 0 0 0 0 0 0 0 0 0 0 0 0 137 138 139 145 150 153 156 160 168 176 180 182 183 184 185 186 186 185 186 185 184 184 184 184 183 182 182 180 180 176 171 169 166 164 0 0 0 0 0 0 0 0 0 0 0 0 0 0 0 0 0 0 0 0 0 0 0 0 0 0 0 0 0 0 0 0 0 0 0 0 0 0 0 0 0 0 0
0 0 0 0 0 0 0 0 0 0 0 0 0 0 0 0 0 0 0 0 0 0 0 0 0 0 0 0 0 0 0 0 0 0 0 0 0 0 0 0 0 0 140 141 142 147 153 157 160 164 169 176 183 186 187 187 188 189 190 190 190 190 189 189 189 189 189 187 187 186 185 185 181 178 175 171 166 164 0 0 0 0 0 0 0 0 0 0 0 0 0 0 0 0 0 0 0 0 0 0 0 0 0 0 0 0 0 0 0 0 0 0 0 0 0 0 0 0 0 0
0 0 0 0 0 0 0 0 0 0 0 0 0 0 0 0 0 0 0 0 0 0 0 0 0 0 0 0 0 0 0 0 0 0 0 0 0 0 0 0 0 139 142 146 150 156 163 167 170 173 176 181 186 189 191 191 191 192 193 193 194 195 194 193 193 192 192 191 190 189 189 188 185 183 179 174 171 167 164 160 0 0 0 0 0 0 0 0 0 0 0 0 0 0 0 0 0 0 0 0 0 0 0 0 0 0 0 0 0 0 0 0 0 0 0 0 0 0 0 0
0 0 0 0 0 0 0 0 0 0 0 0 0 0 0 0 0 0 0 0 0 0 0 0 0 0 0 0 0 0 0 0 0 0 0 0 0 0 0 0 142 142 148 152 159 166 171 176 178 180 182 185 188 191 194 194 195 195 195 195 196 197 197 196 195 194 194 193 192 192 191 191 189 186 184 178 174 170 165 162 159 154 0 0 0 0 0 0 0 0 0 0 0 0 0 0 0 0 0 0 0 0 0 0 0 0 0 0 0 0 0 0 0 0 0 0 0 0 0 0
0 0 0 0 0 0 0 0 0 0 0 0 0 0 0 0 0 0 0 0 0 0 0 0 0 0 0 0 0 0 0 0 0 0 0 0 0 0 0 145 144 148 155 163 167 172 177 182 185 187 188 190 192 195 196 197 197 197 197 197 198 199 200 199 197 196 196 196 195 194 193 192 192 189 186 182 178 173 169 164 160 155 152 149 0 0 0 0 0 0 0 0 0 0 0 0 0 0 0 0 0 0 0 0 0 0 0 0 0 0 0 0 0 0 0 0 0 0 0 0
0 0 0 0 0 0 0 0 0 0 0 0 0 0 0 0 0 0 0 0 0 0 0 0 0 0 0 0 0 0 0 0 0 0 0 0 0 0 151 149 148 155 164 170 174 178 182 186 189 191 193 194 196 198 199 199 199 199 200 200 200 201 202 202 200 200 199 198 197 197 195 194 193 192 188 186 183 179 172 166 162 158 155 153 154 0 0 0 0 0 0 0 0 0 0 0 0 0 0 0 0 0 0 0 0 0 0 0 0 0 0 0 0 0 0 0 0 0 0 0
0 0 0 0 0 0 0 0 0 0 0 0 0 0 0 0 0 0 0 0 0 0 0 0 0 0 0 0 0 0 0 0 0 0 0 0 0 0 154 152 155 162 170 177 179 182 186 190 192 194 196 197 199 200 201 201 201 202 203 204 203 204 204 203 202 202 201 200 199 200 199 196 194 193 191 191 189 183 175 171 167 164 163 162 159 159 0 0 0 0 0 0 0 0 0 0 0 0 0 0 0 0 0 0 0 0 0 0 0 0 0 0 0 0 0 0 0 0 0 0
0 0 0 0 0 0 0 0 0 0 0 0 0 0 0 0 0 0 0 0 0 0 0 0 0 0 0 0 0 0 0 0 0 0 0 0 0 0 157 158 162 171 178 180 183 186 190 192 195 198 198 200 201 202 203 203 204 205 205 206 206 206 205 205 204 203 203 202 201 202 201 199 196 195 194 193 190 185 180 176 173 171 169 167 163 161 0 0 0 0 0 0 0 0 0 0 0 0 0 0 0 0 0 0 0 0 0 0 0 0 0 0 0 0 0 0 0 0 0 0
0 0 0 0 0 0 0 0 0 0 0 0 0 0 0 0 0 0 0 0 0 0 0 0 0 0 0 0 0 0 0 0 0 0 0 0 156 156 159 164 170 178 183 185 188 191 193 195 197 200 202 203 204 205 205 205 205 206 207 208 208 208 207 207 206 206 205 204 204 204 204 201 199 197 197 196 193 188 184 180 179 176 174 171 168 165 0 0 0 0 0 0 0 0 0 0 0 0 0 0 0 0 0 0 0 0 0 0 0 0 0 0 0 0 0 0 0 0 0 0
0 0 0 0 0 0 0 0 0 0 0 0 0 0 0 0 0 0 0 0 0 0 0 0 0 0 0 0 0 0 0 0 0 0 0 0 158 160 164 169 177 183 187 188 192 196 197 197 198 201 203 205 206 207 207 207 208 208 209 209 209 209 209 209 208 207 207 206 206 206 205 203 201 200 200 199 196 192 188 186 184 182 180 176 173 168 165 0 0 0 0 0 0 0 0 0 0 0 0 0 0 0 0 0 0 0 0 0 0 0 0 0 0 0 0 0 0 0 0 0
0 0 0 0 0 0 0 0 0 0 0 0 0 0 0 0 0 0 0 0 0 0 0 0 0 0 0 0 0 0 0 0 0 0 0 159 160 163 168 173 181 186 188 190 193 197 199 200 201 202 205 207 207 208 209 210 210 211 211 211 211 211 210 211 210 210 208 208 208 206 206 205 203 201 201 200 198 195 192 190 189 187 185 182 177 172 166 162 0 0 0 0 0 0 0 0 0 0 0 0 0 0 0 0 0 0 0 0 0 0 0 0 0 0 0 0 0 0 0 0
0 0 0 0 0 0 0 0 0 0 0 0 0 0 0 0 0 0 0 0 0 0 0 0 0 0 0 0 0 0 0 0 0 0 0 157 161 166 171 177 183 188 190 191 194 197 200 201 203 204 207 208 209 210 211 212 213 213 214 213 213 213 213 213 213 212 212 210 209 208 207 206 204 203 201 200 198 196 194 193 192 189 188 185 180 175 169 164 162 0 0 0 0 0 0 0 0 0 0 0 0 0 0 0 0 0 0 0 0 0 0 0 0 0 0 0 0 0 0 0
0 0 0 0 0 0 0 0 0 0 0 0 0 0 0 0 0 0 0 0 0 0 0 0 0 0 0 0 0 0 0 0 0 0 152 156 164 171 176 180 186 189 191 193 196 198 201 203 206 208 209 210 211 213 214 215 215 216 216 216 216 216 216 216 216 215 214 212 211 211 209 208 206 204 202 200 199 196 195 195 192 190 189 186 182 177 170 164 160 158 0 0 0 0 0 0 0 0 0 0 0 0 0 0 0 0 0 0 0 0 0 0 0 0 0 0 0 0 0 0
0 0 0 0 0 0 0 0 0 0 0 0 0 0 0 0 0 0 0 0 0 0 0 0 0 0 0 0 0 0 0 0 0 150 153 159 168 175 179 184 188 191 193 196 198 201 203 206 208 210 212 213 214 215 217 217 218 219 219 219 220 219 219 219 219 218 217 216 215 213 212 211 209 207 205 202 201 198 197 196 193 191 189 187 184 178 173 168 163 160 0 0 0 0 0 0 0 0 0 0 0 0 0 0 0 0 0 0 0 0 0 0 0 0 0 0 0 0 0 0
0 0 0 0 0 0 0 0 0 0 0 0 0 0 0 0 0 0 0 0 0 0 0 0 0 0 0 0 0 0 0 0 149 152 157 164 173 178 182 185 189 193 195 198 201 204 206 208 210 212 214 215 217 217 219 220 221 222 222 223 223 222 222 221 222 221 220 219 217 216 215 213 212 210 207 205 203 200 199 197 194 193 191 188 186 181 177 171 167 163 160 0 0 0 0 0 0 0 0 0 0 0 0 0 0 0 0 0 0 0 0 0 0 0 0 0 0 0 0 0
0 0 0 0 0 0 0 0 0 0 0 0 0 0 0 0 0 0 0 0 0 0 0 0 0 0 0 0 0 0 0 0 150 158 165 171 176 181 184 188 192 195 198 201 203 206 208 211 213 215 216 217 219 221 222 222 223 224 224 225 224 225 225 224 224 223 222 221 220 219 217 216 214 212 210 207 205 203 200 198 197 195 193 191 190 185 180 176 172 167 162 0 0 0 0 0 0 0 0 0 0 0 0 0 0 0 0 0 0 0 0 0 0 0 0 0 0 0 0 0
0 0 0 0 0 0 0 0 0 0 0 0 0 0 0 0 0 0 0 0 0 0 0 0 0 0 0 0 0 0 0 151 154 165 172 176 180 184 187 191 195 198 201 204 206 208 211 213 215 217 219 220 221 223 224 225 225 226 227 227 227 227 227 226 226 225 225 224 223 221 220 218 217 215 213 211 208 206 203 200 199 197 195 193 192 189 184 181 175 170 164 162 0 0 0 0 0 0 0 0 0 0 0 0 0 0 0 0 0 0 0 0 0 0 0 0 0 0 0 0
0 0 0 0 0 0 0 0 0 0 0 0 0 0 0 0 0 0 0 0 0 0 0 0 0 0 0 0 0 0 0 153 159 168 176 179 182 185 190 194 198 200 203 206 209 211 213 216 218 220 222 223 225 225 226 227 228 228 229 229 229 229 229 229 228 228 227 226 225 224 223 221 219 218 216 213 211 208 205 203 200 199 197 195 194 191 188 184 177 171 166 162 0 0 0 0 0 0 0 0 0 0 0 0 0 0 0 0 0 0 0 0 0 0 0 0 0 0 0 0
0 0 0 0 0 0 0 0 0 0 0 0 0 0 0 0 0 0 0 0 0 0 0 0 0 0 0 0 0 0 153 156 164 171 177 181 184 188 192 196 200 203 205 208 212 214 216 219 221 222 224 225 226 227 228 229 229 230 230 230 231 231 231 230 230 230 229 228 227 226 225 223 222 220 217 215 214 211 208 205 203 200 198 196 195 193 189 184 178 173 168 164 162 0 0 0 0 0 0 0 0 0 0 0 0 0 0 0 0 0 0 0 0 0 0 0 0 0 0 0
0 0 0 0 0 0 0 0 0 0 0 0 0 0 0 0 0 0 0 0 0 0 0 0 0 0 0 0 0 0 155 160 167 174 178 182 186 190 195 198 202 205 208 210 213 216 218 221 223 225 226 227 228 229 230 231 231 232 232 232 232 232 232 232 231 231 230 230 229 228 227 225 224 222 220 218 216 213 210 208 205 202 199 197 194 191 188 184 179 174 169 165 163 0 0 0 0 0 0 0 0 0 0 0 0 0 0 0 0 0 0 0 0 0 0 0 0 0 0 0
0 0 0 0 0 0 0 0 0 0 0 0 0 0 0 0 0 0 0 0 0 0 0 0 0 0 0 0 0 0 157 163 173 178 181 184 188 192 197 200 203 206 209 212 215 218 220 222 224 226 228 229 230 230 231 232 232 233 233 233 233 233 233 233 233 233 232 231 230 229 228 227 226 224 222 220 218 215 213 210 207 204 201 199 195 192 189 184 180 175 171 167 164 0 0 0 0 0 0 0 0 0 0 0 0 0 0 0 0 0 0 0 0 0 0 0 0 0 0 0
0 0 0 0 0 0 0 0 0 0 0 0 0 0 0 0 0 0 0 0 0 0 0 0 0 0 0 0 0 157 160 166 177 181 184 186 189 194 198 202 205 209 212 215 217 220 222 224 226 227 229 230 231 232 233 233 234 234 234 234 234 234 234 234 234 234 233 232 231 230 230 229 227 225 223 221 218 216 214 211 209 206 203 201 198 195 190 187 183 179 174 169 165 161 0 0 0 0 0 0 0 0 0 0 0 0 0 0 0 0 0 0 0 0 0 0 0 0 0 0
0 0 0 0 0 0 0 0 0 0 0 0 0 0 0 0 0 0 0 0 0 0 0 0 0 0 0 0 0 159 162 167 179 184 186 188 192 197 200 204 207 210 213 216 219 221 223 226 227 229 230 231 232 233 234 235 235 235 236 236 236 236 235 235 235 235 234 233 232 232 231 230 228 226 225 223 221 218 215 213 210 208 205 201 199 196 192 188 185 181 176 171 166 161 0 0 0 0 0 0 0 0 0 0 0 0 0 0 0 0 0 0 0 0 0 0 0 0 0 0
0 0 0 0 0 0 0 0 0 0 0 0 0 0 0 0 0 0 0 0 0 0 0 0 0 0 0 0 0 158 161 171 179 186 188 190 194 197 202 205 209 212 214 217 220 222 224 226 228 230 231 232 233 234 235 235 236 236 236 237 237 236 236 236 236 235 235 234 234 233 232 231 229 228 226 224 223 220 217 215 212 209 206 203 200 197 193 189 187 183 179 174 169 162 0 0 0 0 0 0 0 0 0 0 0 0 0 0 0 0 0 0 0 0 0 0 0 0 0 0
0 0 0 0 0 0 0 0 0 0 0 0 0 0 0 0 0 0 0 0 0 0 0 0 0 0 0 0 0 157 163 172 182 186 189 192 195 199 203 206 210 213 216 219 221 224 226 227 229 231 232 233 234 235 236 236 236 237 237 237 237 237 237 237 237 236 236 235 234 234 233 232 231 229 227 226 224 221 219 217 214 210 208 204 201 197 195 192 188 185 181 177 171 166 163 0 0 0 0 0 0 0 0 0 0 0 0 0 0 0 0 0 0 0 0 0 0 0 0 0
0 0 0 0 0 0 0 0 0 0 0 0 0 0 0 0 0 0 0 0 0 0 0 0 0 0 0 0 152 155 163 175 182 186 188 192 197 201 204 208 212 214 217 220 222 225 227 229 230 232 233 234 235 236 236 237 237 238 238 238 238 238 238 237 237 237 236 236 235 234 234 232 231 230 228 227 224 222 220 218 215 212 209 205 202 199 195 192 189 186 182 178 173 168 166 0 0 0 0 0 0 0 0 0 0 0 0 0 0 0 0 0 0 0 0 0 0 0 0 0
0 0 0 0 0 0 0 0 0 0 0 0 0 0 0 0 0 0 0 0 0 0 0 0 0 0 0 0 151 152 159 173 182 186 189 193 197 202 206 209 213 216 218 221 224 226 228 230 231 233 233 234 235 236 237 237 238 238 238 238 238 238 238 238 238 237 237 236 236 235 234 234 232 231 229 227 225 223 220 218 216 213 210 207 204 200 197 193 190 186 182 178 172 167 164 0 0 0 0 0 0 0 0 0 0 0 0 0 0 0 0 0 0 0 0 0 0 0 0 0
0 0 0 0 0 0 0 0 0 0 0 0 0 0 0 0 0 0 0 0 0 0 0 0 0 0 0 0 147 150 158 171 181 186 190 195 198 203 207 210 214 217 220 222 224 226 228 230 232 233 234 235 236 237 237 238 238 238 239 239 239 239 238 238 238 238 237 237 236 236 235 234 233 231 230 228 226 224 222 219 217 214 211 208 204 201 198 194 190 186 182 178 173 165 163 0 0 0 0 0 0 0 0 0 0 0 0 0 0 0 0 0 0 0 0 0 0 0 0 0
0 0 0 0 0 0 0 0 0 0 0 0 0 0 0 0 0 0 0 0 0 0 0 0 0 0 0 0 146 149 158 170 181 186 192 196 200 204 208 211 215 218 221 223 225 227 229 231 233 234 235 236 237 237 238 238 239 239 239 239 239 239 239 239 238 238 238 237 237 236 236 235 234 232 230 229 227 225 223 220 218 215 212 208 205 202 198 195 191 186 182 177 171 164 159 0 0 0 0 0 0 0 0 0 0 0 0 0 0 0 0 0 0 0 0 0 0 0 0 0
0 0 0 0 0 0 0 0 0 0 0 0 0 0 0 0 0 0 0 0 0 0 0 0 0 0 0 145 147 152 159 172 180 187 192 197 201 205 209 213 216 219 221 224 226 228 230 232 233 234 235 236 237 238 238 239 239 239 239 239 239 239 239 239 239 239 238 238 238 237 237 235 234 233 231 230 228 226 224 222 219 216 213 210 206 203 200 195 191 187 182 176 170 164 159 155 0 0 0 0 0 0 0 0 0 0 0 0 0 0 0 0 0 0 0 0 0 0 0 0
0 0 0 0 0 0 0 0 0 0 0 0 0 0 0 0 0 0 0 0 0 0 0 0 0 0 0 147 151 156 163 174 182 188 193 198 202 206 210 213 217 220 222 225 227 229 231 233 234 235 236 237 238 238 239 239 239 240 240 240 240 240 240 240 239 239 239 238 238 238 237 236 235 234 232 231 229 227 225 223 220 217 215 211 208 204 200 195 192 187 181 175 169 164 158 154 0 0 0 0 0 0 0 0 0 0 0 0 0 0 0 0 0 0 0 0 0 0 0 0
0 0 0 0 0 0 0 0 0 0 0 0 0 0 0 0 0 0 0 0 0 0 0 0 0 0 0 148 153 160 167 176 183 189 194 198 202 206 211 214 217 220 223 225 227 230 231 233 234 235 237 238 238 239 239 240 240 240 240 240 240 240 240 240 240 239 239 239 239 238 237 236 235 234 233 232 230 228 227 224 221 219 215 212 208 205 200 196 191 186 182 176 169 163 158 154 0 0 0 0 0 0 0 0 0 0 0 0 0 0 0 0 0 0 0 0 0 0 0 0
0 0 0 0 0 0 0 0 0 0 0 0 0 0 0 0 0 0 0 0 0 0 0 0 0 0 0 150 156 165 170 176 182 190 195 199 203 208 212 216 219 221 224 226 228 230 232 234 235 236 237 238 238 239 239 240 240 240 240 240 240 240 240 240 240 240 240 239 239 239 238 237 236 235 234 233 231 229 227 224 222 220 217 213 210 206 201 195 191 187 182 178 171 164 157 154 0 0 0 0 0 0 0 0 0 0 0 0 0 0 0 0 0 0 0 0 0 0 0 0
0 0 0 0 0 0 0 0 0 0 0 0 0 0 0 0 0 0 0 0 0 0 0 0 0 0 149 153 161 168 172 176 183 190 195 200 203 208 213 216 219 222 225 227 229 231 232 234 235 236 238 238 239 239 239 240 240 240 240 240 240 240 240 240 240 240 240 240 239 239 238 237 236 235 234 233 231 230 228 226 223 220 218 214 211 207 201 195 191 187 183 177 171 164 158 153 0 0 0 0 0 0 0 0 0 0 0 0 0 0 0 0 0 0 0 0 0 0 0 0
0 0 0 0 0 0 0 0 0 0 0 0 0 0 0 0 0 0 0 0 0 0 0 0 0 0 150 155 164 169 173 177 184 190 195 200 205 210 214 218 220 223 226 228 230 232 234 235 236 237 238 239 239 239 240 240 240 240 240 240 240 240 240 240 240 240 240 240 239 239 238 237 237 236 235 234 232 231 229 227 225 222 220 217 213 207 203 196 191 186 182 177 171 166 158 153 0 0 0 0 0 0 0 0 0 0 0 0 0 0 0 0 0 0 0 0 0 0 0 0
0 0 0 0 0 0 0 0 0 0 0 0 0 0 0 0 0 0 0 0 0 0 0 0 0 145 149 153 165 171 173 177 184 191 196 200 206 211 215 219 221 224 227 229 231 233 234 235 236 237 238 239 239 239 240 240 240 240 240 240 240 240 240 240 240 240 240 239 239 239 238 237 237 236 235 234 233 231 229 228 226 223 221 217 214 209 204 197 191 185 181 177 171 165 158 152 149 0 0 0 0 0 0 0 0 0 0 0 0 0 0 0 0 0 0 0 0 0 0 0
0 0 0 0 0 0 0 0 0 0 0 0 0 0 0 0 0 0 0 0 0 0 0 0 0 139 143 153 164 170 173 178 185 190 196 202 206 212 216 220 224 226 228 230 231 233 234 235 236 237 238 239 239 239 239 240 240 240 240 240 240 240 240 240 240 239 239 239 239 239 238 237 236 235 234 233 232 231 229 228 226 224 222 219 215 211 206 199 191 185 181 177 172 165 159 153 151 0 0 0 0 0 0 0 0 0 0 0 0 0 0 0 0 0 0 0 0 0 0 0
0 0 0 0 0 0 0 0 0 0 0 0 0 0 0 0 0 0 0 0 0 0 0 0 0 132 137 149 160 168 173 178 185 190 195 201 208 214 219 222 225 227 229 230 231 233 234 235 236 237 238 238 239 239 239 239 240 240 240 240 240 240 240 240 239 239 239 239 238 238 236 236 235 234 233 232 231 230 229 227 226 224 222 219 216 212 207 199 192 186 181 177 172 166 161 156 0 0 0 0 0 0 0 0 0 0 0 0 0 0 0 0 0 0 0 0 0 0 0 0
0 0 0 0 0 0 0 0 0 0 0 0 0 0 0 0 0 0 0 0 0 0 0 0 0 125 131 143 158 168 173 179 184 189 196 203 210 215 220 223 224 227 229 230 231 232 233 234 235 236 237 237 238 238 239 239 239 239 239 240 240 240 239 239 239 238 238 238 238 237 236 234 234 232 232 231 230 229 228 227 225 224 222 219 216 212 206 200 192 187 181 177 173 168 163 159 0 0 0 0 0 0 0 0 0 0 0 0 0 0 0 0 0 0 0 0 0 0 0 0
0 0 0 0 0 0 0 0 0 0 0 0 0 0 0 0 0 0 0 0 0 0 0 0 0 118 123 134 150 167 175 180 184 189 197 205 211 217 220 223 225 226 228 229 230 231 232 233 233 234 235 236 236 237 237 238 239 239 239 239 239 239 239 238 238 238 237 237 236 236 234 233 232 231 231 230 229 228 227 226 225 223 222 219 216 212 208 201 194 187 182 178 175 170 164 160 0 0 0 0 0 0 0 0 0 0 0 0 0 0 0 0 0 0 0 0 0 0 0 0
0 0 0 0 0 0 0 0 0 0 0 0 0 0 0 0 0 0 0 0 0 0 0 0 0 112 115 123 144 160 174 179 184 189 198 207 212 216 220 222 224 226 227 228 229 230 231 232 232 233 234 235 235 236 236 237 238 238 0 0 0 239 0 238 237 237 236 236 235 234 233 232 231 231 230 229 228 227 226 225 224 222 220 218 216 212 207 202 195 188 184 179 175 170 165 161 0 0 0 0 0 0 0 0 0 0 0 0 0 0 0 0 0 0 0 0 0 0 0 0
0 0 0 0 0 0 0 0 0 0 0 0 0 0 0 0 0 0 0 0 0 0 0 0 0 0 113 121 136 157 172 178 182 189 198 206 211 215 219 221 224 226 227 228 229 230 230 231 231 232 233 233 234 235 235 236 237 237 238 239 239 0 238 237 237 236 235 234 233 233 232 231 230 230 230 229 228 227 226 225 223 221 219 217 215 212 208 203 195 188 184 179 175 170 165 162 159 0 0 0 0 0 0 0 0 0 0 0 0 0 0 0 0 0 0 0 0 0 0 0
0 0 0 0 0 0 0 0 0 0 0 0 0 0 0 0 0 0 0 0 0 0 0 0 0 0 116 123 137 153 169 175 182 189 197 205 210 215 218 221 223 224 226 227 228 229 230 230 230 230 231 232 233 233 234 235 236 237 238 238 238 238 238 237 236 235 234 233 232 232 230 230 229 229 229 229 228 228 227 224 222 220 219 216 214 211 207 202 196 189 183 179 174 168 164 160 158 0 0 0 0 0 0 0 0 0 0 0 0 0 0 0 0 0 0 0 0 0 0 0
0 0 0 0 0 0 0 0 0 0 0 0 0 0 0 0 0 0 0 0 0 0 0 0 0 0 122 128 139 152 169 176 182 190 197 205 210 214 217 219 222 224 226 227 228 228 229 229 229 229 230 230 231 232 232 234 235 236 237 238 238 238 237 236 235 234 233 232 231 230 229 229 228 227 227 227 227 226 225 224 221 220 218 216 213 210 206 201 196 189 184 178 173 167 161 158 155 0 0 0 0 0 0 0 0 0 0 0 0 0 0 0 0 0 0 0 0 0 0 0
0 0 0 0 0 0 0 0 0 0 0 0 0 0 0 0 0 0 0 0 0 0 0 0 0 0 128 134 143 154 167 176 182 191 199 205 209 212 216 218 222 223 226 226 226 227 227 227 227 227 228 228 229 230 231 232 234 235 237 237 238 238 237 237 235 233 232 231 230 229 228 228 227 226 226 226 226 225 223 222 220 219 217 214 212 209 205 201 195 189 183 178 173 165 160 156 151 148 0 0 0 0 0 0 0 0 0 0 0 0 0 0 0 0 0 0 0 0 0 0
0 0 0 0 0 0 0 0 0 0 0 0 0 0 0 0 0 0 0 0 0 0 0 0 0 0 134 138 146 156 167 177 183 192 199 205 209 211 214 217 221 223 224 224 225 226 226 226 226 226 227 227 228 229 230 231 233 235 236 237 238 238 237 237 235 233 231 230 228 227 227 227 226 225 225 225 225 224 223 221 220 218 215 213 211 208 205 201 196 188 182 177 172 165 159 153 149 145 141 0 0 0 0 0 0 0 0 0 0 0 0 0 0 0 0 0 0 0 0 0
0 0 0 0 0 0 0 0 0 0 0 0 0 0 0 0 0 0 0 0 0 0 0 0 0 0 137 141 146 158 170 177 184 192 200 205 208 211 213 216 220 222 221 223 224 226 226 225 226 226 226 226 227 227 229 231 233 234 236 238 238 238 238 237 235 233 231 229 227 226 226 226 226 226 226 226 225 225 223 222 220 218 215 213 211 209 205 201 194 187 180 174 169 162 156 151 146 140 137 0 0 0 0 0 0 0 0 0 0 0 0 0 0 0 0 0 0 0 0 0
0 0 0 0 0 0 0 0 0 0 0 0 0 0 0 0 0 0 0 0 0 0 0 0 0 0 138 140 146 156 169 177 184 194 199 204 208 210 212 214 217 220 222 223 225 226 226 226 226 226 227 227 226 226 228 229 232 235 237 238 239 239 239 238 236 233 230 228 227 226 226 226 227 227 227 227 226 225 225 223 220 217 215 213 211 209 205 200 193 185 177 170 165 159 154 149 144 139 135 133 0 0 0 0 0 0 0 0 0 0 0 0 0 0 0 0 0 0 0 0
0 0 0 0 0 0 0 0 0 0 0 0 0 0 0 0 0 0 0 0 0 0 0 0 0 135 137 139 143 151 164 175 183 191 200 204 208 210 212 214 217 219 222 224 226 227 228 228 228 228 227 227 227 227 228 230 233 235 238 240 241 241 240 239 236 233 231 229 227 227 227 227 227 228 228 227 226 225 224 223 220 218 215 213 212 209 206 201 191 184 174 166 160 155 150 145 142 137 134 132 0 0 0 0 0 0 0 0 0 0 0 0 0 0 0 0 0 0 0 0
0 0 0 0 0 0 0 0 0 0 0 0 0 0 0 0 0 0 0 0 0 0 0 0 0 135 135 136 138 145 158 167 176 186 199 205 208 210 213 215 217 219 221 224 225 227 227 228 228 228 228 228 228 228 229 231 233 236 239 241 242 242 241 241 238 236 232 230 229 228 227 227 227 227 227 227 226 225 224 222 220 218 216 214 212 210 207 201 191 182 173 165 156 151 147 143 139 136 135 134 0 0 0 0 0 0 0 0 0 0 0 0 0 0 0 0 0 0 0 0
0 0 0 0 0 0 0 0 0 0 0 0 0 0 0 0 0 0 0 0 0 0 0 0 0 133 134 134 136 141 150 159 168 181 197 205 208 211 214 215 217 220 221 223 224 226 227 227 227 228 228 228 228 229 230 232 235 237 240 242 243 243 243 242 240 238 234 232 230 229 228 227 227 226 226 225 225 224 223 221 220 218 216 214 212 210 207 201 191 181 172 163 154 150 146 140 138 136 135 134 0 0 0 0 0 0 0 0 0 0 0 0 0 0 0 0 0 0 0 0
0 0 0 0 0 0 0 0 0 0 0 0 0 0 0 0 0 0 0 0 0 0 0 0 0 132 133 133 135 140 146 153 162 176 194 205 209 212 214 216 218 220 221 222 224 225 226 226 227 227 228 229 229 230 232 235 237 239 242 244 245 245 244 243 242 239 236 234 232 230 229 228 227 227 226 225 225 224 223 222 220 219 217 216 214 212 207 200 191 182 171 162 155 150 146 140 138 136 133 132 0 0 0 0 0 0 0 0 0 0 0 0 0 0 0 0 0 0 0 0
0 0 0 0 0 0 0 0 0 0 0 0 0 0 0 0 0 0 0 0 0 0 0 0 0 132 133 135 137 140 143 149 156 169 192 206 210 213 215 217 218 221 222 223 224 225 226 227 227 228 229 230 231 233 234 237 238 241 244 245 246 246 246 245 243 241 238 235 233 231 230 229 228 227 227 226 225 225 224 223 222 220 219 217 216 213 208 201 190 182 172 162 155 150 145 140 137 135 133 131 0 0 0 0 0 0 0 0 0 0 0 0 0 0 0 0 0 0 0 0
0 0 0 0 0 0 0 0 0 0 0 0 0 0 0 0 0 0 0 0 0 0 0 0 0 131 133 135 139 141 142 145 150 162 193 207 211 214 216 218 221 223 223 224 225 226 227 228 228 229 230 231 232 233 235 238 240 242 245 246 247 247 247 245 244 242 239 236 235 233 232 231 230 229 228 227 227 226 225 224 223 222 220 219 217 213 208 201 192 182 172 163 154 149 145 140 137 135 133 132 0 0 0 0 0 0 0 0 0 0 0 0 0 0 0 0 0 0 0 0
0 0 0 0 0 0 0 0 0 0 0 0 0 0 0 0 0 0 0 0 0 0 0 0 0 131 133 134 138 139 140 142 146 157 188 208 212 215 218 220 222 224 225 226 227 228 228 229 230 231 232 232 233 235 236 239 241 244 246 248 248 248 247 246 245 243 241 237 236 234 233 232 231 230 230 229 228 227 226 225 224 223 221 219 217 214 210 202 192 181 172 165 155 149 146 140 137 135 134 133 0 0 0 0 0 0 0 0 0 0 0 0 0 0 0 0 0 0 0 0
0 0 0 0 0 0 0 0 0 0 0 0 0 0 0 0 0 0 0 0 0 0 0 0 134 132 133 135 138 139 139 139 144 158 187 208 213 217 220 221 224 225 226 228 229 229 230 230 231 232 233 233 234 236 237 240 243 246 248 249 250 250 249 248 246 244 241 238 236 234 233 233 232 232 231 230 229 228 227 226 225 224 222 220 217 214 210 199 190 180 172 162 154 151 147 142 138 136 135 134 0 0 0 0 0 0 0 0 0 0 0 0 0 0 0 0 0 0 0 0
0 0 0 0 0 0 0 0 0 0 0 0 0 0 0 0 0 0 0 0 0 0 0 0 134 134 134 135 138 138 138 138 144 160 190 209 213 218 221 223 225 226 227 229 230 230 231 232 232 233 233 234 235 236 238 241 245 248 250 251 252 252 251 250 248 245 242 239 236 235 234 233 233 232 232 231 230 229 228 227 226 224 223 220 218 214 208 199 189 181 172 162 155 151 148 143 139 137 135 134 0 0 0 0 0 0 0 0 0 0 0 0 0 0 0 0 0 0 0 0
0 0 0 0 0 0 0 0 0 0 0 0 0 0 0 0 0 0 0 0 0 0 0 132 134 134 134 136 138 138 138 139 145 160 188 209 214 218 221 224 225 227 228 229 230 231 232 232 233 233 233 234 235 236 239 242 245 249 251 252 253 253 252 251 249 246 243 240 237 235 234 233 233 232 232 231 230 229 229 228 227 225 223 221 218 215 208 200 190 181 171 162 155 151 146 143 140 138 136 134 0 0 0 0 0 0 0 0 0 0 0 0 0 0 0 0 0 0 0 0
0 0 0 0 0 0 0 0 0 0 0 0 0 0 0 0 0 0 0 0 0 124 126 130 134 134 136 138 139 139 139 141 147 157 186 210 215 219 222 224 226 227 229 230 231 231 232 232 233 233 0 234 235 237 240 243 247 250 252 253 254 254 253 252 250 247 245 241 238 235 234 233 232 232 232 231 231 230 229 228 226 225 223 221 219 214 207 200 191 182 173 164 156 150 147 144 142 139 136 0 0 0 0 0 0 0 0 0 0 0 0 0 0 0 0 0 0 0 0 0
0 0 0 0 0 0 0 0 0 0 0 0 0 0 0 0 0 0 0 0 117 120 124 129 133 136 137 140 141 141 140 141 146 154 185 210 216 219 222 225 227 228 229 230 231 231 232 233 233 233 233 234 235 239 242 246 249 251 253 254 254 254 254 253 250 248 246 243 240 236 233 0 232 232 231 231 230 230 229 228 227 225 224 222 220 215 209 201 191 180 173 165 158 153 150 148 144 140 137 0 0 0 0 0 0 0 0 0 0 0 0 0 0 0 0 0 0 0 0 0
0 0 0 0 0 0 0 0 0 0 0 0 0 0 0 0 0 0 105 110 112 116 120 126 133 137 138 140 143 144 144 144 148 157 188 210 215 219 222 225 227 228 229 230 231 231 232 232 233 233 233 233 235 240 245 247 250 252 253 254 255 254 253 252 250 248 246 244 240 235 233 232 232 231 231 230 230 229 229 228 227 225 223 221 219 216 210 201 190 180 172 165 158 154 152 149 146 142 138 0 0 0 0 0 0 0 0 0 0 0 0 0 0 0 0 0 0 0 0 0
0 0 0 0 0 0 0 0 0 0 0 0 0 0 0 0 0 93 100 102 105 109 114 122 132 137 138 141 144 148 149 150 153 162 189 210 215 219 223 225 226 227 229 230 230 231 232 232 232 232 232 233 236 241 245 248 249 251 253 254 254 254 253 251 249 248 246 244 240 235 232 232 231 231 230 230 0 229 228 228 226 225 223 221 219 215 209 200 189 180 172 163 158 154 152 149 145 142 139 0 0 0 0 0 0 0 0 0 0 0 0 0 0 0 0 0 0 0 0 0
0 0 0 0 0 0 0 0 0 0 0 0 0 0 0 76 83 86 89 93 97 102 110 119 132 137 138 142 146 150 152 154 157 165 188 208 214 219 222 224 226 227 229 230 230 231 231 232 232 232 232 233 235 240 244 246 247 249 251 253 253 253 251 248 248 246 244 242 238 234 232 231 231 230 230 230 229 229 228 227 226 224 222 221 218 214 207 198 189 179 171 163 158 154 151 148 145 141 139 0 0 0 0 0 0 0 0 0 0 0 0 0 0 0 0 0 0 0 0 0
0 0 0 0 0 0 0 0 0 0 0 0 0 0 64 71 75 78 82 87 91 96 106 118 131 137 139 142 147 151 153 156 158 165 183 206 214 218 221 224 225 227 228 229 230 230 231 231 231 231 232 232 234 237 239 241 242 245 247 249 250 249 247 244 241 242 241 239 236 233 232 231 230 230 229 229 228 228 227 227 226 224 222 220 217 211 204 195 186 176 167 163 158 155 152 148 145 142 141 0 0 0 0 0 0 0 0 0 0 0 0 0 0 0 0 0 0 0 0 0
0 0 0 0 0 0 0 0 0 0 0 0 52 56 61 66 71 74 78 81 84 91 103 117 130 138 141 143 147 151 153 155 157 163 179 200 212 217 221 223 225 226 228 229 229 230 230 231 231 231 231 233 234 235 236 238 240 241 243 244 246 245 242 240 239 238 237 236 234 232 231 230 230 229 229 228 228 227 227 226 225 223 221 219 215 209 200 191 182 173 166 160 157 156 152 150 146 144 140 136 0 0 0 0 0 0 0 0 0 0 0 0 0 0 0 0 0 0 0 0
0 0 0 0 0 0 0 0 0 0 0 45 50 55 59 65 70 73 75 77 79 84 99 113 129 138 142 144 147 151 153 155 158 161 173 194 211 216 219 222 224 225 227 228 229 229 230 230 230 231 232 232 234 236 237 238 239 240 241 242 243 242 241 240 239 238 237 236 234 233 231 230 229 229 228 228 227 226 226 225 223 222 220 217 213 207 197 187 179 171 164 159 157 154 151 149 146 142 138 132 125 0 0 0 0 0 0 0 0 0 0 0 0 0 0 0 0 0 0 0
0 0 0 0 0 0 0 0 0 0 38 42 46 51 58 65 69 72 73 73 75 82 96 111 127 138 142 145 147 150 153 155 157 159 168 189 209 215 218 221 223 224 226 227 228 228 229 230 0 230 232 233 235 236 237 238 240 241 241 242 242 241 241 241 240 239 238 237 235 233 231 230 229 229 228 227 227 226 225 224 222 220 219 216 212 205 195 185 176 169 161 157 155 153 150 148 144 140 134 127 119 110 0 0 0 0 0 0 0 0 0 0 0 0 0 0 0 0 0 0
0 0 0 0 0 0 0 0 0 0 35 39 43 48 54 61 67 70 71 70 72 80 92 108 124 136 142 145 147 149 152 155 157 158 166 185 206 213 217 219 222 223 225 226 227 228 229 229 230 231 232 234 236 237 238 240 241 242 242 242 242 242 242 242 241 240 239 237 236 234 232 231 230 228 227 226 226 225 224 223 221 219 217 215 211 204 197 185 176 167 160 156 153 150 147 144 140 136 129 122 113 105 100 0 0 0 0 0 0 0 0 0 0 0 0 0 0 0 0 0
0 0 0 0 0 0 0 0 0 0 30 33 38 43 48 55 62 65 65 66 69 74 86 102 118 131 138 143 147 149 151 153 155 157 163 183 201 211 215 218 221 222 224 225 226 227 227 228 229 230 232 235 237 238 240 241 242 243 243 243 243 243 243 243 242 241 241 239 238 235 233 231 229 0 227 226 225 224 223 222 220 218 216 214 209 202 194 185 175 166 159 155 151 147 144 140 135 130 124 115 108 101 93 86 0 0 0 0 0 0 0 0 0 0 0 0 0 0 0 0
0 0 0 0 0 0 0 0 0 0 24 27 32 38 42 48 54 56 56 59 62 68 79 93 108 122 131 139 144 147 149 152 154 158 162 175 194 208 213 216 219 221 222 224 225 226 226 228 229 231 233 236 238 239 240 241 243 243 244 244 244 244 243 243 242 241 240 239 238 236 234 232 230 228 227 225 224 223 222 221 219 217 214 212 208 202 194 185 175 165 158 155 151 146 141 136 130 124 119 110 102 95 88 81 76 0 0 0 0 0 0 0 0 0 0 0 0 0 0 0
0 0 0 0 0 0 0 0 0 0 18 23 27 33 37 42 46 47 49 50 53 59 68 76 90 104 116 129 136 142 146 149 152 157 161 169 188 206 212 215 217 220 221 223 224 225 226 227 227 229 233 235 237 238 239 241 242 242 243 243 243 243 242 242 241 240 239 239 237 235 234 232 229 227 226 225 223 222 221 219 218 216 214 212 208 203 197 188 177 169 161 158 153 148 141 133 126 120 113 105 97 92 85 79 74 0 0 0 0 0 0 0 0 0 0 0 0 0 0 0
0 0 0 0 0 0 0 0 0 0 12 15 21 27 32 36 38 40 42 43 45 49 53 58 67 84 97 115 127 134 138 143 149 156 160 164 177 199 210 214 216 218 220 222 223 224 225 226 226 229 232 234 236 236 237 238 238 240 240 241 241 240 240 240 238 238 236 235 235 233 232 230 228 225 225 224 222 221 220 218 217 215 213 210 208 204 196 188 178 170 165 160 153 147 139 130 122 116 108 101 95 88 83 77 73 0 0 0 0 0 0 0 0 0 0 0 0 0 0 0
0 0 0 0 0 0 0 0 0 0 7 12 16 21 26 30 32 32 34 35 36 37 39 42 47 62 78 96 114 124 131 137 145 153 156 158 165 186 206 212 214 217 219 221 222 223 223 224 224 225 228 230 233 233 234 235 235 236 237 238 238 238 238 237 235 234 232 231 230 230 228 226 224 223 222 222 221 220 218 217 216 214 212 210 206 201 194 187 177 169 165 160 153 145 137 128 120 112 104 97 93 88 82 77 72 70 0 0 0 0 0 0 0 0 0 0 0 0 0 0
0 0 0 0 0 0 0 0 0 0 6 9 13 18 22 24 25 26 27 27 27 28 30 34 36 43 58 75 95 111 122 130 141 149 153 154 157 175 201 210 214 215 218 219 220 221 222 222 222 222 223 226 229 230 230 230 230 232 234 235 235 235 235 234 232 229 229 227 227 225 224 222 221 221 221 221 220 219 218 217 215 213 211 208 204 199 191 183 175 168 163 158 151 142 133 124 115 107 100 93 88 85 80 75 71 68 0 0 0 0 0 0 0 0 0 0 0 0 0 0
0 0 0 0 0 0 0 0 0 0 5 8 11 15 17 18 20 20 20 19 18 18 22 25 28 34 44 58 79 98 113 121 135 145 151 152 154 168 196 208 211 214 216 218 219 220 221 221 222 222 224 226 228 230 230 229 229 232 233 233 233 233 233 232 231 229 228 228 228 225 224 223 221 220 220 220 219 218 217 216 214 212 210 206 203 196 189 181 173 166 162 156 148 140 131 122 113 104 95 88 82 80 77 73 69 66 0 0 0 0 0 0 0 0 0 0 0 0 0 0
0 0 0 0 0 0 0 0 0 0 5 8 11 13 14 15 16 16 15 13 10 11 15 20 25 31 37 46 60 82 102 114 129 142 149 152 154 166 196 207 210 213 216 217 218 219 220 221 222 223 224 227 230 232 234 233 233 235 235 235 235 234 234 233 233 233 233 233 232 229 226 224 222 221 220 219 218 217 216 214 213 211 208 206 202 196 186 177 170 164 161 154 146 137 129 119 110 100 94 86 79 76 72 69 66 64 0 0 0 0 0 0 0 0 0 0 0 0 0 0
0 0 0 0 0 0 0 0 0 0 7 8 10 12 13 13 12 13 11 9 5 6 10 17 24 28 32 38 45 58 81 103 121 139 148 153 156 168 195 205 209 211 214 216 217 218 219 220 0 223 225 228 231 233 235 237 237 238 237 237 237 237 236 236 236 236 236 235 234 232 228 225 222 220 220 219 217 216 215 213 212 209 207 204 199 194 184 174 168 163 0 0 0 0 0 117 110 101 93 85 79 74 70 67 63 0 0 0 0 0 0 0 0 0 0 0 0 0 0 0
0 0 0 0 0 0 0 0 0 0 10 10 11 12 13 12 10 10 7 5 2 3 6 15 23 27 30 34 38 44 59 83 109 131 142 151 157 169 190 203 206 209 212 214 216 217 218 220 221 222 224 227 231 234 236 237 238 239 239 239 238 238 238 238 237 237 237 236 234 231 228 226 222 220 219 218 216 215 214 212 210 208 205 202 197 190 180 170 164 0 0 0 0 0 0 0 0 0 90 84 77 71 67 64 62 0 0 0 0 0 0 0 0 0 0 0 0 0 0 0
0 0 0 0 0 0 0 0 0 0 13 12 12 13 13 12 10 8 5 3 2 2 6 13 22 27 30 31 34 37 47 64 90 115 135 145 158 167 186 199 204 208 210 213 215 216 217 219 221 222 224 226 229 232 234 237 238 239 239 239 239 238 238 238 238 238 237 235 233 230 227 224 222 220 218 217 216 214 212 210 208 206 203 200 196 186 179 169 0 0 0 0 0 0 0 0 0 0 0 0 0 0 0 0 0 0 0 0 0 0 0 0 0 0 0 0 0 0 0 0
0 0 0 0 0 0 0 0 0 0 16 17 15 15 13 12 9 6 4 3 2 2 5 13 23 28 30 31 32 34 40 49 65 88 113 136 161 171 185 197 202 206 208 212 213 215 216 218 220 221 223 225 227 229 231 234 236 237 238 238 238 238 238 238 238 237 235 234 230 228 225 223 221 219 218 216 214 213 211 209 206 204 201 197 193 188 0 0 0 0 0 0 0 0 0 0 0 0 0 0 0 0 0 0 0 0 0 0 0 0 0 0 0 0 0 0 0 0 0 0
0 0 0 0 0 0 0 0 0 0 0 20 18 14 13 12 8 4 1 1 1 3 7 14 23 28 30 31 32 34 36 41 49 63 85 112 0 176 183 193 199 204 207 209 211 214 215 217 219 220 222 223 226 228 229 231 233 234 234 236 236 236 236 236 236 234 233 231 228 226 224 222 221 219 217 215 213 211 209 206 204 201 198 194 192 0 0 0 0 0 0 0 0 0 0 0 0 0 0 0 0 0 0 0 0 0 0 0 0 0 0 0 0 0 0 0 0 0 0 0
0 0 0 0 0 0 0 0 0 0 0 0 0 0 0 0 0 0 0 0 2 4 8 15 22 28 30 31 31 32 35 38 41 46 58 84 0 0 183 189 194 200 204 207 210 212 215 216 218 220 222 223 225 227 228 228 230 230 232 232 232 233 233 232 232 230 230 228 226 225 223 221 219 218 216 215 212 210 208 205 201 198 194 191 0 0 0 0 0 0 0 0 0 0 0 0 0 0 0 0 0 0 0 0 0 0 0 0 0 0 0 0 0 0 0 0 0 0 0 0
0 0 0 0 0 0 0 0 0 0 0 0 0 0 0 0 0 0 0 0 0 0 0 0 0 28 29 30 31 31 33 35 37 40 44 63 0 0 0 183 189 196 202 205 208 211 213 215 217 219 221 223 225 226 227 228 229 230 230 230 231 231 231 230 229 229 228 226 225 224 223 221 219 217 215 214 212 209 207 203 199 195 192 188 0 0 0 0 0 0 0 0 0 0 0 0 0 0 0 0 0 0 0 0 0 0 0 0 0 0 0 0 0 0 0 0 0 0 0 0
0 0 0 0 0 0 0 0 0 0 0 0 0 0 0 0 0 0 0 0 0 0 0 0 0 0 0 29 29 30 31 32 34 35 37 50 0 0 0 179 183 192 198 202 206 209 212 214 216 219 220 222 223 225 226 227 228 229 230 230 230 230 230 229 229 228 227 226 225 223 222 220 218 216 214 212 210 207 204 201 196 191 188 0 0 0 0 0 0 0 0 0 0 0 0 0 0 0 0 0 0 0 0 0 0 0 0 0 0 0 0 0 0 0 0 0 0 0 0 0
0 0 0 0 0 0 0 0 0 0 0 0 0 0 0 0 0 0 0 0 0 0 0 0 0 0 0 0 27 28 30 30 30 31 34 39 0 0 0 175 175 184 193 198 204 207 210 213 216 218 220 221 223 225 226 227 228 229 229 230 230 230 230 229 228 228 227 226 225 223 221 219 217 215 213 211 208 205 202 198 193 188 183 181 0 0 0 0 0 0 0 0 0 0 0 0 0 0 0 0 0 0 0 0 0 0 0 0 0 0 0 0 0 0 0 0 0 0 0 0
0 0 0 0 0 0 0 0 0 0 0 0 0 0 0 0 0 0 0 0 0 0 0 0 0 0 0 0 0 0 0 0 0 0 0 0 0 0 0 0 165 172 183 193 198 204 208 211 214 217 219 221 0 225 226 227 228 229 229 229 229 229 229 229 228 228 227 226 225 223 221 219 217 215 213 208 205 201 197 194 189 184 179 177 0 0 0 0 0 0 0 0 0 0 0 0 0 0 0 0 0 0 0 0 0 0 0 0 0 0 0 0 0 0 0 0 0 0 0 0
0 0 0 0 0 0 0 0 0 0 0 0 0 0 0 0 0 0 0 0 0 0 0 0 0 0 0 0 0 0 0 0 0 0 0 0 0 0 0 0 155 158 166 182 192 199 203 208 213 215 218 221 223 0 0 0 228 0 229 0 229 229 229 228 228 227 227 225 225 223 221 219 216 213 209 206 201 196 191 187 182 177 173 171 0 0 0 0 0 0 0 0 0 0 0 0 0 0 0 0 0 0 0 0 0 0 0 0 0 0 0 0 0 0 0 0 0 0 0 0
0 0 0 0 0 0 0 0 0 0 0 0 0 0 0 0 0 0 0 0 0 0 0 0 0 0 0 0 0 0 0 0 0 0 0 0 0 0 0 0 149 150 154 163 177 186 195 203 209 213 217 220 222 224 225 226 227 228 228 228 228 228 228 228 227 227 227 225 224 222 220 219 214 210 206 200 195 189 182 178 172 167 165 165 163 0 0 0 0 0 0 0 0 0 0 0 0 0 0 0 0 0 0 0 0 0 0 0 0 0 0 0 0 0 0 0 0 0 0 0
0 0 0 0 0 0 0 0 0 0 0 0 0 0 0 0 0 0 0 0 0 0 0 0 0 0 0 0 0 0 0 0 0 0 0 0 0 0 0 0 144 146 149 154 160 168 181 191 201 208 214 219 221 223 224 226 226 227 227 227 228 227 227 227 227 226 226 224 223 221 219 215 212 206 201 195 188 182 175 169 164 160 157 158 158 0 0 0 0 0 0 0 0 0 0 0 0 0 0 0 0 0 0 0 0 0 0 0 0 0 0 0 0 0 0 0 0 0 0 0
0 0 0 0 0 0 0 0 0 0 0 0 0 0 0 0 0 0 0 0 0 0 0 0 0 0 0 0 0 0 0 0 0 0 0 0 0 0 0 0 141 144 147 150 153 159 166 176 187 198 207 213 219 222 223 224 225 226 226 226 226 226 226 226 226 225 224 223 222 219 216 212 207 201 194 188 181 175 168 164 159 157 153 152 151 146 0 0 0 0 0 0 0 0 0 0 0 0 0 0 0 0 0 0 0 0 0 0 0 0 0 0 0 0 0 0 0 0 0 0
0 0 0 0 0 0 0 0 0 0 0 0 0 0 0 0 0 0 0 0 0 0 0 0 0 0 0 0 0 0 0 0 0 0 0 0 0 0 0 0 138 142 146 150 152 154 159 164 172 181 192 204 213 218 220 222 224 224 224 224 223 223 223 224 224 223 222 221 219 215 210 205 199 193 186 179 172 167 163 159 157 155 151 149 146 143 140 0 0 0 0 0 0 0 0 0 0 0 0 0 0 0 0 0 0 0 0 0 0 0 0 0 0 0 0 0 0 0 0 0
0 0 0 0 0 0 0 0 0 0 0 0 0 0 0 0 0 0 0 0 0 0 0 0 0 0 0 0 0 0 0 0 0 0 0 0 0 0 0 0 132 140 146 149 151 154 156 158 163 169 175 186 199 210 216 219 220 221 220 219 218 218 219 219 221 220 219 217 214 210 205 198 192 184 176 171 166 162 160 158 156 154 150 147 143 140 136 0 0 0 0 0 0 0 0 0 0 0 0 0 0 0 0 0 0 0 0 0 0 0 0 0 0 0 0 0 0 0 0 0
0 0 0 0 0 0 0 0 0 0 0 0 0 0 0 0 0 0 0 0 0 0 0 0 0 0 0 0 0 0 0 0 0 0 0 0 0 0 0 116 124 135 144 148 150 153 155 157 159 162 166 171 180 194 205 211 212 214 214 213 211 210 211 213 214 214 213 210 207 202 197 191 184 176 170 166 162 160 158 156 155 153 151 146 142 139 135 129 0 0 0 0 0 0 0 0 0 0 0 0 0 0 0 0 0 0 0 0 0 0 0 0 0 0 0 0 0 0 0 0
0 0 0 0 0 0 0 0 0 0 0 0 0 0 0 0 0 0 0 0 0 0 0 0 0 0 0 0 0 0 0 0 0 0 0 0 0 0 0 114 120 134 143 147 150 153 154 156 157 159 161 164 170 178 187 196 201 203 205 205 203 202 203 203 202 204 202 199 195 193 189 181 174 169 165 162 160 158 157 155 154 152 149 146 142 138 134 127 120 114 0 0 0 0 0 0 0 0 0 0 0 0 0 0 0 0 0 0 0 0 0 0 0 0 0 0 0 0 0 0
0 0 0 0 0 0 0 0 0 0 0 0 0 0 0 0 0 0 0 0 0 0 0 0 0 0 0 0 0 0 0 0 0 0 0 0 0 0 110 114 120 132 141 146 149 152 153 155 157 0 160 162 165 169 176 181 186 188 192 192 193 193 191 191 192 192 189 187 184 182 176 172 168 164 161 160 158 157 156 154 153 151 149 145 142 138 133 127 119 113 0 0 0 0 0 0 0 0 0 0 0 0 0 0 0 0 0 0 0 0 0 0 0 0 0 0 0 0 0 0
0 0 0 0 0 0 0 0 0 0 0 0 0 0 0 0 0 0 0 0 0 0 0 0 0 0 0 0 0 0 0 0 0 0 0 0 0 0 109 113 122 132 140 145 148 151 152 154 156 157 159 160 162 166 170 171 176 179 179 180 179 177 179 179 181 179 178 177 176 174 170 167 164 162 161 160 158 156 155 154 152 150 147 145 141 137 133 126 117 113 109 108 0 0 0 0 0 0 0 0 0 0 0 0 0 0 0 0 0 0 0 0 0 0 0 0 0 0 0 0
0 0 0 0 0 0 0 0 0 0 0 0 0 0 0 0 0 0 0 0 0 0 0 0 0 0 0 0 0 0 0 0 0 0 0 0 0 111 112 114 121 133 139 144 148 150 152 154 155 157 158 160 161 164 165 168 170 170 172 171 171 171 172 172 171 170 170 170 170 168 166 164 163 162 160 159 157 156 154 153 151 149 147 144 141 135 132 126 117 112 110 108 0 0 0 0 0 0 0 0 0 0 0 0 0 0 0 0 0 0 0 0 0 0 0 0 0 0 0 0
0 0 0 0 0 0 0 0 0 0 0 0 0 0 0 0 0 0 0 0 0 0 0 0 0 0 0 0 0 0 0 0 0 0 0 114 114 114 113 114 118 131 138 144 147 150 151 153 155 156 158 159 161 162 163 165 167 168 168 169 169 169 169 169 169 168 168 168 167 166 165 163 162 160 159 158 156 155 153 152 150 148 146 143 140 134 130 125 117 112 111 109 109 0 0 0 0 0 0 0 0 0 0 0 0 0 0 0 0 0 0 0 0 0 0 0 0 0 0 0
0 0 0 0 0 0 0 0 0 0 0 0 0 0 0 0 0 0 0 0 0 0 0 0 0 0 0 0 0 0 0 0 0 0 116 117 117 116 115 116 120 130 138 144 147 149 151 152 154 156 157 159 160 161 163 164 165 166 167 168 168 168 169 168 168 168 168 167 166 165 164 162 161 159 157 156 155 154 152 151 149 147 146 143 138 133 128 125 117 114 113 113 113 115 0 0 0 0 0 0 0 0 0 0 0 0 0 0 0 0 0 0 0 0 0 0 0 0 0 0
0 0 0 0 0 0 0 0 0 0 0 0 0 0 0 0 0 0 0 0 0 0 0 0 0 0 0 0 0 0 0 0 0 116 118 120 120 119 117 118 122 128 136 143 146 148 151 152 153 155 157 158 159 161 162 164 165 166 166 167 168 168 168 168 168 167 167 166 166 164 163 162 160 159 157 156 154 153 151 150 149 147 145 142 137 132 128 122 118 116 115 115 116 117 0 0 0 0 0 0 0 0 0 0 0 0 0 0 0 0 0 0 0 0 0 0 0 0 0 0
0 0 0 0 0 0 0 0 0 0 0 0 0 0 0 0 0 0 0 0 0 0 0 0 0 0 0 0 0 0 0 0 0 117 120 123 122 120 119 119 121 125 134 143 146 148 150 151 153 155 156 158 159 160 162 163 164 165 166 166 167 167 167 167 167 167 166 166 165 163 163 161 159 158 156 155 154 152 151 149 148 146 144 141 136 130 126 123 120 118 118 119 119 120 119 0 0 0 0 0 0 0 0 0 0 0 0 0 0 0 0 0 0 0 0 0 0 0 0 0
0 0 0 0 0 0 0 0 0 0 0 0 0 0 0 0 0 0 0 0 0 0 0 0 0 0 0 0 0 0 0 0 0 119 124 125 124 122 121 120 121 125 134 142 145 147 149 151 152 154 155 157 158 159 161 162 163 164 165 166 166 167 167 167 166 166 165 165 164 163 162 160 159 157 156 154 153 152 150 149 147 146 144 140 136 130 125 122 120 119 120 120 122 122 121 119 0 0 0 0 0 0 0 0 0 0 0 0 0 0 0 0 0 0 0 0 0 0 0 0
0 0 0 0 0 0 0 0 0 0 0 0 0 0 0 0 0 0 0 0 0 0 0 0 0 0 0 0 0 0 0 0 116 122 127 128 125 123 123 122 123 127 137 142 145 148 149 151 152 153 154 0 158 158 160 161 163 164 164 165 166 166 166 166 166 165 165 164 163 162 160 159 158 156 154 153 152 151 149 148 147 145 143 141 137 131 125 122 120 120 121 122 124 125 124 120 0 0 0 0 0 0 0 0 0 0 0 0 0 0 0 0 0 0 0 0 0 0 0 0
0 0 0 0 0 0 0 0 0 0 0 0 0 0 0 0 0 0 0 0 0 0 0 0 0 0 0 0 0 0 113 114 119 125 130 130 127 124 123 124 125 130 137 142 145 147 149 150 152 153 154 155 157 157 159 160 162 163 164 164 165 165 165 165 165 164 164 163 162 160 159 158 156 155 154 153 151 150 149 148 146 144 142 141 138 132 126 122 121 122 123 124 126 127 125 122 118 115 0 0 0 0 0 0 0 0 0 0 0 0 0 0 0 0 0 0 0 0 0 0
0 0 0 0 0 0 0 0 0 0 0 0 0 0 0 0 0 0 0 0 0 0 0 0 0 0 0 0 0 110 113 117 121 129 133 132 129 125 124 124 126 131 137 142 144 147 148 150 151 152 153 155 156 157 158 159 161 162 162 163 164 164 164 164 164 163 163 162 161 160 159 157 156 154 153 152 151 150 149 147 145 143 142 139 137 133 128 124 122 123 124 126 129 129 127 124 120 115 110 0 0 0 0 0 0 0 0 0 0 0 0 0 0 0 0 0 0 0 0 0
0 0 0 0 0 0 0 0 0 0 0 0 0 0 0 0 0 0 0 0 0 0 0 0 0 0 0 0 105 109 115 120 125 131 135 134 130 126 125 125 127 132 138 141 144 146 148 149 150 151 153 155 156 156 157 159 160 161 161 162 163 163 163 163 163 162 161 161 159 158 157 156 154 153 153 151 150 149 148 146 144 143 141 139 136 133 128 125 124 125 126 129 131 131 130 127 123 116 111 105 102 0 0 0 0 0 0 0 0 0 0 0 0 0 0 0 0 0 0 0
0 0 0 0 0 0 0 0 0 0 0 0 0 0 0 0 0 0 0 0 0 0 0 0 0 0 0 95 103 111 117 123 129 134 137 136 132 127 124 124 128 132 136 140 143 146 147 149 150 151 153 154 155 156 156 158 159 160 160 161 161 162 162 162 161 161 160 159 159 157 156 155 154 153 152 151 150 149 147 146 144 143 141 138 136 133 129 126 125 126 128 131 134 134 132 129 124 119 114 109 103 97 94 0 0 0 0 0 0 0 0 0 0 0 0 0 0 0 0 0
0 0 0 0 0 0 0 0 0 0 0 0 0 0 0 0 0 0 0 0 0 0 0 0 0 0 91 95 103 111 119 124 131 136 138 138 133 127 123 124 127 131 136 139 142 144 146 148 149 150 152 153 154 155 156 157 158 159 160 160 161 161 161 161 160 160 159 159 158 157 156 155 154 152 151 150 149 149 146 145 143 141 140 138 135 133 130 126 126 127 129 134 136 136 134 131 126 121 117 111 107 103 97 92 92 0 0 0 0 0 0 0 0 0 0 0 0 0 0 0
0 0 0 0 0 0 0 0 0 0 0 0 0 0 0 0 0 0 0 0 0 0 0 0 91 93 96 100 107 115 121 126 133 138 140 139 134 127 123 123 127 132 136 139 141 143 146 147 149 150 151 153 154 154 155 156 157 158 159 159 160 160 160 160 160 159 158 158 157 157 155 154 153 152 150 149 148 147 146 145 142 140 138 137 135 132 130 127 127 128 131 136 138 138 136 134 129 124 119 114 110 107 102 97 95 93 92 0 0 0 0 0 0 0 0 0 0 0 0 0
0 0 0 0 0 0 0 0 0 0 0 0 0 0 0 0 0 0 0 0 0 0 89 92 97 100 102 108 113 119 123 127 135 140 142 140 135 128 125 125 128 132 135 138 141 143 145 147 149 150 151 153 153 154 154 156 157 158 158 159 159 159 160 160 159 159 158 157 157 156 155 153 152 151 150 149 148 146 145 144 142 140 138 136 135 133 130 127 128 130 134 137 139 139 137 134 131 127 122 118 115 110 106 103 100 99 98 97 95 95 0 0 0 0 0 0 0 0 0 0
0 0 0 0 0 0 0 0 0 0 0 0 0 0 0 0 0 0 0 0 0 83 91 99 103 104 108 113 118 122 125 130 136 140 142 141 135 130 126 127 129 133 135 138 141 142 145 146 0 0 0 0 0 0 0 0 0 0 0 0 0 0 0 0 0 0 0 0 0 0 0 0 0 0 0 0 0 0 0 0 142 140 138 136 134 132 129 128 128 131 135 139 139 139 138 135 131 126 123 121 117 113 109 106 104 103 102 101 101 98 93 89 0 0 0 0 0 0 0 0
0 0 0 0 0 0 0 0 0 0 0 0 0 0 0 0 0 0 0 0 0 79 97 104 106 108 111 116 122 124 0 0 0 0 0 0 0 0 0 0 0 0 0 0 0 0 0 0 0 0 0 0 0 0 0 0 0 0 0 0 0 0 0 0 0 0 0 0 0 0 0 0 0 0 0 0 0 0 0 0 0 0 0 0 0 0 0 0 0 0 0 0 0 0 0 0 0 0 0 0 0 114 110 106 106 105 105 104 103 100 95 87 80 74 0 0 0 0 0 0
0 0 0 0 0 0 0 0 0 0 0 0 0 0 0 0 0 0 0 0 56 74 96 0 0 0 0 0 0 0 0 0 0 0 0 0 0 0 0 0 0 0 0 0 0 0 0 0 0 0 0 0 0 0 0 0 0 0 0 0 0 0 0 0 0 0 0 0 0 0 0 0 0 0 0 0 0 0 0 0 0 0 0 0 0 0 0 0 0 0 0 0 0 0 0 0 0 0 0 0 0 0 0 0 0 0 0 0 0 0 0 88 80 71 0 0 0 0 0 0
0 0 0 0 0 0 0 0 0 0 0 0 0 0 0 0 0 0 0 0 55 69 0 0 0 0 0 0 0 0 0 0 0 0 0 0 0 0 0 0 0 0 0 0 0 0 0 0 0 0 0 0 0 0 0 0 0 0 0 0 0 0 0 0 0 0 0 0 0 0 0 0 0 0 0 0 0 0 0 0 0 0 0 0 0 0 0 0 0 0 0 0 0 0 0 0 0 0 0 0 0 0 0 0 0 0 0 0 0 0 0 0 0 0 0 0 0 0 0 0
